<?xml version="1.0" encoding="utf-8" standalone="no"?>
<!DOCTYPE svg PUBLIC "-//W3C//DTD SVG 1.1//EN"
        "http://www.w3.org/Graphics/SVG/1.1/DTD/svg11.dtd">
<!-- Created with matplotlib (http://matplotlib.org/) -->
<svg height="385pt" version="1.1" viewBox="0 0 792 385" width="792pt" xmlns="http://www.w3.org/2000/svg"
     xmlns:xlink="http://www.w3.org/1999/xlink">
    <defs>
        <style type="text/css">
            *{stroke-linecap:butt;stroke-linejoin:round;}
        </style>
    </defs>
    <g id="figure_1">
        <g id="patch_1">
            <path d="M 0 385.2
L 792 385.2 
L 792 0 
L 0 0 
z
" style="fill:#ffffff;"/>
        </g>
        <g id="axes_1">
            <g id="patch_2">
                <path d="M 99 342.828
L 712.8 342.828 
L 712.8 46.224 
L 99 46.224 
z
" style="fill:#ffffff;"/>
            </g>
            <g id="matplotlib.axis_1">
                <g id="xtick_1">
                    <g id="line2d_1">
                        <defs>
                            <path d="M 0 0
L 0 3.5 
" id="m9e85df7a35" style="stroke:#000000;stroke-width:0.8;"/>
                        </defs>
                        <g>
                            <use style="stroke:#000000;stroke-width:0.8;" x="99" xlink:href="#m9e85df7a35" y="342.828"/>
                        </g>
                    </g>
                    <g id="text_1">
                        <!-- 0 -->
                        <defs>
                            <path d="M 31.78125 66.40625
Q 24.171875 66.40625 20.328125 58.90625 
Q 16.5 51.421875 16.5 36.375 
Q 16.5 21.390625 20.328125 13.890625 
Q 24.171875 6.390625 31.78125 6.390625 
Q 39.453125 6.390625 43.28125 13.890625 
Q 47.125 21.390625 47.125 36.375 
Q 47.125 51.421875 43.28125 58.90625 
Q 39.453125 66.40625 31.78125 66.40625 
M 31.78125 74.21875 
Q 44.046875 74.21875 50.515625 64.515625 
Q 56.984375 54.828125 56.984375 36.375 
Q 56.984375 17.96875 50.515625 8.265625 
Q 44.046875 -1.421875 31.78125 -1.421875 
Q 19.53125 -1.421875 13.0625 8.265625 
Q 6.59375 17.96875 6.59375 36.375 
Q 6.59375 54.828125 13.0625 64.515625 
Q 19.53125 74.21875 31.78125 74.21875 
" id="DejaVuSans-30"/>
                        </defs>
                        <g transform="translate(95.81875 357.426438)scale(0.1 -0.1)">
                            <use xlink:href="#DejaVuSans-30"/>
                        </g>
                    </g>
                </g>
                <g id="xtick_2">
                    <g id="line2d_2">
                        <g>
                            <use style="stroke:#000000;stroke-width:0.8;" x="168.191316" xlink:href="#m9e85df7a35"
                                 y="342.828"/>
                        </g>
                    </g>
                    <g id="text_2">
                        <!-- 5000 -->
                        <defs>
                            <path d="M 10.796875 72.90625
L 49.515625 72.90625 
L 49.515625 64.59375 
L 19.828125 64.59375 
L 19.828125 46.734375 
Q 21.96875 47.46875 24.109375 47.828125 
Q 26.265625 48.1875 28.421875 48.1875 
Q 40.625 48.1875 47.75 41.5 
Q 54.890625 34.8125 54.890625 23.390625 
Q 54.890625 11.625 47.5625 5.09375 
Q 40.234375 -1.421875 26.90625 -1.421875 
Q 22.3125 -1.421875 17.546875 -0.640625 
Q 12.796875 0.140625 7.71875 1.703125 
L 7.71875 11.625 
Q 12.109375 9.234375 16.796875 8.0625 
Q 21.484375 6.890625 26.703125 6.890625 
Q 35.15625 6.890625 40.078125 11.328125 
Q 45.015625 15.765625 45.015625 23.390625 
Q 45.015625 31 40.078125 35.4375 
Q 35.15625 39.890625 26.703125 39.890625 
Q 22.75 39.890625 18.8125 39.015625 
Q 14.890625 38.140625 10.796875 36.28125 
z
" id="DejaVuSans-35"/>
                        </defs>
                        <g transform="translate(155.466316 357.426438)scale(0.1 -0.1)">
                            <use xlink:href="#DejaVuSans-35"/>
                            <use x="63.623047" xlink:href="#DejaVuSans-30"/>
                            <use x="127.246094" xlink:href="#DejaVuSans-30"/>
                            <use x="190.869141" xlink:href="#DejaVuSans-30"/>
                        </g>
                    </g>
                </g>
                <g id="xtick_3">
                    <g id="line2d_3">
                        <g>
                            <use style="stroke:#000000;stroke-width:0.8;" x="237.382632" xlink:href="#m9e85df7a35"
                                 y="342.828"/>
                        </g>
                    </g>
                    <g id="text_3">
                        <!-- 10000 -->
                        <defs>
                            <path d="M 12.40625 8.296875
L 28.515625 8.296875 
L 28.515625 63.921875 
L 10.984375 60.40625 
L 10.984375 69.390625 
L 28.421875 72.90625 
L 38.28125 72.90625 
L 38.28125 8.296875 
L 54.390625 8.296875 
L 54.390625 0 
L 12.40625 0 
z
" id="DejaVuSans-31"/>
                        </defs>
                        <g transform="translate(221.476382 357.426438)scale(0.1 -0.1)">
                            <use xlink:href="#DejaVuSans-31"/>
                            <use x="63.623047" xlink:href="#DejaVuSans-30"/>
                            <use x="127.246094" xlink:href="#DejaVuSans-30"/>
                            <use x="190.869141" xlink:href="#DejaVuSans-30"/>
                            <use x="254.492188" xlink:href="#DejaVuSans-30"/>
                        </g>
                    </g>
                </g>
                <g id="xtick_4">
                    <g id="line2d_4">
                        <g>
                            <use style="stroke:#000000;stroke-width:0.8;" x="306.573948" xlink:href="#m9e85df7a35"
                                 y="342.828"/>
                        </g>
                    </g>
                    <g id="text_4">
                        <!-- 15000 -->
                        <g transform="translate(290.667698 357.426438)scale(0.1 -0.1)">
                            <use xlink:href="#DejaVuSans-31"/>
                            <use x="63.623047" xlink:href="#DejaVuSans-35"/>
                            <use x="127.246094" xlink:href="#DejaVuSans-30"/>
                            <use x="190.869141" xlink:href="#DejaVuSans-30"/>
                            <use x="254.492188" xlink:href="#DejaVuSans-30"/>
                        </g>
                    </g>
                </g>
                <g id="xtick_5">
                    <g id="line2d_5">
                        <g>
                            <use style="stroke:#000000;stroke-width:0.8;" x="375.765265" xlink:href="#m9e85df7a35"
                                 y="342.828"/>
                        </g>
                    </g>
                    <g id="text_5">
                        <!-- 20000 -->
                        <defs>
                            <path d="M 19.1875 8.296875
L 53.609375 8.296875 
L 53.609375 0 
L 7.328125 0 
L 7.328125 8.296875 
Q 12.9375 14.109375 22.625 23.890625 
Q 32.328125 33.6875 34.8125 36.53125 
Q 39.546875 41.84375 41.421875 45.53125 
Q 43.3125 49.21875 43.3125 52.78125 
Q 43.3125 58.59375 39.234375 62.25 
Q 35.15625 65.921875 28.609375 65.921875 
Q 23.96875 65.921875 18.8125 64.3125 
Q 13.671875 62.703125 7.8125 59.421875 
L 7.8125 69.390625 
Q 13.765625 71.78125 18.9375 73 
Q 24.125 74.21875 28.421875 74.21875 
Q 39.75 74.21875 46.484375 68.546875 
Q 53.21875 62.890625 53.21875 53.421875 
Q 53.21875 48.921875 51.53125 44.890625 
Q 49.859375 40.875 45.40625 35.40625 
Q 44.1875 33.984375 37.640625 27.21875 
Q 31.109375 20.453125 19.1875 8.296875 
" id="DejaVuSans-32"/>
                        </defs>
                        <g transform="translate(359.859015 357.426438)scale(0.1 -0.1)">
                            <use xlink:href="#DejaVuSans-32"/>
                            <use x="63.623047" xlink:href="#DejaVuSans-30"/>
                            <use x="127.246094" xlink:href="#DejaVuSans-30"/>
                            <use x="190.869141" xlink:href="#DejaVuSans-30"/>
                            <use x="254.492188" xlink:href="#DejaVuSans-30"/>
                        </g>
                    </g>
                </g>
                <g id="xtick_6">
                    <g id="line2d_6">
                        <g>
                            <use style="stroke:#000000;stroke-width:0.8;" x="444.956581" xlink:href="#m9e85df7a35"
                                 y="342.828"/>
                        </g>
                    </g>
                    <g id="text_6">
                        <!-- 25000 -->
                        <g transform="translate(429.050331 357.426438)scale(0.1 -0.1)">
                            <use xlink:href="#DejaVuSans-32"/>
                            <use x="63.623047" xlink:href="#DejaVuSans-35"/>
                            <use x="127.246094" xlink:href="#DejaVuSans-30"/>
                            <use x="190.869141" xlink:href="#DejaVuSans-30"/>
                            <use x="254.492188" xlink:href="#DejaVuSans-30"/>
                        </g>
                    </g>
                </g>
                <g id="xtick_7">
                    <g id="line2d_7">
                        <g>
                            <use style="stroke:#000000;stroke-width:0.8;" x="514.147897" xlink:href="#m9e85df7a35"
                                 y="342.828"/>
                        </g>
                    </g>
                    <g id="text_7">
                        <!-- 30000 -->
                        <defs>
                            <path d="M 40.578125 39.3125
Q 47.65625 37.796875 51.625 33 
Q 55.609375 28.21875 55.609375 21.1875 
Q 55.609375 10.40625 48.1875 4.484375 
Q 40.765625 -1.421875 27.09375 -1.421875 
Q 22.515625 -1.421875 17.65625 -0.515625 
Q 12.796875 0.390625 7.625 2.203125 
L 7.625 11.71875 
Q 11.71875 9.328125 16.59375 8.109375 
Q 21.484375 6.890625 26.8125 6.890625 
Q 36.078125 6.890625 40.9375 10.546875 
Q 45.796875 14.203125 45.796875 21.1875 
Q 45.796875 27.640625 41.28125 31.265625 
Q 36.765625 34.90625 28.71875 34.90625 
L 20.21875 34.90625 
L 20.21875 43.015625 
L 29.109375 43.015625 
Q 36.375 43.015625 40.234375 45.921875 
Q 44.09375 48.828125 44.09375 54.296875 
Q 44.09375 59.90625 40.109375 62.90625 
Q 36.140625 65.921875 28.71875 65.921875 
Q 24.65625 65.921875 20.015625 65.03125 
Q 15.375 64.15625 9.8125 62.3125 
L 9.8125 71.09375 
Q 15.4375 72.65625 20.34375 73.4375 
Q 25.25 74.21875 29.59375 74.21875 
Q 40.828125 74.21875 47.359375 69.109375 
Q 53.90625 64.015625 53.90625 55.328125 
Q 53.90625 49.265625 50.4375 45.09375 
Q 46.96875 40.921875 40.578125 39.3125 
" id="DejaVuSans-33"/>
                        </defs>
                        <g transform="translate(498.241647 357.426438)scale(0.1 -0.1)">
                            <use xlink:href="#DejaVuSans-33"/>
                            <use x="63.623047" xlink:href="#DejaVuSans-30"/>
                            <use x="127.246094" xlink:href="#DejaVuSans-30"/>
                            <use x="190.869141" xlink:href="#DejaVuSans-30"/>
                            <use x="254.492188" xlink:href="#DejaVuSans-30"/>
                        </g>
                    </g>
                </g>
                <g id="xtick_8">
                    <g id="line2d_8">
                        <g>
                            <use style="stroke:#000000;stroke-width:0.8;" x="583.339213" xlink:href="#m9e85df7a35"
                                 y="342.828"/>
                        </g>
                    </g>
                    <g id="text_8">
                        <!-- 35000 -->
                        <g transform="translate(567.432963 357.426438)scale(0.1 -0.1)">
                            <use xlink:href="#DejaVuSans-33"/>
                            <use x="63.623047" xlink:href="#DejaVuSans-35"/>
                            <use x="127.246094" xlink:href="#DejaVuSans-30"/>
                            <use x="190.869141" xlink:href="#DejaVuSans-30"/>
                            <use x="254.492188" xlink:href="#DejaVuSans-30"/>
                        </g>
                    </g>
                </g>
                <g id="xtick_9">
                    <g id="line2d_9">
                        <g>
                            <use style="stroke:#000000;stroke-width:0.8;" x="652.530529" xlink:href="#m9e85df7a35"
                                 y="342.828"/>
                        </g>
                    </g>
                    <g id="text_9">
                        <!-- 40000 -->
                        <defs>
                            <path d="M 37.796875 64.3125
L 12.890625 25.390625 
L 37.796875 25.390625 
z
M 35.203125 72.90625 
L 47.609375 72.90625 
L 47.609375 25.390625 
L 58.015625 25.390625 
L 58.015625 17.1875 
L 47.609375 17.1875 
L 47.609375 0 
L 37.796875 0 
L 37.796875 17.1875 
L 4.890625 17.1875 
L 4.890625 26.703125 
z
" id="DejaVuSans-34"/>
                        </defs>
                        <g transform="translate(636.624279 357.426438)scale(0.1 -0.1)">
                            <use xlink:href="#DejaVuSans-34"/>
                            <use x="63.623047" xlink:href="#DejaVuSans-30"/>
                            <use x="127.246094" xlink:href="#DejaVuSans-30"/>
                            <use x="190.869141" xlink:href="#DejaVuSans-30"/>
                            <use x="254.492188" xlink:href="#DejaVuSans-30"/>
                        </g>
                    </g>
                </g>
                <g id="text_10">
                    <!-- Time in sec from post creation -->
                    <defs>
                        <path d="M -0.296875 72.90625
L 61.375 72.90625 
L 61.375 64.59375 
L 35.5 64.59375 
L 35.5 0 
L 25.59375 0 
L 25.59375 64.59375 
L -0.296875 64.59375 
z
" id="DejaVuSans-54"/>
                        <path d="M 9.421875 54.6875
L 18.40625 54.6875 
L 18.40625 0 
L 9.421875 0 
z
M 9.421875 75.984375 
L 18.40625 75.984375 
L 18.40625 64.59375 
L 9.421875 64.59375 
z
" id="DejaVuSans-69"/>
                        <path d="M 52 44.1875
Q 55.375 50.25 60.0625 53.125 
Q 64.75 56 71.09375 56 
Q 79.640625 56 84.28125 50.015625 
Q 88.921875 44.046875 88.921875 33.015625 
L 88.921875 0 
L 79.890625 0 
L 79.890625 32.71875 
Q 79.890625 40.578125 77.09375 44.375 
Q 74.3125 48.1875 68.609375 48.1875 
Q 61.625 48.1875 57.5625 43.546875 
Q 53.515625 38.921875 53.515625 30.90625 
L 53.515625 0 
L 44.484375 0 
L 44.484375 32.71875 
Q 44.484375 40.625 41.703125 44.40625 
Q 38.921875 48.1875 33.109375 48.1875 
Q 26.21875 48.1875 22.15625 43.53125 
Q 18.109375 38.875 18.109375 30.90625 
L 18.109375 0 
L 9.078125 0 
L 9.078125 54.6875 
L 18.109375 54.6875 
L 18.109375 46.1875 
Q 21.1875 51.21875 25.484375 53.609375 
Q 29.78125 56 35.6875 56 
Q 41.65625 56 45.828125 52.96875 
Q 50 49.953125 52 44.1875 
" id="DejaVuSans-6d"/>
                        <path d="M 56.203125 29.59375
L 56.203125 25.203125 
L 14.890625 25.203125 
Q 15.484375 15.921875 20.484375 11.0625 
Q 25.484375 6.203125 34.421875 6.203125 
Q 39.59375 6.203125 44.453125 7.46875 
Q 49.3125 8.734375 54.109375 11.28125 
L 54.109375 2.78125 
Q 49.265625 0.734375 44.1875 -0.34375 
Q 39.109375 -1.421875 33.890625 -1.421875 
Q 20.796875 -1.421875 13.15625 6.1875 
Q 5.515625 13.8125 5.515625 26.8125 
Q 5.515625 40.234375 12.765625 48.109375 
Q 20.015625 56 32.328125 56 
Q 43.359375 56 49.78125 48.890625 
Q 56.203125 41.796875 56.203125 29.59375 
M 47.21875 32.234375 
Q 47.125 39.59375 43.09375 43.984375 
Q 39.0625 48.390625 32.421875 48.390625 
Q 24.90625 48.390625 20.390625 44.140625 
Q 15.875 39.890625 15.1875 32.171875 
z
" id="DejaVuSans-65"/>
                        <path id="DejaVuSans-20"/>
                        <path d="M 54.890625 33.015625
L 54.890625 0 
L 45.90625 0 
L 45.90625 32.71875 
Q 45.90625 40.484375 42.875 44.328125 
Q 39.84375 48.1875 33.796875 48.1875 
Q 26.515625 48.1875 22.3125 43.546875 
Q 18.109375 38.921875 18.109375 30.90625 
L 18.109375 0 
L 9.078125 0 
L 9.078125 54.6875 
L 18.109375 54.6875 
L 18.109375 46.1875 
Q 21.34375 51.125 25.703125 53.5625 
Q 30.078125 56 35.796875 56 
Q 45.21875 56 50.046875 50.171875 
Q 54.890625 44.34375 54.890625 33.015625 
" id="DejaVuSans-6e"/>
                        <path d="M 44.28125 53.078125
L 44.28125 44.578125 
Q 40.484375 46.53125 36.375 47.5 
Q 32.28125 48.484375 27.875 48.484375 
Q 21.1875 48.484375 17.84375 46.4375 
Q 14.5 44.390625 14.5 40.28125 
Q 14.5 37.15625 16.890625 35.375 
Q 19.28125 33.59375 26.515625 31.984375 
L 29.59375 31.296875 
Q 39.15625 29.25 43.1875 25.515625 
Q 47.21875 21.78125 47.21875 15.09375 
Q 47.21875 7.46875 41.1875 3.015625 
Q 35.15625 -1.421875 24.609375 -1.421875 
Q 20.21875 -1.421875 15.453125 -0.5625 
Q 10.6875 0.296875 5.421875 2 
L 5.421875 11.28125 
Q 10.40625 8.6875 15.234375 7.390625 
Q 20.0625 6.109375 24.8125 6.109375 
Q 31.15625 6.109375 34.5625 8.28125 
Q 37.984375 10.453125 37.984375 14.40625 
Q 37.984375 18.0625 35.515625 20.015625 
Q 33.0625 21.96875 24.703125 23.78125 
L 21.578125 24.515625 
Q 13.234375 26.265625 9.515625 29.90625 
Q 5.8125 33.546875 5.8125 39.890625 
Q 5.8125 47.609375 11.28125 51.796875 
Q 16.75 56 26.8125 56 
Q 31.78125 56 36.171875 55.265625 
Q 40.578125 54.546875 44.28125 53.078125 
" id="DejaVuSans-73"/>
                        <path d="M 48.78125 52.59375
L 48.78125 44.1875 
Q 44.96875 46.296875 41.140625 47.34375 
Q 37.3125 48.390625 33.40625 48.390625 
Q 24.65625 48.390625 19.8125 42.84375 
Q 14.984375 37.3125 14.984375 27.296875 
Q 14.984375 17.28125 19.8125 11.734375 
Q 24.65625 6.203125 33.40625 6.203125 
Q 37.3125 6.203125 41.140625 7.25 
Q 44.96875 8.296875 48.78125 10.40625 
L 48.78125 2.09375 
Q 45.015625 0.34375 40.984375 -0.53125 
Q 36.96875 -1.421875 32.421875 -1.421875 
Q 20.0625 -1.421875 12.78125 6.34375 
Q 5.515625 14.109375 5.515625 27.296875 
Q 5.515625 40.671875 12.859375 48.328125 
Q 20.21875 56 33.015625 56 
Q 37.15625 56 41.109375 55.140625 
Q 45.0625 54.296875 48.78125 52.59375 
" id="DejaVuSans-63"/>
                        <path d="M 37.109375 75.984375
L 37.109375 68.5 
L 28.515625 68.5 
Q 23.6875 68.5 21.796875 66.546875 
Q 19.921875 64.59375 19.921875 59.515625 
L 19.921875 54.6875 
L 34.71875 54.6875 
L 34.71875 47.703125 
L 19.921875 47.703125 
L 19.921875 0 
L 10.890625 0 
L 10.890625 47.703125 
L 2.296875 47.703125 
L 2.296875 54.6875 
L 10.890625 54.6875 
L 10.890625 58.5 
Q 10.890625 67.625 15.140625 71.796875 
Q 19.390625 75.984375 28.609375 75.984375 
z
" id="DejaVuSans-66"/>
                        <path d="M 41.109375 46.296875
Q 39.59375 47.171875 37.8125 47.578125 
Q 36.03125 48 33.890625 48 
Q 26.265625 48 22.1875 43.046875 
Q 18.109375 38.09375 18.109375 28.8125 
L 18.109375 0 
L 9.078125 0 
L 9.078125 54.6875 
L 18.109375 54.6875 
L 18.109375 46.1875 
Q 20.953125 51.171875 25.484375 53.578125 
Q 30.03125 56 36.53125 56 
Q 37.453125 56 38.578125 55.875 
Q 39.703125 55.765625 41.0625 55.515625 
z
" id="DejaVuSans-72"/>
                        <path d="M 30.609375 48.390625
Q 23.390625 48.390625 19.1875 42.75 
Q 14.984375 37.109375 14.984375 27.296875 
Q 14.984375 17.484375 19.15625 11.84375 
Q 23.34375 6.203125 30.609375 6.203125 
Q 37.796875 6.203125 41.984375 11.859375 
Q 46.1875 17.53125 46.1875 27.296875 
Q 46.1875 37.015625 41.984375 42.703125 
Q 37.796875 48.390625 30.609375 48.390625 
M 30.609375 56 
Q 42.328125 56 49.015625 48.375 
Q 55.71875 40.765625 55.71875 27.296875 
Q 55.71875 13.875 49.015625 6.21875 
Q 42.328125 -1.421875 30.609375 -1.421875 
Q 18.84375 -1.421875 12.171875 6.21875 
Q 5.515625 13.875 5.515625 27.296875 
Q 5.515625 40.765625 12.171875 48.375 
Q 18.84375 56 30.609375 56 
" id="DejaVuSans-6f"/>
                        <path d="M 18.109375 8.203125
L 18.109375 -20.796875 
L 9.078125 -20.796875 
L 9.078125 54.6875 
L 18.109375 54.6875 
L 18.109375 46.390625 
Q 20.953125 51.265625 25.265625 53.625 
Q 29.59375 56 35.59375 56 
Q 45.5625 56 51.78125 48.09375 
Q 58.015625 40.1875 58.015625 27.296875 
Q 58.015625 14.40625 51.78125 6.484375 
Q 45.5625 -1.421875 35.59375 -1.421875 
Q 29.59375 -1.421875 25.265625 0.953125 
Q 20.953125 3.328125 18.109375 8.203125 
M 48.6875 27.296875 
Q 48.6875 37.203125 44.609375 42.84375 
Q 40.53125 48.484375 33.40625 48.484375 
Q 26.265625 48.484375 22.1875 42.84375 
Q 18.109375 37.203125 18.109375 27.296875 
Q 18.109375 17.390625 22.1875 11.75 
Q 26.265625 6.109375 33.40625 6.109375 
Q 40.53125 6.109375 44.609375 11.75 
Q 48.6875 17.390625 48.6875 27.296875 
" id="DejaVuSans-70"/>
                        <path d="M 18.3125 70.21875
L 18.3125 54.6875 
L 36.8125 54.6875 
L 36.8125 47.703125 
L 18.3125 47.703125 
L 18.3125 18.015625 
Q 18.3125 11.328125 20.140625 9.421875 
Q 21.96875 7.515625 27.59375 7.515625 
L 36.8125 7.515625 
L 36.8125 0 
L 27.59375 0 
Q 17.1875 0 13.234375 3.875 
Q 9.28125 7.765625 9.28125 18.015625 
L 9.28125 47.703125 
L 2.6875 47.703125 
L 2.6875 54.6875 
L 9.28125 54.6875 
L 9.28125 70.21875 
z
" id="DejaVuSans-74"/>
                        <path d="M 34.28125 27.484375
Q 23.390625 27.484375 19.1875 25 
Q 14.984375 22.515625 14.984375 16.5 
Q 14.984375 11.71875 18.140625 8.90625 
Q 21.296875 6.109375 26.703125 6.109375 
Q 34.1875 6.109375 38.703125 11.40625 
Q 43.21875 16.703125 43.21875 25.484375 
L 43.21875 27.484375 
z
M 52.203125 31.203125 
L 52.203125 0 
L 43.21875 0 
L 43.21875 8.296875 
Q 40.140625 3.328125 35.546875 0.953125 
Q 30.953125 -1.421875 24.3125 -1.421875 
Q 15.921875 -1.421875 10.953125 3.296875 
Q 6 8.015625 6 15.921875 
Q 6 25.140625 12.171875 29.828125 
Q 18.359375 34.515625 30.609375 34.515625 
L 43.21875 34.515625 
L 43.21875 35.40625 
Q 43.21875 41.609375 39.140625 45 
Q 35.0625 48.390625 27.6875 48.390625 
Q 23 48.390625 18.546875 47.265625 
Q 14.109375 46.140625 10.015625 43.890625 
L 10.015625 52.203125 
Q 14.9375 54.109375 19.578125 55.046875 
Q 24.21875 56 28.609375 56 
Q 40.484375 56 46.34375 49.84375 
Q 52.203125 43.703125 52.203125 31.203125 
" id="DejaVuSans-61"/>
                    </defs>
                    <g transform="translate(329.515625 371.104562)scale(0.1 -0.1)">
                        <use xlink:href="#DejaVuSans-54"/>
                        <use x="61.037109" xlink:href="#DejaVuSans-69"/>
                        <use x="88.820312" xlink:href="#DejaVuSans-6d"/>
                        <use x="186.232422" xlink:href="#DejaVuSans-65"/>
                        <use x="247.755859" xlink:href="#DejaVuSans-20"/>
                        <use x="279.542969" xlink:href="#DejaVuSans-69"/>
                        <use x="307.326172" xlink:href="#DejaVuSans-6e"/>
                        <use x="370.705078" xlink:href="#DejaVuSans-20"/>
                        <use x="402.492188" xlink:href="#DejaVuSans-73"/>
                        <use x="454.591797" xlink:href="#DejaVuSans-65"/>
                        <use x="516.115234" xlink:href="#DejaVuSans-63"/>
                        <use x="571.095703" xlink:href="#DejaVuSans-20"/>
                        <use x="602.882812" xlink:href="#DejaVuSans-66"/>
                        <use x="638.087891" xlink:href="#DejaVuSans-72"/>
                        <use x="679.169922" xlink:href="#DejaVuSans-6f"/>
                        <use x="740.351562" xlink:href="#DejaVuSans-6d"/>
                        <use x="837.763672" xlink:href="#DejaVuSans-20"/>
                        <use x="869.550781" xlink:href="#DejaVuSans-70"/>
                        <use x="933.027344" xlink:href="#DejaVuSans-6f"/>
                        <use x="994.208984" xlink:href="#DejaVuSans-73"/>
                        <use x="1046.308594" xlink:href="#DejaVuSans-74"/>
                        <use x="1085.517578" xlink:href="#DejaVuSans-20"/>
                        <use x="1117.304688" xlink:href="#DejaVuSans-63"/>
                        <use x="1172.285156" xlink:href="#DejaVuSans-72"/>
                        <use x="1213.367188" xlink:href="#DejaVuSans-65"/>
                        <use x="1274.890625" xlink:href="#DejaVuSans-61"/>
                        <use x="1336.169922" xlink:href="#DejaVuSans-74"/>
                        <use x="1375.378906" xlink:href="#DejaVuSans-69"/>
                        <use x="1403.162109" xlink:href="#DejaVuSans-6f"/>
                        <use x="1464.34375" xlink:href="#DejaVuSans-6e"/>
                    </g>
                </g>
            </g>
            <g id="matplotlib.axis_2">
                <g id="ytick_1">
                    <g id="line2d_10">
                        <defs>
                            <path d="M 0 0
L -3.5 0 
" id="mdf5793dd49" style="stroke:#000000;stroke-width:0.8;"/>
                        </defs>
                        <g>
                            <use style="stroke:#000000;stroke-width:0.8;" x="99" xlink:href="#mdf5793dd49" y="342.828"/>
                        </g>
                    </g>
                    <g id="text_11">
                        <!-- 0 -->
                        <g transform="translate(85.6375 346.627219)scale(0.1 -0.1)">
                            <use xlink:href="#DejaVuSans-30"/>
                        </g>
                    </g>
                </g>
                <g id="ytick_2">
                    <g id="line2d_11">
                        <g>
                            <use style="stroke:#000000;stroke-width:0.8;" x="99" xlink:href="#mdf5793dd49"
                                 y="290.116673"/>
                        </g>
                    </g>
                    <g id="text_12">
                        <!-- 1000 -->
                        <g transform="translate(66.55 293.915892)scale(0.1 -0.1)">
                            <use xlink:href="#DejaVuSans-31"/>
                            <use x="63.623047" xlink:href="#DejaVuSans-30"/>
                            <use x="127.246094" xlink:href="#DejaVuSans-30"/>
                            <use x="190.869141" xlink:href="#DejaVuSans-30"/>
                        </g>
                    </g>
                </g>
                <g id="ytick_3">
                    <g id="line2d_12">
                        <g>
                            <use style="stroke:#000000;stroke-width:0.8;" x="99" xlink:href="#mdf5793dd49"
                                 y="237.405347"/>
                        </g>
                    </g>
                    <g id="text_13">
                        <!-- 2000 -->
                        <g transform="translate(66.55 241.204565)scale(0.1 -0.1)">
                            <use xlink:href="#DejaVuSans-32"/>
                            <use x="63.623047" xlink:href="#DejaVuSans-30"/>
                            <use x="127.246094" xlink:href="#DejaVuSans-30"/>
                            <use x="190.869141" xlink:href="#DejaVuSans-30"/>
                        </g>
                    </g>
                </g>
                <g id="ytick_4">
                    <g id="line2d_13">
                        <g>
                            <use style="stroke:#000000;stroke-width:0.8;" x="99" xlink:href="#mdf5793dd49"
                                 y="184.69402"/>
                        </g>
                    </g>
                    <g id="text_14">
                        <!-- 3000 -->
                        <g transform="translate(66.55 188.493239)scale(0.1 -0.1)">
                            <use xlink:href="#DejaVuSans-33"/>
                            <use x="63.623047" xlink:href="#DejaVuSans-30"/>
                            <use x="127.246094" xlink:href="#DejaVuSans-30"/>
                            <use x="190.869141" xlink:href="#DejaVuSans-30"/>
                        </g>
                    </g>
                </g>
                <g id="ytick_5">
                    <g id="line2d_14">
                        <g>
                            <use style="stroke:#000000;stroke-width:0.8;" x="99" xlink:href="#mdf5793dd49"
                                 y="131.982693"/>
                        </g>
                    </g>
                    <g id="text_15">
                        <!-- 4000 -->
                        <g transform="translate(66.55 135.781912)scale(0.1 -0.1)">
                            <use xlink:href="#DejaVuSans-34"/>
                            <use x="63.623047" xlink:href="#DejaVuSans-30"/>
                            <use x="127.246094" xlink:href="#DejaVuSans-30"/>
                            <use x="190.869141" xlink:href="#DejaVuSans-30"/>
                        </g>
                    </g>
                </g>
                <g id="ytick_6">
                    <g id="line2d_15">
                        <g>
                            <use style="stroke:#000000;stroke-width:0.8;" x="99" xlink:href="#mdf5793dd49"
                                 y="79.271366"/>
                        </g>
                    </g>
                    <g id="text_16">
                        <!-- 5000 -->
                        <g transform="translate(66.55 83.070585)scale(0.1 -0.1)">
                            <use xlink:href="#DejaVuSans-35"/>
                            <use x="63.623047" xlink:href="#DejaVuSans-30"/>
                            <use x="127.246094" xlink:href="#DejaVuSans-30"/>
                            <use x="190.869141" xlink:href="#DejaVuSans-30"/>
                        </g>
                    </g>
                </g>
                <g id="text_17">
                    <!-- No of Upvotes -->
                    <defs>
                        <path d="M 9.8125 72.90625
L 23.09375 72.90625 
L 55.421875 11.921875 
L 55.421875 72.90625 
L 64.984375 72.90625 
L 64.984375 0 
L 51.703125 0 
L 19.390625 60.984375 
L 19.390625 0 
L 9.8125 0 
z
" id="DejaVuSans-4e"/>
                        <path d="M 8.6875 72.90625
L 18.609375 72.90625 
L 18.609375 28.609375 
Q 18.609375 16.890625 22.84375 11.734375 
Q 27.09375 6.59375 36.625 6.59375 
Q 46.09375 6.59375 50.34375 11.734375 
Q 54.59375 16.890625 54.59375 28.609375 
L 54.59375 72.90625 
L 64.5 72.90625 
L 64.5 27.390625 
Q 64.5 13.140625 57.4375 5.859375 
Q 50.390625 -1.421875 36.625 -1.421875 
Q 22.796875 -1.421875 15.734375 5.859375 
Q 8.6875 13.140625 8.6875 27.390625 
z
" id="DejaVuSans-55"/>
                        <path d="M 2.984375 54.6875
L 12.5 54.6875 
L 29.59375 8.796875 
L 46.6875 54.6875 
L 56.203125 54.6875 
L 35.6875 0 
L 23.484375 0 
z
" id="DejaVuSans-76"/>
                    </defs>
                    <g transform="translate(60.470312 229.817406)rotate(-90)scale(0.1 -0.1)">
                        <use xlink:href="#DejaVuSans-4e"/>
                        <use x="74.804688" xlink:href="#DejaVuSans-6f"/>
                        <use x="135.986328" xlink:href="#DejaVuSans-20"/>
                        <use x="167.773438" xlink:href="#DejaVuSans-6f"/>
                        <use x="228.955078" xlink:href="#DejaVuSans-66"/>
                        <use x="264.160156" xlink:href="#DejaVuSans-20"/>
                        <use x="295.947266" xlink:href="#DejaVuSans-55"/>
                        <use x="369.140625" xlink:href="#DejaVuSans-70"/>
                        <use x="432.617188" xlink:href="#DejaVuSans-76"/>
                        <use x="491.796875" xlink:href="#DejaVuSans-6f"/>
                        <use x="552.978516" xlink:href="#DejaVuSans-74"/>
                        <use x="592.1875" xlink:href="#DejaVuSans-65"/>
                        <use x="653.710938" xlink:href="#DejaVuSans-73"/>
                    </g>
                </g>
            </g>
            <g id="line2d_16">
                <path clip-path="url(#p727f11dbcb)" d="M 257.497184 234.34809
L 257.721558 233.820976 
L 258.179798 232.239636 
L 258.419103 231.97608 
L 258.600689 231.238121 
L 258.793733 229.656781 
L 258.959405 230.500163 
L 259.30388 229.235091 
L 259.475447 227.653751 
L 259.64718 227.284772 
L 259.822096 227.653751 
L 260.172993 226.915792 
L 260.3592 226.915792 
L 262.01005 222.171773 
L 270.042386 196.712202 
L 270.220665 196.395934 
L 270.841062 194.23477 
L 271.025111 193.707657 
L 271.386414 191.968183 
L 271.586377 191.810049 
L 271.992987 190.439554 
L 272.343994 189.227194 
L 272.51736 188.910926 
L 272.852274 187.540431 
L 273.022429 187.540431 
L 274.020666 183.587082 
L 274.685677 179.633732 
L 274.853037 179.475598 
L 275.190124 177.894259 
L 275.361137 177.630702 
L 275.527888 176.629187 
L 275.693712 176.36563 
L 276.032376 174.889713 
L 277.930432 168.089952 
L 278.126008 167.510127 
L 278.303622 166.139633 
L 278.66671 165.665231 
L 279.895341 160.815789 
L 280.415479 159.498006 
L 280.936781 157.547687 
L 281.112914 157.073285 
L 281.670928 154.437718 
L 283.290143 148.797606 
L 284.124881 145.898483 
L 284.331237 145.002391 
L 284.575026 144.633411 
L 284.891217 143.737319 
L 285.098818 142.683092 
L 285.576224 141.312598 
L 288.93044 130.085085 
L 289.13627 129.87424 
L 289.331113 128.503745 
L 289.530605 128.451034 
L 289.950804 126.395292 
L 290.136167 126.184447 
L 290.732264 123.179901 
L 290.934275 122.863634 
L 291.351596 121.229582 
L 291.754317 119.753665 
L 291.960507 119.331975 
L 292.163044 118.014191 
L 292.779262 116.590986 
L 293.518903 112.321368 
L 293.78302 111.741544 
L 294.310175 108.947843 
L 294.667285 108.104462 
L 296.012475 102.938752 
L 297.473533 97.562197 
L 297.672333 96.613393 
L 297.859593 96.349836 
L 298.075027 95.770012 
L 298.501647 93.081734 
L 298.699852 92.027507 
L 298.931366 91.553105 
L 300.186358 86.018416 
L 300.478678 85.491303 
L 300.687359 83.593695 
L 300.902073 83.224716 
L 301.956507 79.534923 
L 302.146728 79.060521 
L 302.350427 78.902387 
L 303.023742 76.688511 
L 303.225158 75.84513 
L 303.84954 75.212594 
L 312.016703 68.939946 
L 312.238088 69.150792 
L 312.460815 68.992658 
L 312.851538 68.360122 
L 313.070999 68.412833 
L 313.276926 68.30741 
L 313.720166 68.360122 
L 313.970099 68.043854 
L 314.169619 67.991142 
L 314.387779 68.201988 
L 315.020202 67.88572 
L 315.593784 67.411318 
L 315.786357 67.569452 
L 315.972274 67.305895 
L 316.351027 67.569452 
L 316.534855 67.305895 
L 316.716344 67.622163 
L 316.898538 67.569452 
L 317.086406 67.253184 
L 317.447115 67.411318 
L 317.6327 66.884205 
L 317.817247 66.778782 
L 317.999483 67.200472 
L 318.18641 67.253184 
L 318.743995 66.884205 
L 318.922467 66.936916 
L 319.615308 66.778782 
L 319.80009 66.726071 
L 319.983115 66.884205 
L 320.531636 66.409803 
L 320.715048 66.515225 
L 320.895139 66.831493 
L 321.629577 66.251669 
L 321.989455 66.515225 
L 322.173864 66.146246 
L 322.356889 66.251669 
L 322.724253 65.935401 
L 322.910599 65.935401 
L 323.087964 65.777267 
L 323.271875 65.935401 
L 323.660813 65.935401 
L 324.028219 65.671844 
L 324.576519 65.619133 
L 324.763058 65.935401 
L 324.944962 65.408287 
L 325.129233 65.829978 
L 325.310403 65.619133 
L 325.865304 65.619133 
L 326.049754 65.302865 
L 326.708954 65.197442 
L 327.387776 64.881174 
L 327.586576 65.039308 
L 328.001018 65.039308 
L 328.190243 64.459483 
L 328.379799 64.30135 
L 328.564 64.512195 
L 328.746416 64.512195 
L 328.93351 64.354061 
L 329.112314 64.354061 
L 329.301178 64.72304 
L 329.661458 64.459483 
L 330.02629 64.670329 
L 330.21276 64.143216 
L 330.39454 64.090504 
L 330.573468 64.354061 
L 330.753781 64.037793 
L 330.947461 64.248638 
L 331.688196 64.30135 
L 331.875884 63.879659 
L 332.245643 64.143216 
L 332.431809 63.879659 
L 332.617698 64.090504 
L 332.801941 63.826948 
L 332.994902 63.985082 
L 333.178148 63.826948 
L 333.366182 63.826948 
L 333.926715 63.616102 
L 334.513222 63.826948 
L 335.218226 63.299834 
L 335.514033 63.774236 
L 335.983288 63.826948 
L 336.429946 63.668814 
L 336.835822 63.721525 
L 337.144028 63.616102 
L 337.355767 63.352546 
L 337.554983 63.405257 
L 337.754683 63.668814 
L 337.971432 63.51068 
L 338.207291 63.563391 
L 338.62374 63.1417 
L 338.830511 63.088989 
L 339.033864 63.51068 
L 339.224583 63.036278 
L 339.418748 63.1417 
L 339.609411 62.878144 
L 339.796242 62.878144 
L 339.987943 63.352546 
L 340.632377 63.1417 
L 340.848628 63.299834 
L 341.068684 63.036278 
L 341.295092 63.299834 
L 341.508713 63.088989 
L 341.723206 63.088989 
L 341.940218 62.772721 
L 342.14876 63.036278 
L 342.541601 62.35103 
L 342.747307 62.772721 
L 342.965661 62.298319 
L 343.60867 62.667298 
L 343.801866 62.509164 
L 343.994882 62.772721 
L 344.214841 62.561876 
L 345.180724 62.509164 
L 345.374252 62.772721 
L 345.564196 62.772721 
L 345.952083 62.140185 
L 346.585806 62.403742 
L 346.778628 62.192896 
L 346.973166 62.509164 
L 347.356348 62.087474 
L 347.550969 62.192896 
L 347.747888 61.823917 
L 347.937859 62.245608 
L 348.134653 61.876628 
L 348.528061 62.245608 
L 348.716663 62.298319 
L 348.909748 61.92934 
L 349.099457 62.192896 
L 349.292916 62.034762 
L 349.484673 61.665783 
L 349.668168 62.034762 
L 349.85111 61.454938 
L 350.035837 61.771206 
L 350.21835 61.613072 
L 350.403672 62.087474 
L 350.593533 61.876628 
L 350.785746 61.454938 
L 351.335845 61.665783 
L 351.517763 61.876628 
L 351.702421 61.402227 
L 351.883439 61.665783 
L 352.062907 61.402227 
L 352.24387 61.665783 
L 352.424515 61.191381 
L 352.604371 61.613072 
L 352.804431 61.613072 
L 353.164558 61.085959 
L 353.347237 61.560361 
L 353.712124 61.296804 
L 354.082713 61.13867 
L 354.265668 61.191381 
L 354.447365 61.402227 
L 354.811076 61.13867 
L 355.168532 61.13867 
L 355.360759 60.927825 
L 355.939918 61.402227 
L 356.123081 61.13867 
L 356.490238 61.244093 
L 356.672211 60.927825 
L 356.862834 61.085959 
L 357.044696 61.033247 
L 357.224995 61.296804 
L 357.771537 60.875113 
L 357.957634 61.085959 
L 358.147426 60.769691 
L 358.333592 61.13867 
L 358.703627 61.033247 
L 359.072403 61.13867 
L 359.251359 61.085959 
L 359.432032 61.244093 
L 359.617727 60.980536 
L 359.809027 61.349515 
L 359.991001 60.716979 
L 360.348678 61.13867 
L 360.535785 61.085959 
L 360.913791 60.716979 
L 361.275994 60.716979 
L 361.640688 60.664268 
L 361.827587 60.558845 
L 362.006779 60.769691 
L 362.186012 60.664268 
L 362.551771 60.980536 
L 362.923882 60.769691 
L 363.110948 60.453423 
L 363.667426 60.822402 
L 364.577029 60.769691 
L 364.759652 60.611557 
L 364.937834 60.822402 
L 365.114327 60.664268 
L 365.299843 61.085959 
L 365.478799 60.611557 
L 365.663872 60.875113 
L 366.838782 60.664268 
L 367.274604 60.611557 
L 367.470734 60.927825 
L 367.872431 60.506134 
L 368.354861 60.295289 
L 368.583413 60.822402 
L 368.796592 60.506134 
L 369.020716 60.611557 
L 369.242447 60.348 
L 369.434813 60.611557 
L 370.015867 60.611557 
L 370.241445 60.242577 
L 370.47235 60.506134 
L 370.736094 60.611557 
L 371.185727 60.453423 
L 371.402406 60.611557 
L 371.605552 60.506134 
L 371.798319 60.242577 
L 371.9871 60.295289 
L 372.212 60.137155 
L 372.42331 60.137155 
L 372.625141 60.506134 
L 372.819001 60.453423 
L 373.205532 59.873598 
L 373.395185 59.873598 
L 373.583607 60.137155 
L 373.776305 60.031732 
L 373.966802 60.242577 
L 374.156926 59.873598 
L 374.354108 59.820887 
L 374.567715 60.137155 
L 374.795714 59.820887 
L 375.013044 60.189866 
L 375.21143 59.610041 
L 375.417329 59.820887 
L 375.630314 59.715464 
L 375.83173 60.031732 
L 376.033367 60.084443 
L 376.246905 59.55733 
L 376.718375 59.55733 
L 376.938722 59.820887 
L 377.154737 59.715464 
L 377.361619 59.820887 
L 377.776213 59.610041 
L 377.97428 59.768175 
L 378.163768 59.768175 
L 378.352397 60.031732 
L 378.545538 59.715464 
L 378.731206 59.979021 
L 378.916279 59.55733 
L 379.314142 59.820887 
L 379.508888 59.504619 
L 379.695788 59.610041 
L 379.887282 59.926309 
L 380.078278 59.55733 
L 380.260085 59.768175 
L 380.625775 59.451907 
L 380.816798 59.662753 
L 381.366149 59.610041 
L 381.550364 59.662753 
L 381.736309 59.504619 
L 382.294738 59.451907 
L 382.473044 59.715464 
L 382.842401 59.293773 
L 383.023655 59.504619 
L 383.208825 59.293773 
L 383.391351 59.346485 
L 383.57785 59.030217 
L 383.759574 59.451907 
L 384.118829 59.082928 
L 384.299958 59.293773 
L 384.485017 59.030217 
L 384.676774 59.293773 
L 384.864905 58.872083 
L 385.061865 59.030217 
L 385.250494 59.030217 
L 385.429894 59.346485 
L 385.61862 59.241062 
L 385.80069 58.872083 
L 385.989499 59.030217 
L 386.172953 58.819372 
L 386.539805 59.030217 
L 386.723439 58.977506 
L 386.90735 58.76666 
L 387.092201 58.872083 
L 387.277648 58.661238 
L 387.468934 59.188351 
L 387.655944 59.030217 
L 387.840118 59.293773 
L 388.210582 58.555815 
L 388.586415 59.030217 
L 388.93954 59.135639 
L 389.12287 58.555815 
L 389.48986 59.030217 
L 389.671404 58.503104 
L 390.057506 58.76666 
L 390.239368 58.555815 
L 390.416235 58.76666 
L 390.599066 58.503104 
L 390.784056 58.503104 
L 390.972879 58.977506 
L 391.330211 58.555815 
L 391.50943 58.661238 
L 391.696371 58.397681 
L 391.885028 58.555815 
L 392.067666 58.977506 
L 392.247148 58.608526 
L 392.427557 58.503104 
L 392.604909 58.924794 
L 392.793455 58.977506 
L 393.162452 58.397681 
L 393.347996 58.872083 
L 393.533124 58.713949 
L 393.712897 58.819372 
L 393.891867 58.397681 
L 394.26265 58.555815 
L 394.445799 58.713949 
L 394.630775 58.503104 
L 394.813855 58.661238 
L 394.995953 58.503104 
L 395.190934 58.76666 
L 395.557842 58.34497 
L 395.924459 58.608526 
L 396.10657 58.34497 
L 396.295532 58.397681 
L 396.480121 58.292258 
L 396.667975 58.661238 
L 396.85017 58.239547 
L 397.03783 58.503104 
L 397.221699 58.503104 
L 397.403174 58.134124 
L 397.587043 58.397681 
L 397.949592 58.397681 
L 398.142221 58.503104 
L 398.330601 58.450392 
L 398.515577 58.186836 
L 399.067654 58.292258 
L 399.253834 57.97599 
L 399.436126 58.397681 
L 399.620133 58.34497 
L 399.809454 58.608526 
L 400.175504 57.97599 
L 400.552182 58.503104 
L 400.92075 58.239547 
L 401.112576 58.028702 
L 401.305537 58.397681 
L 401.495162 58.450392 
L 401.680568 58.081413 
L 401.8669 58.397681 
L 402.233614 57.97599 
L 402.598999 58.503104 
L 402.789677 58.134124 
L 403.345172 58.397681 
L 403.533622 57.97599 
L 404.275754 58.081413 
L 404.642772 57.923279 
L 404.829326 58.292258 
L 405.193549 57.765145 
L 405.375619 57.712434 
L 405.744049 58.292258 
L 406.107303 58.239547 
L 406.287395 58.34497 
L 406.476785 58.028702 
L 406.66565 57.97599 
L 406.847498 58.292258 
L 407.22001 58.292258 
L 407.397445 57.97599 
L 407.755275 58.186836 
L 408.303713 57.712434 
L 408.483596 58.134124 
L 408.671368 57.97599 
L 409.034442 58.028702 
L 409.210852 57.712434 
L 409.389283 58.134124 
L 409.571062 58.239547 
L 409.75089 57.765145 
L 410.113315 58.081413 
L 410.494047 57.607011 
L 410.865563 57.923279 
L 411.051203 57.97599 
L 411.235501 57.607011 
L 411.420643 57.607011 
L 411.600347 57.97599 
L 411.7825 57.5543 
L 412.150404 57.765145 
L 412.514585 57.97599 
L 412.694981 57.448877 
L 412.877784 57.765145 
L 413.239434 57.396166 
L 413.418777 57.501588 
L 413.611461 57.817856 
L 413.97985 57.712434 
L 414.161505 57.659722 
L 414.369438 57.343454 
L 414.550886 57.765145 
L 414.726964 57.238032 
L 415.453196 57.870568 
L 415.639874 57.501588 
L 415.817059 57.765145 
L 416.00263 57.132609 
L 416.188298 57.132609 
L 416.374963 57.501588 
L 416.569971 57.343454 
L 416.939273 57.607011 
L 417.307579 57.18532 
L 417.673559 57.712434 
L 417.852834 57.448877 
L 418.03972 57.607011 
L 418.418888 57.238032 
L 418.601857 57.027186 
L 418.799606 57.343454 
L 419.011304 57.290743 
L 419.194163 56.974475 
L 419.379402 57.343454 
L 419.560821 57.132609 
L 419.742338 57.343454 
L 420.111889 57.079898 
L 420.477067 57.18532 
L 420.65987 57.132609 
L 421.043439 57.448877 
L 421.224734 56.974475 
L 421.405752 57.343454 
L 421.588819 57.343454 
L 421.774528 56.974475 
L 422.13806 57.501588 
L 422.49993 57.501588 
L 422.679994 56.921764 
L 422.860984 56.974475 
L 423.047233 57.448877 
L 423.23185 57.079898 
L 423.420202 57.607011 
L 423.800616 57.132609 
L 423.990699 57.343454 
L 424.167081 57.343454 
L 424.533352 56.974475 
L 424.71217 57.396166 
L 424.893825 57.132609 
L 425.075909 57.18532 
L 425.26083 56.921764 
L 425.816339 57.448877 
L 425.992583 57.18532 
L 426.168786 57.396166 
L 426.352323 57.343454 
L 426.536552 57.079898 
L 426.716906 57.027186 
L 426.898602 57.238032 
L 427.081364 57.079898 
L 427.26562 57.079898 
L 427.459965 56.921764 
L 427.832782 57.18532 
L 428.202512 57.132609 
L 428.380721 57.396166 
L 428.564134 57.448877 
L 428.745858 56.921764 
L 428.927665 57.448877 
L 429.110552 57.343454 
L 429.292995 57.079898 
L 429.475245 57.18532 
L 429.65398 57.079898 
L 429.831234 57.448877 
L 430.199263 56.76363 
L 430.377486 56.921764 
L 430.561438 57.238032 
L 430.947069 57.132609 
L 431.127686 56.76363 
L 431.310669 56.921764 
L 431.483606 56.921764 
L 431.654965 57.290743 
L 431.835195 56.921764 
L 432.014719 57.027186 
L 432.193772 56.974475 
L 432.377392 57.079898 
L 432.561067 56.658207 
L 432.738446 57.079898 
L 432.924017 56.869052 
L 433.289832 56.869052 
L 433.475776 56.710918 
L 433.684568 56.974475 
L 433.869765 56.76363 
L 434.232591 56.869052 
L 434.421442 56.76363 
L 434.601519 57.027186 
L 434.972094 56.816341 
L 435.150331 57.079898 
L 435.335058 57.079898 
L 435.520864 56.816341 
L 435.705494 57.027186 
L 435.884271 56.658207 
L 436.059657 56.869052 
L 436.630831 56.658207 
L 436.990667 56.974475 
L 437.170025 56.816341 
L 437.357381 56.921764 
L 437.535909 56.500073 
L 437.717924 56.921764 
L 437.90373 56.869052 
L 438.096774 56.39465 
L 438.462588 56.869052 
L 438.648104 56.658207 
L 438.830561 56.816341 
L 439.19127 56.289228 
L 439.582823 56.39465 
L 439.768118 56.869052 
L 439.949759 56.710918 
L 440.317483 56.869052 
L 440.502542 56.500073 
L 440.683948 56.869052 
L 440.865423 56.341939 
L 441.421555 56.869052 
L 441.600456 56.658207 
L 441.78492 56.236517 
L 441.972622 56.658207 
L 442.151426 56.710918 
L 442.709662 56.341939 
L 442.894652 56.76363 
L 443.077012 56.39465 
L 443.262321 56.552784 
L 443.632176 56.500073 
L 444.002682 56.76363 
L 444.382528 56.447362 
L 444.567947 56.816341 
L 445.111113 56.500073 
L 445.292145 56.869052 
L 445.650487 56.341939 
L 445.831463 56.341939 
L 446.204612 56.658207 
L 446.384911 56.341939 
L 446.564103 56.710918 
L 447.115184 56.605496 
L 447.300215 56.447362 
L 447.482922 56.816341 
L 447.669434 56.341939 
L 447.851905 56.76363 
L 448.033864 56.500073 
L 448.221387 56.605496 
L 448.406653 56.447362 
L 448.590204 56.605496 
L 448.768247 56.39465 
L 448.949279 56.39465 
L 449.133882 56.605496 
L 449.509065 56.552784 
L 449.693141 56.658207 
L 449.875059 56.500073 
L 450.289377 56.869052 
L 450.835172 56.341939 
L 451.014806 56.710918 
L 451.379417 56.341939 
L 451.557529 56.869052 
L 451.742713 56.183805 
L 451.927038 56.710918 
L 452.29194 56.39465 
L 452.473442 56.710918 
L 452.844045 56.39465 
L 453.209458 56.500073 
L 453.388317 56.552784 
L 453.568381 56.447362 
L 453.751572 56.552784 
L 453.930764 56.500073 
L 454.297228 56.869052 
L 454.485553 56.39465 
L 454.667015 56.869052 
L 454.8517 56.816341 
L 455.035292 56.605496 
L 455.221209 56.76363 
L 455.399072 56.447362 
L 455.766437 56.658207 
L 455.951192 56.39465 
L 456.324728 56.552784 
L 456.511406 56.289228 
L 457.835921 56.605496 
L 458.202954 56.39465 
L 458.384802 56.605496 
L 458.562721 56.447362 
L 458.936479 56.658207 
L 459.124001 56.341939 
L 459.307399 56.869052 
L 459.493898 56.605496 
L 459.676051 56.76363 
L 460.041201 56.289228 
L 460.221361 56.710918 
L 460.40768 56.289228 
L 460.589902 56.710918 
L 460.774657 56.236517 
L 461.143142 56.341939 
L 461.516387 56.710918 
L 461.700492 56.39465 
L 461.881289 56.447362 
L 462.242689 56.183805 
L 462.431318 56.658207 
L 462.614149 56.289228 
L 462.802668 56.605496 
L 463.17709 56.289228 
L 463.355866 56.76363 
L 463.7211 56.500073 
L 463.906256 56.39465 
L 464.268901 56.710918 
L 464.453241 56.341939 
L 464.631809 56.658207 
L 464.816924 56.39465 
L 464.999312 56.500073 
L 465.180026 56.341939 
L 465.734885 56.39465 
L 465.916789 55.97296 
L 466.291294 56.39465 
L 466.649968 56.078383 
L 466.834003 56.39465 
L 467.206128 56.131094 
L 467.564234 56.131094 
L 467.950612 55.920249 
L 468.134523 56.341939 
L 468.315071 56.025671 
L 468.498054 56.447362 
L 469.034481 56.236517 
L 469.214447 56.605496 
L 469.399285 56.236517 
L 469.586157 56.131094 
L 469.772406 56.341939 
L 469.951072 56.236517 
L 470.130402 55.97296 
L 470.681746 56.447362 
L 470.868134 56.289228 
L 471.054535 56.341939 
L 471.606778 55.97296 
L 471.785984 56.341939 
L 471.976841 56.131094 
L 472.16399 56.39465 
L 472.521225 56.289228 
L 472.699489 55.920249 
L 473.072693 56.341939 
L 473.260299 56.025671 
L 473.448956 56.289228 
L 473.818161 56.39465 
L 473.999317 56.131094 
L 474.180792 56.500073 
L 474.559352 55.920249 
L 474.737589 56.289228 
L 474.920669 56.39465 
L 475.280754 56.183805 
L 475.46133 56.447362 
L 475.818855 56.025671 
L 476.000579 56.39465 
L 476.187396 56.236517 
L 476.373839 56.236517 
L 476.558261 55.97296 
L 476.920007 56.341939 
L 477.105329 55.97296 
L 477.285116 56.236517 
L 477.468127 56.078383 
L 477.651539 56.078383 
L 477.837692 56.39465 
L 478.022917 56.236517 
L 478.207934 56.341939 
L 478.385479 55.97296 
L 478.570372 55.97296 
L 478.93115 56.289228 
L 479.108888 56.131094 
L 479.472143 56.39465 
L 479.651141 56.131094 
L 479.834567 56.39465 
L 480.025051 56.131094 
L 480.394754 56.39465 
L 480.574956 56.078383 
L 480.757136 56.183805 
L 480.938584 56.605496 
L 481.117388 56.131094 
L 481.305796 56.078383 
L 481.668469 56.39465 
L 481.864114 56.078383 
L 482.051415 56.131094 
L 482.233651 56.552784 
L 482.414642 56.289228 
L 482.775392 56.236517 
L 482.956742 56.447362 
L 483.147087 56.236517 
L 483.336962 56.447362 
L 483.730121 55.97296 
L 483.916232 56.447362 
L 484.103048 56.552784 
L 484.286558 56.078383 
L 484.468448 56.341939 
L 484.834138 56.236517 
L 485.021176 56.183805 
L 485.390602 56.447362 
L 485.56722 56.025671 
L 485.751476 56.236517 
L 485.92916 55.920249 
L 486.28865 56.447362 
L 486.469834 56.078383 
L 486.65023 56.025671 
L 486.83039 56.341939 
L 487.010495 56.078383 
L 487.191472 56.078383 
L 487.378994 55.814826 
L 487.742761 56.289228 
L 487.927391 55.867537 
L 488.110665 56.341939 
L 489.218681 56.236517 
L 489.400017 55.920249 
L 489.580358 56.131094 
L 489.763272 55.920249 
L 489.942989 56.289228 
L 490.123883 56.341939 
L 490.307503 56.025671 
L 490.493821 56.341939 
L 490.679088 55.920249 
L 490.861241 55.920249 
L 491.049635 56.289228 
L 491.238237 55.814826 
L 491.424583 56.131094 
L 491.608784 55.97296 
L 491.79311 56.236517 
L 491.973367 55.920249 
L 492.154413 56.078383 
L 492.329896 55.814826 
L 492.687574 56.236517 
L 492.87803 55.97296 
L 493.236358 56.236517 
L 493.421873 55.709403 
L 493.604704 56.131094 
L 493.964901 55.709403 
L 494.150043 55.97296 
L 494.337399 56.025671 
L 494.518943 56.341939 
L 494.705123 56.131094 
L 494.890224 56.341939 
L 495.258654 56.078383 
L 495.796976 55.867537 
L 495.97751 56.078383 
L 496.152868 55.97296 
L 496.332517 55.656692 
L 496.514102 55.867537 
L 496.691011 55.709403 
L 496.872292 56.183805 
L 497.058181 56.025671 
L 497.764085 56.131094 
L 497.944038 55.762115 
L 498.123423 55.867537 
L 498.302366 55.603981 
L 498.848271 55.814826 
L 499.031324 55.867537 
L 499.212674 55.709403 
L 499.403587 55.867537 
L 499.588743 55.656692 
L 499.774619 56.183805 
L 499.956038 55.709403 
L 500.13714 55.867537 
L 500.324178 56.289228 
L 500.503549 55.867537 
L 500.688608 55.920249 
L 500.874871 55.814826 
L 501.415283 56.236517 
L 501.96368 55.814826 
L 502.14914 56.289228 
L 502.517791 55.814826 
L 502.700678 56.078383 
L 503.249282 55.814826 
L 503.437579 56.078383 
L 503.624285 55.920249 
L 503.807614 56.025671 
L 503.990708 55.762115 
L 504.176736 55.814826 
L 504.359387 56.236517 
L 504.548169 56.025671 
L 504.7319 55.551269 
L 504.918163 56.078383 
L 505.09842 55.867537 
L 505.465508 55.814826 
L 505.647813 55.603981 
L 506.21186 55.97296 
L 506.394678 55.814826 
L 506.57708 56.131094 
L 506.760866 55.867537 
L 506.941594 55.920249 
L 507.116911 56.236517 
L 507.30518 56.341939 
L 507.513806 55.867537 
L 507.697951 55.867537 
L 507.872895 56.236517 
L 508.230226 55.814826 
L 508.406747 56.025671 
L 508.591391 55.603981 
L 508.781114 55.97296 
L 509.145628 56.078383 
L 509.334561 56.131094 
L 509.518389 55.709403 
L 509.885075 56.236517 
L 510.06828 56.025671 
L 510.248676 56.236517 
L 510.430953 56.183805 
L 510.613618 55.551269 
L 510.973607 55.97296 
L 511.161434 55.814826 
L 511.34879 56.131094 
L 511.530445 55.814826 
L 511.89994 56.131094 
L 512.277462 55.867537 
L 512.454841 56.078383 
L 512.640647 55.709403 
L 513.006974 56.289228 
L 513.194952 55.762115 
L 513.570703 55.97296 
L 514.130973 55.814826 
L 514.684642 56.289228 
L 515.046277 55.656692 
L 515.228347 56.131094 
L 515.596971 55.867537 
L 515.778086 56.289228 
L 515.959464 55.551269 
L 516.147125 55.920249 
L 516.336515 55.814826 
L 516.69869 56.025671 
L 517.421061 55.603981 
L 517.600765 56.289228 
L 517.78653 56.131094 
L 517.968724 55.814826 
L 518.150836 55.814826 
L 518.517605 56.025671 
L 518.697004 55.97296 
L 518.879144 55.603981 
L 519.248764 56.131094 
L 519.430903 56.131094 
L 519.608987 55.656692 
L 519.793465 55.97296 
L 519.97209 55.867537 
L 520.33807 56.183805 
L 520.526907 56.236517 
L 520.706182 56.025671 
L 520.889331 56.183805 
L 521.073781 56.078383 
L 521.254039 55.709403 
L 521.434946 56.341939 
L 521.799695 55.551269 
L 521.979966 56.131094 
L 522.346583 55.97296 
L 522.524018 55.97296 
L 522.710544 55.603981 
L 522.894177 56.078383 
L 523.07503 55.762115 
L 523.257307 55.97296 
L 523.437122 55.709403 
L 523.813232 56.183805 
L 523.994693 55.814826 
L 524.358252 55.920249 
L 524.541885 55.656692 
L 524.900601 55.603981 
L 525.083944 56.025671 
L 525.267841 55.709403 
L 525.451378 56.236517 
L 525.630279 55.814826 
L 525.80608 55.867537 
L 525.98404 55.762115 
L 526.163716 56.078383 
L 526.521657 55.656692 
L 526.701346 55.762115 
L 526.878255 56.131094 
L 527.056298 55.656692 
L 527.236182 55.656692 
L 527.419663 56.078383 
L 527.779001 55.762115 
L 527.955979 55.445847 
L 528.139972 55.656692 
L 528.325876 56.183805 
L 529.065102 55.867537 
L 529.252015 56.131094 
L 529.641092 55.709403 
L 530.036271 55.920249 
L 530.226464 55.814826 
L 530.418678 56.183805 
L 530.609175 55.814826 
L 530.796407 55.709403 
L 531.173029 55.814826 
L 531.361036 55.551269 
L 531.541888 55.656692 
L 531.715932 55.920249 
L 531.894113 55.709403 
L 532.078813 55.867537 
L 532.266279 55.603981 
L 532.448405 55.814826 
L 532.630516 55.498558 
L 532.8157 55.814826 
L 532.999016 55.709403 
L 533.175218 56.078383 
L 533.365702 55.97296 
L 533.554539 55.445847 
L 533.746669 55.762115 
L 533.929127 55.762115 
L 534.110117 55.445847 
L 534.294775 55.97296 
L 534.483349 56.078383 
L 534.664824 55.814826 
L 534.852789 55.97296 
L 535.21924 55.762115 
L 535.404535 55.551269 
L 535.584349 55.97296 
L 535.957083 55.814826 
L 536.145587 56.025671 
L 536.336985 55.603981 
L 536.530443 55.814826 
L 536.715959 55.603981 
L 537.089066 55.867537 
L 537.276021 55.603981 
L 537.465633 55.656692 
L 537.835655 56.025671 
L 538.020852 55.445847 
L 538.20461 55.920249 
L 538.393862 55.867537 
L 538.587626 55.603981 
L 538.770955 55.920249 
L 539.32616 55.867537 
L 539.508258 55.551269 
L 539.689705 55.920249 
L 539.878404 55.814826 
L 540.061788 56.025671 
L 540.243111 55.603981 
L 540.448153 55.814826 
L 540.633848 55.814826 
L 540.820125 55.445847 
L 540.999331 55.656692 
L 541.183421 55.603981 
L 541.360758 55.97296 
L 541.542939 55.603981 
L 541.721425 55.920249 
L 541.90409 55.445847 
L 542.081483 55.709403 
L 542.265407 55.445847 
L 542.452487 55.445847 
L 542.632343 55.814826 
L 542.811188 55.814826 
L 543.186537 55.393135 
L 543.36667 55.709403 
L 543.729495 55.814826 
L 543.910804 55.603981 
L 544.279553 55.814826 
L 544.645381 55.762115 
L 545.016911 55.340424 
L 545.20352 55.340424 
L 545.568352 55.920249 
L 546.285298 55.709403 
L 546.465168 55.445847 
L 546.645923 55.920249 
L 546.826568 55.498558 
L 547.007988 55.814826 
L 547.369941 55.445847 
L 547.554267 55.762115 
L 547.732767 55.709403 
L 547.921133 55.393135 
L 548.1148 55.709403 
L 548.296634 55.498558 
L 549.025537 55.97296 
L 549.204521 55.709403 
L 549.389705 55.97296 
L 549.57356 55.762115 
L 549.758398 55.97296 
L 550.13758 55.551269 
L 550.506979 55.920249 
L 550.87819 55.498558 
L 551.24965 55.762115 
L 551.433561 55.814826 
L 551.622758 55.603981 
L 551.812134 55.814826 
L 552.577183 55.814826 
L 552.767362 55.97296 
L 552.964073 55.656692 
L 553.150004 56.078383 
L 553.531179 55.709403 
L 553.903553 55.920249 
L 554.259736 55.551269 
L 554.438388 56.025671 
L 554.625495 55.814826 
L 554.806043 55.393135 
L 554.982979 55.340424 
L 555.15932 55.498558 
L 555.34705 56.078383 
L 555.541602 55.445847 
L 555.915345 55.551269 
L 556.096267 55.445847 
L 556.281672 55.709403 
L 556.466717 55.656692 
L 556.651472 55.920249 
L 556.83094 55.920249 
L 557.013855 55.551269 
L 557.22165 55.656692 
L 557.403775 56.078383 
L 557.584669 56.025671 
L 557.763086 55.393135 
L 557.948795 55.814826 
L 558.13027 55.656692 
L 558.502976 55.867537 
L 558.687067 55.445847 
L 559.054334 55.762115 
L 559.240334 55.656692 
L 559.614881 56.025671 
L 559.797629 55.498558 
L 559.986867 55.498558 
L 560.168121 55.97296 
L 560.350896 56.025671 
L 560.527735 55.709403 
L 560.708795 55.814826 
L 561.083369 55.498558 
L 561.267737 55.656692 
L 561.45346 55.498558 
L 561.633703 55.551269 
L 561.821364 55.445847 
L 562.004389 55.920249 
L 562.369249 55.603981 
L 562.55089 55.814826 
L 562.926363 55.445847 
L 563.108364 55.603981 
L 563.290545 55.603981 
L 563.479894 55.393135 
L 563.655017 55.445847 
L 563.834914 55.97296 
L 564.017649 55.814826 
L 564.196148 55.445847 
L 564.38154 55.762115 
L 564.562738 55.814826 
L 565.107965 55.603981 
L 565.655158 55.498558 
L 565.836384 55.340424 
L 566.01415 55.709403 
L 566.199943 55.551269 
L 566.38067 55.814826 
L 566.563972 55.445847 
L 566.736867 55.920249 
L 566.913388 55.814826 
L 567.096773 55.867537 
L 567.45993 55.445847 
L 567.644367 55.393135 
L 567.832636 55.656692 
L 568.025071 55.709403 
L 568.205924 55.498558 
L 568.391024 55.498558 
L 568.578477 55.814826 
L 568.761364 55.340424 
L 568.940459 55.762115 
L 569.123843 55.814826 
L 569.303021 55.603981 
L 569.485935 55.814826 
L 569.671963 55.656692 
L 569.864716 55.656692 
L 570.042635 55.445847 
L 570.597438 55.97296 
L 570.78276 55.551269 
L 571.324099 55.603981 
L 571.51122 55.393135 
L 571.691076 55.445847 
L 571.879014 55.814826 
L 572.0628 55.445847 
L 572.247291 55.814826 
L 572.430455 55.445847 
L 572.609383 55.814826 
L 572.792201 55.920249 
L 572.979861 55.709403 
L 573.159745 55.287713 
L 573.516399 55.656692 
L 573.701624 55.709403 
L 573.880317 55.287713 
L 574.056575 55.656692 
L 574.787388 55.603981 
L 574.981718 55.867537 
L 575.158834 55.235001 
L 575.344295 55.287713 
L 575.533713 55.814826 
L 575.712905 55.498558 
L 576.072713 55.656692 
L 576.253967 55.287713 
L 576.623601 55.393135 
L 576.998728 55.287713 
L 577.183262 55.814826 
L 577.362965 55.814826 
L 577.541603 55.445847 
L 577.724988 55.709403 
L 577.907625 55.498558 
L 578.088118 55.551269 
L 578.451234 55.445847 
L 578.631934 55.551269 
L 578.988574 55.393135 
L 579.165717 55.709403 
L 579.523035 55.340424 
L 579.705506 55.709403 
L 579.886054 55.762115 
L 580.264946 55.551269 
L 580.998194 55.551269 
L 581.184568 55.393135 
L 581.365406 55.393135 
L 581.550714 55.867537 
L 581.731968 55.814826 
L 581.918784 55.393135 
L 582.099401 55.709403 
L 582.290134 55.656692 
L 582.473436 55.393135 
L 582.830906 55.498558 
L 583.017764 55.814826 
L 583.211555 55.603981 
L 583.401693 55.97296 
L 584.129862 55.340424 
L 584.317786 55.709403 
L 584.492134 55.340424 
L 584.678978 55.287713 
L 585.223984 55.814826 
L 585.404615 55.551269 
L 585.592151 55.551269 
L 585.774304 55.97296 
L 585.956029 55.814826 
L 586.13338 55.393135 
L 586.318107 55.762115 
L 586.498488 55.656692 
L 586.673363 55.393135 
L 586.858671 55.551269 
L 587.409434 55.498558 
L 587.587698 55.709403 
L 587.771346 55.656692 
L 587.949707 55.340424 
L 588.132358 55.393135 
L 588.314055 55.656692 
L 588.496969 55.498558 
L 588.673545 55.814826 
L 588.850426 55.814826 
L 589.028538 55.603981 
L 589.211508 55.814826 
L 589.394532 55.340424 
L 589.753345 55.709403 
L 589.935083 55.814826 
L 590.11469 55.551269 
L 590.295556 55.498558 
L 591.025413 55.814826 
L 591.209545 55.340424 
L 591.393179 55.445847 
L 591.572883 55.709403 
L 591.750746 55.709403 
L 591.937161 55.498558 
L 592.112935 55.709403 
L 592.288722 55.393135 
L 592.465783 55.814826 
L 592.645445 55.551269 
L 592.830739 55.762115 
L 593.006319 55.709403 
L 593.18904 55.814826 
L 593.377198 55.393135 
L 593.562036 55.920249 
L 593.739138 55.340424 
L 593.924765 55.762115 
L 594.099099 55.603981 
L 594.274665 55.97296 
L 594.456569 55.709403 
L 594.642403 55.814826 
L 594.827573 55.656692 
L 595.005893 55.762115 
L 595.187119 55.656692 
L 595.368981 55.762115 
L 595.739238 55.445847 
L 596.107128 55.814826 
L 596.480125 55.656692 
L 596.848222 55.762115 
L 597.03634 55.393135 
L 597.228553 55.551269 
L 597.591088 55.551269 
L 597.77432 55.551269 
L 597.958563 55.393135 
L 598.506614 55.656692 
L 598.690247 55.287713 
L 599.052173 55.814826 
L 599.240208 55.445847 
L 599.425018 55.603981 
L 599.611696 55.287713 
L 599.975711 55.920249 
L 600.155844 55.18229 
L 600.340737 55.814826 
L 600.523845 55.445847 
L 600.702179 55.445847 
L 600.890075 55.709403 
L 601.082731 55.287713 
L 601.440464 55.762115 
L 601.638517 55.287713 
L 602.004511 55.287713 
L 602.185488 55.287713 
L 602.372457 55.603981 
L 602.735794 55.709403 
L 602.92012 55.393135 
L 603.300631 55.656692 
L 603.691908 55.340424 
L 603.879665 55.340424 
L 604.072598 55.551269 
L 604.262349 55.551269 
L 604.450411 55.340424 
L 604.64488 55.709403 
L 604.838961 55.340424 
L 605.027812 55.551269 
L 605.222088 55.287713 
L 605.411907 55.814826 
L 605.59972 55.445847 
L 605.779022 55.603981 
L 605.964593 55.445847 
L 606.332857 55.814826 
L 606.509683 55.551269 
L 606.686702 55.867537 
L 606.866156 55.603981 
L 607.080525 55.814826 
L 607.260408 55.498558 
L 607.439213 55.762115 
L 608.350061 55.235001 
L 608.52755 55.656692 
L 608.706839 55.709403 
L 608.890805 55.445847 
L 609.069402 55.603981 
L 609.438316 55.18229 
L 609.613951 58.661238 
L 609.974465 58.76666 
L 610.152813 58.34497 
L 610.334274 58.397681 
L 610.510726 58.819372 
L 610.693308 58.292258 
L 611.056756 58.713949 
L 611.236958 58.397681 
L 611.784718 58.608526 
L 611.975354 58.450392 
L 612.154296 58.450392 
L 612.334042 58.819372 
L 612.51506 58.555815 
L 612.68826 58.555815 
L 612.863812 58.924794 
L 613.042007 58.397681 
L 613.418173 58.397681 
L 613.600256 58.661238 
L 613.78079 58.450392 
L 613.961463 58.872083 
L 614.32855 58.503104 
L 614.516917 58.450392 
L 614.69943 58.713949 
L 615.064663 58.503104 
L 615.246083 58.924794 
L 615.432014 58.608526 
L 615.620795 58.608526 
L 615.8093 58.819372 
L 616.0015 58.450392 
L 616.188441 58.397681 
L 616.367549 58.819372 
L 616.556151 58.713949 
L 616.741321 58.397681 
L 616.925425 58.661238 
L 617.29272 58.397681 
L 617.478181 58.661238 
L 617.662728 58.661238 
L 617.851371 58.872083 
L 618.035793 58.397681 
L 618.214362 58.924794 
L 618.399698 58.450392 
L 618.581768 58.76666 
L 618.758829 58.661238 
L 619.120395 58.76666 
L 619.486943 58.608526 
L 619.848011 58.397681 
L 620.031714 58.924794 
L 620.217866 58.872083 
L 620.577675 58.239547 
L 620.940002 58.555815 
L 621.116454 58.661238 
L 621.312943 58.34497 
L 621.514927 58.34497 
L 621.874528 58.608526 
L 622.052419 58.292258 
L 622.41267 58.713949 
L 622.585801 58.503104 
L 622.772465 58.661238 
L 623.139691 58.450392 
L 623.321415 58.76666 
L 623.693221 58.34497 
L 623.870116 58.76666 
L 624.054234 58.450392 
L 624.426539 58.977506 
L 624.607446 58.608526 
L 624.785102 58.555815 
L 624.970465 58.819372 
L 625.154404 58.713949 
L 625.331104 58.872083 
L 625.516551 58.397681 
L 625.69768 58.397681 
L 625.884469 58.239547 
L 626.068352 58.819372 
L 626.251833 58.76666 
L 626.614769 58.397681 
L 626.790501 58.872083 
L 627.169919 58.397681 
L 627.353207 58.555815 
L 627.547842 58.872083 
L 627.743515 58.713949 
L 627.922402 58.397681 
L 628.112291 58.292258 
L 628.297502 58.924794 
L 628.479116 58.397681 
L 628.661974 58.977506 
L 628.848168 58.713949 
L 629.021479 58.924794 
L 629.575051 58.292258 
L 629.758809 58.661238 
L 629.948767 58.292258 
L 630.304507 58.608526 
L 630.670889 58.239547 
L 630.844545 58.872083 
L 631.024927 58.555815 
L 631.397273 58.819372 
L 631.58081 58.34497 
L 631.942044 58.34497 
L 632.127103 58.661238 
L 632.481902 58.292258 
L 632.671085 58.819372 
L 632.848478 58.34497 
L 633.030603 58.661238 
L 633.392626 58.397681 
L 633.569133 58.819372 
L 634.297649 58.397681 
L 634.481781 58.608526 
L 634.673925 58.555815 
L 634.855344 58.76666 
L 635.21799 58.661238 
L 635.399188 58.34497 
L 635.581673 58.555815 
L 635.771258 58.555815 
L 635.949467 58.397681 
L 636.13465 58.924794 
L 636.318173 58.397681 
L 636.500783 58.397681 
L 636.6876 58.555815 
L 636.860619 58.450392 
L 637.037846 58.76666 
L 637.221051 58.555815 
L 637.401502 58.555815 
L 637.767994 58.76666 
L 637.956458 58.555815 
L 638.142043 58.661238 
L 638.326894 58.555815 
L 638.515662 58.292258 
L 638.699213 58.924794 
L 638.882044 58.503104 
L 639.420546 58.292258 
L 639.601163 58.819372 
L 639.789017 58.76666 
L 639.970312 58.450392 
L 640.153697 58.819372 
L 640.339808 58.186836 
L 640.529517 58.503104 
L 640.719848 58.450392 
L 640.902901 58.713949 
L 641.084846 58.239547 
L 641.4406 58.397681 
L 641.799067 58.397681 
L 641.976902 57.97599 
L 642.157616 58.028702 
L 642.346633 58.292258 
L 642.7042 58.292258 
L 643.4407 58.186836 
L 643.630575 58.503104 
L 643.811538 58.239547 
L 644.179718 58.397681 
L 644.362882 58.292258 
L 644.731519 58.503104 
L 645.103104 58.081413 
L 645.287596 58.292258 
L 645.657285 57.97599 
L 645.852322 58.450392 
L 646.034253 58.34497 
L 646.214469 58.397681 
L 646.403181 58.239547 
L 646.591811 58.503104 
L 646.773244 58.081413 
L 646.95959 58.292258 
L 647.144774 58.186836 
L 647.326235 58.34497 
L 647.512014 58.081413 
L 647.692133 58.555815 
L 648.056688 58.028702 
L 648.239408 58.186836 
L 648.418434 58.134124 
L 648.804535 58.555815 
L 648.983907 58.081413 
L 649.162393 58.661238 
L 649.342511 58.081413 
L 649.522063 58.186836 
L 649.703898 58.450392 
L 649.888472 58.450392 
L 650.262396 58.134124 
L 650.447926 58.186836 
L 650.633469 58.503104 
L 650.815083 58.134124 
L 651.001512 58.450392 
L 651.36907 58.34497 
L 651.555513 58.661238 
L 651.739755 58.555815 
L 651.918366 58.081413 
L 652.102055 58.503104 
L 652.282063 58.397681 
L 652.654008 58.450392 
L 653.014301 58.134124 
L 653.193257 58.661238 
L 653.559113 57.97599 
L 653.741031 58.397681 
L 653.923848 58.186836 
L 654.128378 58.555815 
L 654.316052 58.081413 
L 654.501222 58.397681 
L 654.695096 58.450392 
L 654.876488 58.239547 
L 655.055971 58.397681 
L 655.41535 58.081413 
L 655.767119 58.397681 
L 655.9484 58.239547 
L 656.132311 58.397681 
L 656.321217 58.397681 
L 656.501709 58.081413 
L 656.681994 58.028702 
L 656.883535 58.397681 
L 657.060125 58.239547 
L 657.250982 58.239547 
L 657.611773 58.503104 
L 657.791477 58.397681 
L 657.970572 58.450392 
L 658.15076 58.292258 
L 658.322396 58.292258 
L 658.502182 58.134124 
L 658.869658 58.34497 
L 659.053444 58.239547 
L 659.228055 58.292258 
L 659.412809 58.081413 
L 659.60101 58.134124 
L 659.773559 58.661238 
L 659.962271 58.239547 
L 660.14859 58.397681 
L 660.508136 58.134124 
L 660.686068 58.450392 
L 660.872082 58.239547 
L 661.055757 58.239547 
L 661.233011 57.923279 
L 661.421489 58.186836 
L 662.043602 58.292258 
L 662.226931 58.397681 
L 662.40907 58.081413 
L 662.645386 58.239547 
L 663.249883 58.239547 
L 663.436174 58.397681 
L 663.80304 58.028702 
L 663.981982 58.450392 
L 664.167484 57.97599 
L 664.346219 58.450392 
L 664.536136 58.608526 
L 664.731463 58.186836 
L 665.652759 58.292258 
L 665.84655 58.34497 
L 666.030848 58.028702 
L 666.213333 58.34497 
L 666.600293 57.97599 
L 666.792229 58.450392 
L 667.918747 58.081413 
L 668.106006 58.450392 
L 668.284644 58.239547 
L 668.464113 58.34497 
L 668.646916 58.292258 
L 668.828654 58.081413 
L 669.197347 58.34497 
L 669.383292 58.028702 
L 669.571783 58.239547 
L 669.75734 57.870568 
L 669.939894 58.555815 
L 670.118657 58.239547 
L 670.307674 58.134124 
L 670.486049 58.186836 
L 670.671385 57.923279 
L 670.856167 58.292258 
L 671.041268 58.134124 
L 671.224584 58.292258 
L 671.407913 58.239547 
L 671.595795 57.923279 
L 671.964709 58.34497 
L 672.152411 58.186836 
L 672.332973 58.397681 
L 672.515486 58.34497 
L 672.702538 57.97599 
L 672.884248 58.397681 
L 673.421131 58.292258 
L 673.603381 57.923279 
L 673.782074 58.028702 
L 673.976419 57.870568 
L 674.159292 58.239547 
L 674.337598 58.34497 
L 674.696258 58.081413 
L 674.869499 58.450392 
L 675.058903 57.97599 
L 675.241001 58.028702 
L 675.426088 58.34497 
L 675.601474 58.397681 
L 675.780846 58.134124 
L 675.964908 58.34497 
L 676.334501 57.97599 
L 676.514578 58.186836 
L 676.698115 58.028702 
L 677.057882 58.134124 
L 677.239675 58.081413 
L 677.426215 58.397681 
L 677.788376 57.923279 
L 678.156516 58.503104 
L 678.340039 58.134124 
L 678.516753 58.34497 
L 678.696318 58.292258 
L 678.881087 58.028702 
L 679.066077 58.397681 
L 679.242376 58.028702 
L 679.42637 58.239547 
L 679.609561 58.028702 
L 679.984398 58.397681 
L 680.347818 58.503104 
L 680.532116 58.134124 
L 680.70973 58.186836 
L 680.889808 57.97599 
L 681.077081 57.97599 
L 681.258708 58.34497 
L 681.445552 58.028702 
L 681.626156 58.081413 
L 681.827807 58.397681 
L 682.006985 57.923279 
L 682.374972 58.450392 
L 682.55278 58.134124 
L 682.764879 58.34497 
L 682.952802 58.134124 
L 683.129448 58.34497 
L 683.499178 57.923279 
L 683.858406 58.081413 
L 684.039217 58.028702 
L 684.226365 58.397681 
L 684.408435 57.97599 
L 684.778955 58.397681 
L 684.96472 58.239547 
L 685.146983 58.397681 
L 685.323864 58.081413 
L 685.505464 58.081413 
L 685.689623 58.292258 
L 685.879858 58.186836 
L 686.06035 58.34497 
L 686.615168 57.870568 
L 686.793737 58.292258 
L 686.979875 57.870568 
L 687.166678 58.292258 
L 687.344375 57.870568 
L 687.5265 57.923279 
L 687.711158 58.186836 
L 687.892951 57.817856 
L 688.067203 58.239547 
L 688.427579 58.081413 
L 688.607421 58.503104 
L 688.789283 58.450392 
L 688.967852 58.134124 
L 689.153022 58.239547 
L 689.33696 57.97599 
L 689.689822 58.34497 
L 689.87037 58.397681 
L 690.050738 57.97599 
L 690.22236 58.555815 
L 690.405164 58.608526 
L 690.57965 58.450392 
L 690.757707 57.923279 
L 690.937895 58.450392 
L 691.118914 58.239547 
L 691.118914 58.239547 
" style="fill:none;stroke:#1f77b4;stroke-linecap:square;stroke-width:1.5;"/>
            </g>
            <g id="patch_3">
                <path d="M 99 342.828
L 99 46.224 
" style="fill:none;stroke:#000000;stroke-linecap:square;stroke-linejoin:miter;stroke-width:0.8;"/>
            </g>
            <g id="patch_4">
                <path d="M 712.8 342.828
L 712.8 46.224 
" style="fill:none;stroke:#000000;stroke-linecap:square;stroke-linejoin:miter;stroke-width:0.8;"/>
            </g>
            <g id="patch_5">
                <path d="M 99 342.828
L 712.8 342.828 
" style="fill:none;stroke:#000000;stroke-linecap:square;stroke-linejoin:miter;stroke-width:0.8;"/>
            </g>
            <g id="patch_6">
                <path d="M 99 46.224
L 712.8 46.224 
" style="fill:none;stroke:#000000;stroke-linecap:square;stroke-linejoin:miter;stroke-width:0.8;"/>
            </g>
            <g id="text_18">
                <!-- Plot for 'https://redd.it/5nquri' -->
                <defs>
                    <path d="M 19.671875 64.796875
L 19.671875 37.40625 
L 32.078125 37.40625 
Q 38.96875 37.40625 42.71875 40.96875 
Q 46.484375 44.53125 46.484375 51.125 
Q 46.484375 57.671875 42.71875 61.234375 
Q 38.96875 64.796875 32.078125 64.796875 
z
M 9.8125 72.90625 
L 32.078125 72.90625 
Q 44.34375 72.90625 50.609375 67.359375 
Q 56.890625 61.8125 56.890625 51.125 
Q 56.890625 40.328125 50.609375 34.8125 
Q 44.34375 29.296875 32.078125 29.296875 
L 19.671875 29.296875 
L 19.671875 0 
L 9.8125 0 
z
" id="DejaVuSans-50"/>
                    <path d="M 9.421875 75.984375
L 18.40625 75.984375 
L 18.40625 0 
L 9.421875 0 
z
" id="DejaVuSans-6c"/>
                    <path d="M 17.921875 72.90625
L 17.921875 45.796875 
L 9.625 45.796875 
L 9.625 72.90625 
z
" id="DejaVuSans-27"/>
                    <path d="M 54.890625 33.015625
L 54.890625 0 
L 45.90625 0 
L 45.90625 32.71875 
Q 45.90625 40.484375 42.875 44.328125 
Q 39.84375 48.1875 33.796875 48.1875 
Q 26.515625 48.1875 22.3125 43.546875 
Q 18.109375 38.921875 18.109375 30.90625 
L 18.109375 0 
L 9.078125 0 
L 9.078125 75.984375 
L 18.109375 75.984375 
L 18.109375 46.1875 
Q 21.34375 51.125 25.703125 53.5625 
Q 30.078125 56 35.796875 56 
Q 45.21875 56 50.046875 50.171875 
Q 54.890625 44.34375 54.890625 33.015625 
" id="DejaVuSans-68"/>
                    <path d="M 11.71875 12.40625
L 22.015625 12.40625 
L 22.015625 0 
L 11.71875 0 
z
M 11.71875 51.703125 
L 22.015625 51.703125 
L 22.015625 39.3125 
L 11.71875 39.3125 
z
" id="DejaVuSans-3a"/>
                    <path d="M 25.390625 72.90625
L 33.6875 72.90625 
L 8.296875 -9.28125 
L 0 -9.28125 
z
" id="DejaVuSans-2f"/>
                    <path d="M 45.40625 46.390625
L 45.40625 75.984375 
L 54.390625 75.984375 
L 54.390625 0 
L 45.40625 0 
L 45.40625 8.203125 
Q 42.578125 3.328125 38.25 0.953125 
Q 33.9375 -1.421875 27.875 -1.421875 
Q 17.96875 -1.421875 11.734375 6.484375 
Q 5.515625 14.40625 5.515625 27.296875 
Q 5.515625 40.1875 11.734375 48.09375 
Q 17.96875 56 27.875 56 
Q 33.9375 56 38.25 53.625 
Q 42.578125 51.265625 45.40625 46.390625 
M 14.796875 27.296875 
Q 14.796875 17.390625 18.875 11.75 
Q 22.953125 6.109375 30.078125 6.109375 
Q 37.203125 6.109375 41.296875 11.75 
Q 45.40625 17.390625 45.40625 27.296875 
Q 45.40625 37.203125 41.296875 42.84375 
Q 37.203125 48.484375 30.078125 48.484375 
Q 22.953125 48.484375 18.875 42.84375 
Q 14.796875 37.203125 14.796875 27.296875 
" id="DejaVuSans-64"/>
                    <path d="M 10.6875 12.40625
L 21 12.40625 
L 21 0 
L 10.6875 0 
z
" id="DejaVuSans-2e"/>
                    <path d="M 14.796875 27.296875
Q 14.796875 17.390625 18.875 11.75 
Q 22.953125 6.109375 30.078125 6.109375 
Q 37.203125 6.109375 41.296875 11.75 
Q 45.40625 17.390625 45.40625 27.296875 
Q 45.40625 37.203125 41.296875 42.84375 
Q 37.203125 48.484375 30.078125 48.484375 
Q 22.953125 48.484375 18.875 42.84375 
Q 14.796875 37.203125 14.796875 27.296875 
M 45.40625 8.203125 
Q 42.578125 3.328125 38.25 0.953125 
Q 33.9375 -1.421875 27.875 -1.421875 
Q 17.96875 -1.421875 11.734375 6.484375 
Q 5.515625 14.40625 5.515625 27.296875 
Q 5.515625 40.1875 11.734375 48.09375 
Q 17.96875 56 27.875 56 
Q 33.9375 56 38.25 53.625 
Q 42.578125 51.265625 45.40625 46.390625 
L 45.40625 54.6875 
L 54.390625 54.6875 
L 54.390625 -20.796875 
L 45.40625 -20.796875 
z
" id="DejaVuSans-71"/>
                    <path d="M 8.5 21.578125
L 8.5 54.6875 
L 17.484375 54.6875 
L 17.484375 21.921875 
Q 17.484375 14.15625 20.5 10.265625 
Q 23.53125 6.390625 29.59375 6.390625 
Q 36.859375 6.390625 41.078125 11.03125 
Q 45.3125 15.671875 45.3125 23.6875 
L 45.3125 54.6875 
L 54.296875 54.6875 
L 54.296875 0 
L 45.3125 0 
L 45.3125 8.40625 
Q 42.046875 3.421875 37.71875 1 
Q 33.40625 -1.421875 27.6875 -1.421875 
Q 18.265625 -1.421875 13.375 4.4375 
Q 8.5 10.296875 8.5 21.578125 
M 31.109375 56 
z
" id="DejaVuSans-75"/>
                </defs>
                <g transform="translate(316.637813 42.224)scale(0.12 -0.12)">
                    <use xlink:href="#DejaVuSans-50"/>
                    <use x="60.302734" xlink:href="#DejaVuSans-6c"/>
                    <use x="88.085938" xlink:href="#DejaVuSans-6f"/>
                    <use x="149.267578" xlink:href="#DejaVuSans-74"/>
                    <use x="188.476562" xlink:href="#DejaVuSans-20"/>
                    <use x="220.263672" xlink:href="#DejaVuSans-66"/>
                    <use x="255.46875" xlink:href="#DejaVuSans-6f"/>
                    <use x="316.650391" xlink:href="#DejaVuSans-72"/>
                    <use x="357.763672" xlink:href="#DejaVuSans-20"/>
                    <use x="389.550781" xlink:href="#DejaVuSans-27"/>
                    <use x="417.041016" xlink:href="#DejaVuSans-68"/>
                    <use x="480.419922" xlink:href="#DejaVuSans-74"/>
                    <use x="519.628906" xlink:href="#DejaVuSans-74"/>
                    <use x="558.837891" xlink:href="#DejaVuSans-70"/>
                    <use x="622.314453" xlink:href="#DejaVuSans-73"/>
                    <use x="674.414062" xlink:href="#DejaVuSans-3a"/>
                    <use x="708.105469" xlink:href="#DejaVuSans-2f"/>
                    <use x="741.796875" xlink:href="#DejaVuSans-2f"/>
                    <use x="775.488281" xlink:href="#DejaVuSans-72"/>
                    <use x="816.570312" xlink:href="#DejaVuSans-65"/>
                    <use x="878.09375" xlink:href="#DejaVuSans-64"/>
                    <use x="941.570312" xlink:href="#DejaVuSans-64"/>
                    <use x="1005.046875" xlink:href="#DejaVuSans-2e"/>
                    <use x="1036.833984" xlink:href="#DejaVuSans-69"/>
                    <use x="1064.617188" xlink:href="#DejaVuSans-74"/>
                    <use x="1103.826172" xlink:href="#DejaVuSans-2f"/>
                    <use x="1137.517578" xlink:href="#DejaVuSans-35"/>
                    <use x="1201.140625" xlink:href="#DejaVuSans-6e"/>
                    <use x="1264.519531" xlink:href="#DejaVuSans-71"/>
                    <use x="1327.996094" xlink:href="#DejaVuSans-75"/>
                    <use x="1391.375" xlink:href="#DejaVuSans-72"/>
                    <use x="1432.488281" xlink:href="#DejaVuSans-69"/>
                    <use x="1460.271484" xlink:href="#DejaVuSans-27"/>
                </g>
            </g>
        </g>
    </g>
    <defs>
        <clipPath id="p727f11dbcb">
            <rect height="296.604" width="613.8" x="99" y="46.224"/>
        </clipPath>
    </defs>
</svg>
