<?xml version="1.0" encoding="utf-8" standalone="no"?>
<!DOCTYPE svg PUBLIC "-//W3C//DTD SVG 1.1//EN"
        "http://www.w3.org/Graphics/SVG/1.1/DTD/svg11.dtd">
<!-- Created with matplotlib (http://matplotlib.org/) -->
<svg height="376pt" version="1.1" viewBox="0 0 861 376" width="861pt" xmlns="http://www.w3.org/2000/svg"
     xmlns:xlink="http://www.w3.org/1999/xlink">
    <defs>
        <style type="text/css">
            *{stroke-linecap:butt;stroke-linejoin:round;}
        </style>
    </defs>
    <g id="figure_1">
        <g id="patch_1">
            <path d="M 0 376.56
L 861.12 376.56 
L 861.12 0 
L 0 0 
z
" style="fill:#ffffff;"/>
        </g>
        <g id="axes_1">
            <g id="patch_2">
                <path d="M 107.64 335.1384
L 775.008 335.1384 
L 775.008 45.1872 
L 107.64 45.1872 
z
" style="fill:#ffffff;"/>
            </g>
            <g id="matplotlib.axis_1">
                <g id="xtick_1">
                    <g id="line2d_1">
                        <defs>
                            <path d="M 0 0
L 0 3.5 
" id="mbee08e834c" style="stroke:#000000;stroke-width:0.8;"/>
                        </defs>
                        <g>
                            <use style="stroke:#000000;stroke-width:0.8;" x="107.64" xlink:href="#mbee08e834c"
                                 y="335.1384"/>
                        </g>
                    </g>
                    <g id="text_1">
                        <!-- 0 -->
                        <defs>
                            <path d="M 31.78125 66.40625
Q 24.171875 66.40625 20.328125 58.90625 
Q 16.5 51.421875 16.5 36.375 
Q 16.5 21.390625 20.328125 13.890625 
Q 24.171875 6.390625 31.78125 6.390625 
Q 39.453125 6.390625 43.28125 13.890625 
Q 47.125 21.390625 47.125 36.375 
Q 47.125 51.421875 43.28125 58.90625 
Q 39.453125 66.40625 31.78125 66.40625 
M 31.78125 74.21875 
Q 44.046875 74.21875 50.515625 64.515625 
Q 56.984375 54.828125 56.984375 36.375 
Q 56.984375 17.96875 50.515625 8.265625 
Q 44.046875 -1.421875 31.78125 -1.421875 
Q 19.53125 -1.421875 13.0625 8.265625 
Q 6.59375 17.96875 6.59375 36.375 
Q 6.59375 54.828125 13.0625 64.515625 
Q 19.53125 74.21875 31.78125 74.21875 
" id="DejaVuSans-30"/>
                        </defs>
                        <g transform="translate(104.45875 349.736838)scale(0.1 -0.1)">
                            <use xlink:href="#DejaVuSans-30"/>
                        </g>
                    </g>
                </g>
                <g id="xtick_2">
                    <g id="line2d_2">
                        <g>
                            <use style="stroke:#000000;stroke-width:0.8;" x="182.79613" xlink:href="#mbee08e834c"
                                 y="335.1384"/>
                        </g>
                    </g>
                    <g id="text_2">
                        <!-- 5000 -->
                        <defs>
                            <path d="M 10.796875 72.90625
L 49.515625 72.90625 
L 49.515625 64.59375 
L 19.828125 64.59375 
L 19.828125 46.734375 
Q 21.96875 47.46875 24.109375 47.828125 
Q 26.265625 48.1875 28.421875 48.1875 
Q 40.625 48.1875 47.75 41.5 
Q 54.890625 34.8125 54.890625 23.390625 
Q 54.890625 11.625 47.5625 5.09375 
Q 40.234375 -1.421875 26.90625 -1.421875 
Q 22.3125 -1.421875 17.546875 -0.640625 
Q 12.796875 0.140625 7.71875 1.703125 
L 7.71875 11.625 
Q 12.109375 9.234375 16.796875 8.0625 
Q 21.484375 6.890625 26.703125 6.890625 
Q 35.15625 6.890625 40.078125 11.328125 
Q 45.015625 15.765625 45.015625 23.390625 
Q 45.015625 31 40.078125 35.4375 
Q 35.15625 39.890625 26.703125 39.890625 
Q 22.75 39.890625 18.8125 39.015625 
Q 14.890625 38.140625 10.796875 36.28125 
z
" id="DejaVuSans-35"/>
                        </defs>
                        <g transform="translate(170.07113 349.736838)scale(0.1 -0.1)">
                            <use xlink:href="#DejaVuSans-35"/>
                            <use x="63.623047" xlink:href="#DejaVuSans-30"/>
                            <use x="127.246094" xlink:href="#DejaVuSans-30"/>
                            <use x="190.869141" xlink:href="#DejaVuSans-30"/>
                        </g>
                    </g>
                </g>
                <g id="xtick_3">
                    <g id="line2d_3">
                        <g>
                            <use style="stroke:#000000;stroke-width:0.8;" x="257.95226" xlink:href="#mbee08e834c"
                                 y="335.1384"/>
                        </g>
                    </g>
                    <g id="text_3">
                        <!-- 10000 -->
                        <defs>
                            <path d="M 12.40625 8.296875
L 28.515625 8.296875 
L 28.515625 63.921875 
L 10.984375 60.40625 
L 10.984375 69.390625 
L 28.421875 72.90625 
L 38.28125 72.90625 
L 38.28125 8.296875 
L 54.390625 8.296875 
L 54.390625 0 
L 12.40625 0 
z
" id="DejaVuSans-31"/>
                        </defs>
                        <g transform="translate(242.04601 349.736838)scale(0.1 -0.1)">
                            <use xlink:href="#DejaVuSans-31"/>
                            <use x="63.623047" xlink:href="#DejaVuSans-30"/>
                            <use x="127.246094" xlink:href="#DejaVuSans-30"/>
                            <use x="190.869141" xlink:href="#DejaVuSans-30"/>
                            <use x="254.492188" xlink:href="#DejaVuSans-30"/>
                        </g>
                    </g>
                </g>
                <g id="xtick_4">
                    <g id="line2d_4">
                        <g>
                            <use style="stroke:#000000;stroke-width:0.8;" x="333.10839" xlink:href="#mbee08e834c"
                                 y="335.1384"/>
                        </g>
                    </g>
                    <g id="text_4">
                        <!-- 15000 -->
                        <g transform="translate(317.20214 349.736838)scale(0.1 -0.1)">
                            <use xlink:href="#DejaVuSans-31"/>
                            <use x="63.623047" xlink:href="#DejaVuSans-35"/>
                            <use x="127.246094" xlink:href="#DejaVuSans-30"/>
                            <use x="190.869141" xlink:href="#DejaVuSans-30"/>
                            <use x="254.492188" xlink:href="#DejaVuSans-30"/>
                        </g>
                    </g>
                </g>
                <g id="xtick_5">
                    <g id="line2d_5">
                        <g>
                            <use style="stroke:#000000;stroke-width:0.8;" x="408.26452" xlink:href="#mbee08e834c"
                                 y="335.1384"/>
                        </g>
                    </g>
                    <g id="text_5">
                        <!-- 20000 -->
                        <defs>
                            <path d="M 19.1875 8.296875
L 53.609375 8.296875 
L 53.609375 0 
L 7.328125 0 
L 7.328125 8.296875 
Q 12.9375 14.109375 22.625 23.890625 
Q 32.328125 33.6875 34.8125 36.53125 
Q 39.546875 41.84375 41.421875 45.53125 
Q 43.3125 49.21875 43.3125 52.78125 
Q 43.3125 58.59375 39.234375 62.25 
Q 35.15625 65.921875 28.609375 65.921875 
Q 23.96875 65.921875 18.8125 64.3125 
Q 13.671875 62.703125 7.8125 59.421875 
L 7.8125 69.390625 
Q 13.765625 71.78125 18.9375 73 
Q 24.125 74.21875 28.421875 74.21875 
Q 39.75 74.21875 46.484375 68.546875 
Q 53.21875 62.890625 53.21875 53.421875 
Q 53.21875 48.921875 51.53125 44.890625 
Q 49.859375 40.875 45.40625 35.40625 
Q 44.1875 33.984375 37.640625 27.21875 
Q 31.109375 20.453125 19.1875 8.296875 
" id="DejaVuSans-32"/>
                        </defs>
                        <g transform="translate(392.35827 349.736838)scale(0.1 -0.1)">
                            <use xlink:href="#DejaVuSans-32"/>
                            <use x="63.623047" xlink:href="#DejaVuSans-30"/>
                            <use x="127.246094" xlink:href="#DejaVuSans-30"/>
                            <use x="190.869141" xlink:href="#DejaVuSans-30"/>
                            <use x="254.492188" xlink:href="#DejaVuSans-30"/>
                        </g>
                    </g>
                </g>
                <g id="xtick_6">
                    <g id="line2d_6">
                        <g>
                            <use style="stroke:#000000;stroke-width:0.8;" x="483.42065" xlink:href="#mbee08e834c"
                                 y="335.1384"/>
                        </g>
                    </g>
                    <g id="text_6">
                        <!-- 25000 -->
                        <g transform="translate(467.5144 349.736838)scale(0.1 -0.1)">
                            <use xlink:href="#DejaVuSans-32"/>
                            <use x="63.623047" xlink:href="#DejaVuSans-35"/>
                            <use x="127.246094" xlink:href="#DejaVuSans-30"/>
                            <use x="190.869141" xlink:href="#DejaVuSans-30"/>
                            <use x="254.492188" xlink:href="#DejaVuSans-30"/>
                        </g>
                    </g>
                </g>
                <g id="xtick_7">
                    <g id="line2d_7">
                        <g>
                            <use style="stroke:#000000;stroke-width:0.8;" x="558.57678" xlink:href="#mbee08e834c"
                                 y="335.1384"/>
                        </g>
                    </g>
                    <g id="text_7">
                        <!-- 30000 -->
                        <defs>
                            <path d="M 40.578125 39.3125
Q 47.65625 37.796875 51.625 33 
Q 55.609375 28.21875 55.609375 21.1875 
Q 55.609375 10.40625 48.1875 4.484375 
Q 40.765625 -1.421875 27.09375 -1.421875 
Q 22.515625 -1.421875 17.65625 -0.515625 
Q 12.796875 0.390625 7.625 2.203125 
L 7.625 11.71875 
Q 11.71875 9.328125 16.59375 8.109375 
Q 21.484375 6.890625 26.8125 6.890625 
Q 36.078125 6.890625 40.9375 10.546875 
Q 45.796875 14.203125 45.796875 21.1875 
Q 45.796875 27.640625 41.28125 31.265625 
Q 36.765625 34.90625 28.71875 34.90625 
L 20.21875 34.90625 
L 20.21875 43.015625 
L 29.109375 43.015625 
Q 36.375 43.015625 40.234375 45.921875 
Q 44.09375 48.828125 44.09375 54.296875 
Q 44.09375 59.90625 40.109375 62.90625 
Q 36.140625 65.921875 28.71875 65.921875 
Q 24.65625 65.921875 20.015625 65.03125 
Q 15.375 64.15625 9.8125 62.3125 
L 9.8125 71.09375 
Q 15.4375 72.65625 20.34375 73.4375 
Q 25.25 74.21875 29.59375 74.21875 
Q 40.828125 74.21875 47.359375 69.109375 
Q 53.90625 64.015625 53.90625 55.328125 
Q 53.90625 49.265625 50.4375 45.09375 
Q 46.96875 40.921875 40.578125 39.3125 
" id="DejaVuSans-33"/>
                        </defs>
                        <g transform="translate(542.67053 349.736838)scale(0.1 -0.1)">
                            <use xlink:href="#DejaVuSans-33"/>
                            <use x="63.623047" xlink:href="#DejaVuSans-30"/>
                            <use x="127.246094" xlink:href="#DejaVuSans-30"/>
                            <use x="190.869141" xlink:href="#DejaVuSans-30"/>
                            <use x="254.492188" xlink:href="#DejaVuSans-30"/>
                        </g>
                    </g>
                </g>
                <g id="xtick_8">
                    <g id="line2d_8">
                        <g>
                            <use style="stroke:#000000;stroke-width:0.8;" x="633.73291" xlink:href="#mbee08e834c"
                                 y="335.1384"/>
                        </g>
                    </g>
                    <g id="text_8">
                        <!-- 35000 -->
                        <g transform="translate(617.82666 349.736838)scale(0.1 -0.1)">
                            <use xlink:href="#DejaVuSans-33"/>
                            <use x="63.623047" xlink:href="#DejaVuSans-35"/>
                            <use x="127.246094" xlink:href="#DejaVuSans-30"/>
                            <use x="190.869141" xlink:href="#DejaVuSans-30"/>
                            <use x="254.492188" xlink:href="#DejaVuSans-30"/>
                        </g>
                    </g>
                </g>
                <g id="xtick_9">
                    <g id="line2d_9">
                        <g>
                            <use style="stroke:#000000;stroke-width:0.8;" x="708.88904" xlink:href="#mbee08e834c"
                                 y="335.1384"/>
                        </g>
                    </g>
                    <g id="text_9">
                        <!-- 40000 -->
                        <defs>
                            <path d="M 37.796875 64.3125
L 12.890625 25.390625 
L 37.796875 25.390625 
z
M 35.203125 72.90625 
L 47.609375 72.90625 
L 47.609375 25.390625 
L 58.015625 25.390625 
L 58.015625 17.1875 
L 47.609375 17.1875 
L 47.609375 0 
L 37.796875 0 
L 37.796875 17.1875 
L 4.890625 17.1875 
L 4.890625 26.703125 
z
" id="DejaVuSans-34"/>
                        </defs>
                        <g transform="translate(692.98279 349.736838)scale(0.1 -0.1)">
                            <use xlink:href="#DejaVuSans-34"/>
                            <use x="63.623047" xlink:href="#DejaVuSans-30"/>
                            <use x="127.246094" xlink:href="#DejaVuSans-30"/>
                            <use x="190.869141" xlink:href="#DejaVuSans-30"/>
                            <use x="254.492188" xlink:href="#DejaVuSans-30"/>
                        </g>
                    </g>
                </g>
                <g id="text_10">
                    <!-- Time in sec from post creation -->
                    <defs>
                        <path d="M -0.296875 72.90625
L 61.375 72.90625 
L 61.375 64.59375 
L 35.5 64.59375 
L 35.5 0 
L 25.59375 0 
L 25.59375 64.59375 
L -0.296875 64.59375 
z
" id="DejaVuSans-54"/>
                        <path d="M 9.421875 54.6875
L 18.40625 54.6875 
L 18.40625 0 
L 9.421875 0 
z
M 9.421875 75.984375 
L 18.40625 75.984375 
L 18.40625 64.59375 
L 9.421875 64.59375 
z
" id="DejaVuSans-69"/>
                        <path d="M 52 44.1875
Q 55.375 50.25 60.0625 53.125 
Q 64.75 56 71.09375 56 
Q 79.640625 56 84.28125 50.015625 
Q 88.921875 44.046875 88.921875 33.015625 
L 88.921875 0 
L 79.890625 0 
L 79.890625 32.71875 
Q 79.890625 40.578125 77.09375 44.375 
Q 74.3125 48.1875 68.609375 48.1875 
Q 61.625 48.1875 57.5625 43.546875 
Q 53.515625 38.921875 53.515625 30.90625 
L 53.515625 0 
L 44.484375 0 
L 44.484375 32.71875 
Q 44.484375 40.625 41.703125 44.40625 
Q 38.921875 48.1875 33.109375 48.1875 
Q 26.21875 48.1875 22.15625 43.53125 
Q 18.109375 38.875 18.109375 30.90625 
L 18.109375 0 
L 9.078125 0 
L 9.078125 54.6875 
L 18.109375 54.6875 
L 18.109375 46.1875 
Q 21.1875 51.21875 25.484375 53.609375 
Q 29.78125 56 35.6875 56 
Q 41.65625 56 45.828125 52.96875 
Q 50 49.953125 52 44.1875 
" id="DejaVuSans-6d"/>
                        <path d="M 56.203125 29.59375
L 56.203125 25.203125 
L 14.890625 25.203125 
Q 15.484375 15.921875 20.484375 11.0625 
Q 25.484375 6.203125 34.421875 6.203125 
Q 39.59375 6.203125 44.453125 7.46875 
Q 49.3125 8.734375 54.109375 11.28125 
L 54.109375 2.78125 
Q 49.265625 0.734375 44.1875 -0.34375 
Q 39.109375 -1.421875 33.890625 -1.421875 
Q 20.796875 -1.421875 13.15625 6.1875 
Q 5.515625 13.8125 5.515625 26.8125 
Q 5.515625 40.234375 12.765625 48.109375 
Q 20.015625 56 32.328125 56 
Q 43.359375 56 49.78125 48.890625 
Q 56.203125 41.796875 56.203125 29.59375 
M 47.21875 32.234375 
Q 47.125 39.59375 43.09375 43.984375 
Q 39.0625 48.390625 32.421875 48.390625 
Q 24.90625 48.390625 20.390625 44.140625 
Q 15.875 39.890625 15.1875 32.171875 
z
" id="DejaVuSans-65"/>
                        <path id="DejaVuSans-20"/>
                        <path d="M 54.890625 33.015625
L 54.890625 0 
L 45.90625 0 
L 45.90625 32.71875 
Q 45.90625 40.484375 42.875 44.328125 
Q 39.84375 48.1875 33.796875 48.1875 
Q 26.515625 48.1875 22.3125 43.546875 
Q 18.109375 38.921875 18.109375 30.90625 
L 18.109375 0 
L 9.078125 0 
L 9.078125 54.6875 
L 18.109375 54.6875 
L 18.109375 46.1875 
Q 21.34375 51.125 25.703125 53.5625 
Q 30.078125 56 35.796875 56 
Q 45.21875 56 50.046875 50.171875 
Q 54.890625 44.34375 54.890625 33.015625 
" id="DejaVuSans-6e"/>
                        <path d="M 44.28125 53.078125
L 44.28125 44.578125 
Q 40.484375 46.53125 36.375 47.5 
Q 32.28125 48.484375 27.875 48.484375 
Q 21.1875 48.484375 17.84375 46.4375 
Q 14.5 44.390625 14.5 40.28125 
Q 14.5 37.15625 16.890625 35.375 
Q 19.28125 33.59375 26.515625 31.984375 
L 29.59375 31.296875 
Q 39.15625 29.25 43.1875 25.515625 
Q 47.21875 21.78125 47.21875 15.09375 
Q 47.21875 7.46875 41.1875 3.015625 
Q 35.15625 -1.421875 24.609375 -1.421875 
Q 20.21875 -1.421875 15.453125 -0.5625 
Q 10.6875 0.296875 5.421875 2 
L 5.421875 11.28125 
Q 10.40625 8.6875 15.234375 7.390625 
Q 20.0625 6.109375 24.8125 6.109375 
Q 31.15625 6.109375 34.5625 8.28125 
Q 37.984375 10.453125 37.984375 14.40625 
Q 37.984375 18.0625 35.515625 20.015625 
Q 33.0625 21.96875 24.703125 23.78125 
L 21.578125 24.515625 
Q 13.234375 26.265625 9.515625 29.90625 
Q 5.8125 33.546875 5.8125 39.890625 
Q 5.8125 47.609375 11.28125 51.796875 
Q 16.75 56 26.8125 56 
Q 31.78125 56 36.171875 55.265625 
Q 40.578125 54.546875 44.28125 53.078125 
" id="DejaVuSans-73"/>
                        <path d="M 48.78125 52.59375
L 48.78125 44.1875 
Q 44.96875 46.296875 41.140625 47.34375 
Q 37.3125 48.390625 33.40625 48.390625 
Q 24.65625 48.390625 19.8125 42.84375 
Q 14.984375 37.3125 14.984375 27.296875 
Q 14.984375 17.28125 19.8125 11.734375 
Q 24.65625 6.203125 33.40625 6.203125 
Q 37.3125 6.203125 41.140625 7.25 
Q 44.96875 8.296875 48.78125 10.40625 
L 48.78125 2.09375 
Q 45.015625 0.34375 40.984375 -0.53125 
Q 36.96875 -1.421875 32.421875 -1.421875 
Q 20.0625 -1.421875 12.78125 6.34375 
Q 5.515625 14.109375 5.515625 27.296875 
Q 5.515625 40.671875 12.859375 48.328125 
Q 20.21875 56 33.015625 56 
Q 37.15625 56 41.109375 55.140625 
Q 45.0625 54.296875 48.78125 52.59375 
" id="DejaVuSans-63"/>
                        <path d="M 37.109375 75.984375
L 37.109375 68.5 
L 28.515625 68.5 
Q 23.6875 68.5 21.796875 66.546875 
Q 19.921875 64.59375 19.921875 59.515625 
L 19.921875 54.6875 
L 34.71875 54.6875 
L 34.71875 47.703125 
L 19.921875 47.703125 
L 19.921875 0 
L 10.890625 0 
L 10.890625 47.703125 
L 2.296875 47.703125 
L 2.296875 54.6875 
L 10.890625 54.6875 
L 10.890625 58.5 
Q 10.890625 67.625 15.140625 71.796875 
Q 19.390625 75.984375 28.609375 75.984375 
z
" id="DejaVuSans-66"/>
                        <path d="M 41.109375 46.296875
Q 39.59375 47.171875 37.8125 47.578125 
Q 36.03125 48 33.890625 48 
Q 26.265625 48 22.1875 43.046875 
Q 18.109375 38.09375 18.109375 28.8125 
L 18.109375 0 
L 9.078125 0 
L 9.078125 54.6875 
L 18.109375 54.6875 
L 18.109375 46.1875 
Q 20.953125 51.171875 25.484375 53.578125 
Q 30.03125 56 36.53125 56 
Q 37.453125 56 38.578125 55.875 
Q 39.703125 55.765625 41.0625 55.515625 
z
" id="DejaVuSans-72"/>
                        <path d="M 30.609375 48.390625
Q 23.390625 48.390625 19.1875 42.75 
Q 14.984375 37.109375 14.984375 27.296875 
Q 14.984375 17.484375 19.15625 11.84375 
Q 23.34375 6.203125 30.609375 6.203125 
Q 37.796875 6.203125 41.984375 11.859375 
Q 46.1875 17.53125 46.1875 27.296875 
Q 46.1875 37.015625 41.984375 42.703125 
Q 37.796875 48.390625 30.609375 48.390625 
M 30.609375 56 
Q 42.328125 56 49.015625 48.375 
Q 55.71875 40.765625 55.71875 27.296875 
Q 55.71875 13.875 49.015625 6.21875 
Q 42.328125 -1.421875 30.609375 -1.421875 
Q 18.84375 -1.421875 12.171875 6.21875 
Q 5.515625 13.875 5.515625 27.296875 
Q 5.515625 40.765625 12.171875 48.375 
Q 18.84375 56 30.609375 56 
" id="DejaVuSans-6f"/>
                        <path d="M 18.109375 8.203125
L 18.109375 -20.796875 
L 9.078125 -20.796875 
L 9.078125 54.6875 
L 18.109375 54.6875 
L 18.109375 46.390625 
Q 20.953125 51.265625 25.265625 53.625 
Q 29.59375 56 35.59375 56 
Q 45.5625 56 51.78125 48.09375 
Q 58.015625 40.1875 58.015625 27.296875 
Q 58.015625 14.40625 51.78125 6.484375 
Q 45.5625 -1.421875 35.59375 -1.421875 
Q 29.59375 -1.421875 25.265625 0.953125 
Q 20.953125 3.328125 18.109375 8.203125 
M 48.6875 27.296875 
Q 48.6875 37.203125 44.609375 42.84375 
Q 40.53125 48.484375 33.40625 48.484375 
Q 26.265625 48.484375 22.1875 42.84375 
Q 18.109375 37.203125 18.109375 27.296875 
Q 18.109375 17.390625 22.1875 11.75 
Q 26.265625 6.109375 33.40625 6.109375 
Q 40.53125 6.109375 44.609375 11.75 
Q 48.6875 17.390625 48.6875 27.296875 
" id="DejaVuSans-70"/>
                        <path d="M 18.3125 70.21875
L 18.3125 54.6875 
L 36.8125 54.6875 
L 36.8125 47.703125 
L 18.3125 47.703125 
L 18.3125 18.015625 
Q 18.3125 11.328125 20.140625 9.421875 
Q 21.96875 7.515625 27.59375 7.515625 
L 36.8125 7.515625 
L 36.8125 0 
L 27.59375 0 
Q 17.1875 0 13.234375 3.875 
Q 9.28125 7.765625 9.28125 18.015625 
L 9.28125 47.703125 
L 2.6875 47.703125 
L 2.6875 54.6875 
L 9.28125 54.6875 
L 9.28125 70.21875 
z
" id="DejaVuSans-74"/>
                        <path d="M 34.28125 27.484375
Q 23.390625 27.484375 19.1875 25 
Q 14.984375 22.515625 14.984375 16.5 
Q 14.984375 11.71875 18.140625 8.90625 
Q 21.296875 6.109375 26.703125 6.109375 
Q 34.1875 6.109375 38.703125 11.40625 
Q 43.21875 16.703125 43.21875 25.484375 
L 43.21875 27.484375 
z
M 52.203125 31.203125 
L 52.203125 0 
L 43.21875 0 
L 43.21875 8.296875 
Q 40.140625 3.328125 35.546875 0.953125 
Q 30.953125 -1.421875 24.3125 -1.421875 
Q 15.921875 -1.421875 10.953125 3.296875 
Q 6 8.015625 6 15.921875 
Q 6 25.140625 12.171875 29.828125 
Q 18.359375 34.515625 30.609375 34.515625 
L 43.21875 34.515625 
L 43.21875 35.40625 
Q 43.21875 41.609375 39.140625 45 
Q 35.0625 48.390625 27.6875 48.390625 
Q 23 48.390625 18.546875 47.265625 
Q 14.109375 46.140625 10.015625 43.890625 
L 10.015625 52.203125 
Q 14.9375 54.109375 19.578125 55.046875 
Q 24.21875 56 28.609375 56 
Q 40.484375 56 46.34375 49.84375 
Q 52.203125 43.703125 52.203125 31.203125 
" id="DejaVuSans-61"/>
                    </defs>
                    <g transform="translate(364.939625 363.414963)scale(0.1 -0.1)">
                        <use xlink:href="#DejaVuSans-54"/>
                        <use x="61.037109" xlink:href="#DejaVuSans-69"/>
                        <use x="88.820312" xlink:href="#DejaVuSans-6d"/>
                        <use x="186.232422" xlink:href="#DejaVuSans-65"/>
                        <use x="247.755859" xlink:href="#DejaVuSans-20"/>
                        <use x="279.542969" xlink:href="#DejaVuSans-69"/>
                        <use x="307.326172" xlink:href="#DejaVuSans-6e"/>
                        <use x="370.705078" xlink:href="#DejaVuSans-20"/>
                        <use x="402.492188" xlink:href="#DejaVuSans-73"/>
                        <use x="454.591797" xlink:href="#DejaVuSans-65"/>
                        <use x="516.115234" xlink:href="#DejaVuSans-63"/>
                        <use x="571.095703" xlink:href="#DejaVuSans-20"/>
                        <use x="602.882812" xlink:href="#DejaVuSans-66"/>
                        <use x="638.087891" xlink:href="#DejaVuSans-72"/>
                        <use x="679.169922" xlink:href="#DejaVuSans-6f"/>
                        <use x="740.351562" xlink:href="#DejaVuSans-6d"/>
                        <use x="837.763672" xlink:href="#DejaVuSans-20"/>
                        <use x="869.550781" xlink:href="#DejaVuSans-70"/>
                        <use x="933.027344" xlink:href="#DejaVuSans-6f"/>
                        <use x="994.208984" xlink:href="#DejaVuSans-73"/>
                        <use x="1046.308594" xlink:href="#DejaVuSans-74"/>
                        <use x="1085.517578" xlink:href="#DejaVuSans-20"/>
                        <use x="1117.304688" xlink:href="#DejaVuSans-63"/>
                        <use x="1172.285156" xlink:href="#DejaVuSans-72"/>
                        <use x="1213.367188" xlink:href="#DejaVuSans-65"/>
                        <use x="1274.890625" xlink:href="#DejaVuSans-61"/>
                        <use x="1336.169922" xlink:href="#DejaVuSans-74"/>
                        <use x="1375.378906" xlink:href="#DejaVuSans-69"/>
                        <use x="1403.162109" xlink:href="#DejaVuSans-6f"/>
                        <use x="1464.34375" xlink:href="#DejaVuSans-6e"/>
                    </g>
                </g>
            </g>
            <g id="matplotlib.axis_2">
                <g id="ytick_1">
                    <g id="line2d_10">
                        <defs>
                            <path d="M 0 0
L -3.5 0 
" id="m9ab8f5b4bb" style="stroke:#000000;stroke-width:0.8;"/>
                        </defs>
                        <g>
                            <use style="stroke:#000000;stroke-width:0.8;" x="107.64" xlink:href="#m9ab8f5b4bb"
                                 y="335.1384"/>
                        </g>
                    </g>
                    <g id="text_11">
                        <!-- 0 -->
                        <g transform="translate(94.2775 338.937619)scale(0.1 -0.1)">
                            <use xlink:href="#DejaVuSans-30"/>
                        </g>
                    </g>
                </g>
                <g id="ytick_2">
                    <g id="line2d_11">
                        <g>
                            <use style="stroke:#000000;stroke-width:0.8;" x="107.64" xlink:href="#m9ab8f5b4bb"
                                 y="300.45213"/>
                        </g>
                    </g>
                    <g id="text_12">
                        <!-- 1000 -->
                        <g transform="translate(75.19 304.251349)scale(0.1 -0.1)">
                            <use xlink:href="#DejaVuSans-31"/>
                            <use x="63.623047" xlink:href="#DejaVuSans-30"/>
                            <use x="127.246094" xlink:href="#DejaVuSans-30"/>
                            <use x="190.869141" xlink:href="#DejaVuSans-30"/>
                        </g>
                    </g>
                </g>
                <g id="ytick_3">
                    <g id="line2d_12">
                        <g>
                            <use style="stroke:#000000;stroke-width:0.8;" x="107.64" xlink:href="#m9ab8f5b4bb"
                                 y="265.765861"/>
                        </g>
                    </g>
                    <g id="text_13">
                        <!-- 2000 -->
                        <g transform="translate(75.19 269.565079)scale(0.1 -0.1)">
                            <use xlink:href="#DejaVuSans-32"/>
                            <use x="63.623047" xlink:href="#DejaVuSans-30"/>
                            <use x="127.246094" xlink:href="#DejaVuSans-30"/>
                            <use x="190.869141" xlink:href="#DejaVuSans-30"/>
                        </g>
                    </g>
                </g>
                <g id="ytick_4">
                    <g id="line2d_13">
                        <g>
                            <use style="stroke:#000000;stroke-width:0.8;" x="107.64" xlink:href="#m9ab8f5b4bb"
                                 y="231.079591"/>
                        </g>
                    </g>
                    <g id="text_14">
                        <!-- 3000 -->
                        <g transform="translate(75.19 234.87881)scale(0.1 -0.1)">
                            <use xlink:href="#DejaVuSans-33"/>
                            <use x="63.623047" xlink:href="#DejaVuSans-30"/>
                            <use x="127.246094" xlink:href="#DejaVuSans-30"/>
                            <use x="190.869141" xlink:href="#DejaVuSans-30"/>
                        </g>
                    </g>
                </g>
                <g id="ytick_5">
                    <g id="line2d_14">
                        <g>
                            <use style="stroke:#000000;stroke-width:0.8;" x="107.64" xlink:href="#m9ab8f5b4bb"
                                 y="196.393321"/>
                        </g>
                    </g>
                    <g id="text_15">
                        <!-- 4000 -->
                        <g transform="translate(75.19 200.19254)scale(0.1 -0.1)">
                            <use xlink:href="#DejaVuSans-34"/>
                            <use x="63.623047" xlink:href="#DejaVuSans-30"/>
                            <use x="127.246094" xlink:href="#DejaVuSans-30"/>
                            <use x="190.869141" xlink:href="#DejaVuSans-30"/>
                        </g>
                    </g>
                </g>
                <g id="ytick_6">
                    <g id="line2d_15">
                        <g>
                            <use style="stroke:#000000;stroke-width:0.8;" x="107.64" xlink:href="#m9ab8f5b4bb"
                                 y="161.707051"/>
                        </g>
                    </g>
                    <g id="text_16">
                        <!-- 5000 -->
                        <g transform="translate(75.19 165.50627)scale(0.1 -0.1)">
                            <use xlink:href="#DejaVuSans-35"/>
                            <use x="63.623047" xlink:href="#DejaVuSans-30"/>
                            <use x="127.246094" xlink:href="#DejaVuSans-30"/>
                            <use x="190.869141" xlink:href="#DejaVuSans-30"/>
                        </g>
                    </g>
                </g>
                <g id="ytick_7">
                    <g id="line2d_16">
                        <g>
                            <use style="stroke:#000000;stroke-width:0.8;" x="107.64" xlink:href="#m9ab8f5b4bb"
                                 y="127.020782"/>
                        </g>
                    </g>
                    <g id="text_17">
                        <!-- 6000 -->
                        <defs>
                            <path d="M 33.015625 40.375
Q 26.375 40.375 22.484375 35.828125 
Q 18.609375 31.296875 18.609375 23.390625 
Q 18.609375 15.53125 22.484375 10.953125 
Q 26.375 6.390625 33.015625 6.390625 
Q 39.65625 6.390625 43.53125 10.953125 
Q 47.40625 15.53125 47.40625 23.390625 
Q 47.40625 31.296875 43.53125 35.828125 
Q 39.65625 40.375 33.015625 40.375 
M 52.59375 71.296875 
L 52.59375 62.3125 
Q 48.875 64.0625 45.09375 64.984375 
Q 41.3125 65.921875 37.59375 65.921875 
Q 27.828125 65.921875 22.671875 59.328125 
Q 17.53125 52.734375 16.796875 39.40625 
Q 19.671875 43.65625 24.015625 45.921875 
Q 28.375 48.1875 33.59375 48.1875 
Q 44.578125 48.1875 50.953125 41.515625 
Q 57.328125 34.859375 57.328125 23.390625 
Q 57.328125 12.15625 50.6875 5.359375 
Q 44.046875 -1.421875 33.015625 -1.421875 
Q 20.359375 -1.421875 13.671875 8.265625 
Q 6.984375 17.96875 6.984375 36.375 
Q 6.984375 53.65625 15.1875 63.9375 
Q 23.390625 74.21875 37.203125 74.21875 
Q 40.921875 74.21875 44.703125 73.484375 
Q 48.484375 72.75 52.59375 71.296875 
" id="DejaVuSans-36"/>
                        </defs>
                        <g transform="translate(75.19 130.820001)scale(0.1 -0.1)">
                            <use xlink:href="#DejaVuSans-36"/>
                            <use x="63.623047" xlink:href="#DejaVuSans-30"/>
                            <use x="127.246094" xlink:href="#DejaVuSans-30"/>
                            <use x="190.869141" xlink:href="#DejaVuSans-30"/>
                        </g>
                    </g>
                </g>
                <g id="ytick_8">
                    <g id="line2d_17">
                        <g>
                            <use style="stroke:#000000;stroke-width:0.8;" x="107.64" xlink:href="#m9ab8f5b4bb"
                                 y="92.334512"/>
                        </g>
                    </g>
                    <g id="text_18">
                        <!-- 7000 -->
                        <defs>
                            <path d="M 8.203125 72.90625
L 55.078125 72.90625 
L 55.078125 68.703125 
L 28.609375 0 
L 18.3125 0 
L 43.21875 64.59375 
L 8.203125 64.59375 
z
" id="DejaVuSans-37"/>
                        </defs>
                        <g transform="translate(75.19 96.133731)scale(0.1 -0.1)">
                            <use xlink:href="#DejaVuSans-37"/>
                            <use x="63.623047" xlink:href="#DejaVuSans-30"/>
                            <use x="127.246094" xlink:href="#DejaVuSans-30"/>
                            <use x="190.869141" xlink:href="#DejaVuSans-30"/>
                        </g>
                    </g>
                </g>
                <g id="ytick_9">
                    <g id="line2d_18">
                        <g>
                            <use style="stroke:#000000;stroke-width:0.8;" x="107.64" xlink:href="#m9ab8f5b4bb"
                                 y="57.648242"/>
                        </g>
                    </g>
                    <g id="text_19">
                        <!-- 8000 -->
                        <defs>
                            <path d="M 31.78125 34.625
Q 24.75 34.625 20.71875 30.859375 
Q 16.703125 27.09375 16.703125 20.515625 
Q 16.703125 13.921875 20.71875 10.15625 
Q 24.75 6.390625 31.78125 6.390625 
Q 38.8125 6.390625 42.859375 10.171875 
Q 46.921875 13.96875 46.921875 20.515625 
Q 46.921875 27.09375 42.890625 30.859375 
Q 38.875 34.625 31.78125 34.625 
M 21.921875 38.8125 
Q 15.578125 40.375 12.03125 44.71875 
Q 8.5 49.078125 8.5 55.328125 
Q 8.5 64.0625 14.71875 69.140625 
Q 20.953125 74.21875 31.78125 74.21875 
Q 42.671875 74.21875 48.875 69.140625 
Q 55.078125 64.0625 55.078125 55.328125 
Q 55.078125 49.078125 51.53125 44.71875 
Q 48 40.375 41.703125 38.8125 
Q 48.828125 37.15625 52.796875 32.3125 
Q 56.78125 27.484375 56.78125 20.515625 
Q 56.78125 9.90625 50.3125 4.234375 
Q 43.84375 -1.421875 31.78125 -1.421875 
Q 19.734375 -1.421875 13.25 4.234375 
Q 6.78125 9.90625 6.78125 20.515625 
Q 6.78125 27.484375 10.78125 32.3125 
Q 14.796875 37.15625 21.921875 38.8125 
M 18.3125 54.390625 
Q 18.3125 48.734375 21.84375 45.5625 
Q 25.390625 42.390625 31.78125 42.390625 
Q 38.140625 42.390625 41.71875 45.5625 
Q 45.3125 48.734375 45.3125 54.390625 
Q 45.3125 60.0625 41.71875 63.234375 
Q 38.140625 66.40625 31.78125 66.40625 
Q 25.390625 66.40625 21.84375 63.234375 
Q 18.3125 60.0625 18.3125 54.390625 
" id="DejaVuSans-38"/>
                        </defs>
                        <g transform="translate(75.19 61.447461)scale(0.1 -0.1)">
                            <use xlink:href="#DejaVuSans-38"/>
                            <use x="63.623047" xlink:href="#DejaVuSans-30"/>
                            <use x="127.246094" xlink:href="#DejaVuSans-30"/>
                            <use x="190.869141" xlink:href="#DejaVuSans-30"/>
                        </g>
                    </g>
                </g>
                <g id="text_20">
                    <!-- No of Upvotes -->
                    <defs>
                        <path d="M 9.8125 72.90625
L 23.09375 72.90625 
L 55.421875 11.921875 
L 55.421875 72.90625 
L 64.984375 72.90625 
L 64.984375 0 
L 51.703125 0 
L 19.390625 60.984375 
L 19.390625 0 
L 9.8125 0 
z
" id="DejaVuSans-4e"/>
                        <path d="M 8.6875 72.90625
L 18.609375 72.90625 
L 18.609375 28.609375 
Q 18.609375 16.890625 22.84375 11.734375 
Q 27.09375 6.59375 36.625 6.59375 
Q 46.09375 6.59375 50.34375 11.734375 
Q 54.59375 16.890625 54.59375 28.609375 
L 54.59375 72.90625 
L 64.5 72.90625 
L 64.5 27.390625 
Q 64.5 13.140625 57.4375 5.859375 
Q 50.390625 -1.421875 36.625 -1.421875 
Q 22.796875 -1.421875 15.734375 5.859375 
Q 8.6875 13.140625 8.6875 27.390625 
z
" id="DejaVuSans-55"/>
                        <path d="M 2.984375 54.6875
L 12.5 54.6875 
L 29.59375 8.796875 
L 46.6875 54.6875 
L 56.203125 54.6875 
L 35.6875 0 
L 23.484375 0 
z
" id="DejaVuSans-76"/>
                    </defs>
                    <g transform="translate(69.110313 225.454206)rotate(-90)scale(0.1 -0.1)">
                        <use xlink:href="#DejaVuSans-4e"/>
                        <use x="74.804688" xlink:href="#DejaVuSans-6f"/>
                        <use x="135.986328" xlink:href="#DejaVuSans-20"/>
                        <use x="167.773438" xlink:href="#DejaVuSans-6f"/>
                        <use x="228.955078" xlink:href="#DejaVuSans-66"/>
                        <use x="264.160156" xlink:href="#DejaVuSans-20"/>
                        <use x="295.947266" xlink:href="#DejaVuSans-55"/>
                        <use x="369.140625" xlink:href="#DejaVuSans-70"/>
                        <use x="432.617188" xlink:href="#DejaVuSans-76"/>
                        <use x="491.796875" xlink:href="#DejaVuSans-6f"/>
                        <use x="552.978516" xlink:href="#DejaVuSans-74"/>
                        <use x="592.1875" xlink:href="#DejaVuSans-65"/>
                        <use x="653.710938" xlink:href="#DejaVuSans-73"/>
                    </g>
                </g>
            </g>
            <g id="line2d_19">
                <path clip-path="url(#p5bbef17ecc)" d="M 264.382243 261.707567
L 272.327343 253.001313 
L 272.752261 252.585078 
L 273.199124 252.585078 
L 273.431086 252.411647 
L 273.631452 251.82198 
L 273.832961 251.891353 
L 274.076993 251.371059 
L 274.295937 251.197627 
L 274.504992 251.301686 
L 274.916772 250.816078 
L 275.165329 250.434529 
L 275.36798 250.399843 
L 275.571292 249.983608 
L 275.796159 249.948922 
L 276.437541 249.116451 
L 276.661251 249.047079 
L 277.29599 248.041177 
L 277.513973 247.902432 
L 280.835227 244.225687 
L 281.033504 244.225687 
L 281.260536 243.913511 
L 281.468869 243.948197 
L 281.668528 243.531962 
L 281.882333 243.566648 
L 282.302576 243.115726 
L 283.168104 242.283256 
L 283.367177 241.97108 
L 283.568761 241.901707 
L 284.345229 240.653001 
L 284.770703 240.306139 
L 293.357727 231.703944 
L 293.571426 231.322395 
L 293.808949 231.253022 
L 294.303176 230.940846 
L 294.525202 230.455238 
L 295.260319 229.726826 
L 296.107734 228.478121 
L 296.491151 227.992513 
L 296.681431 227.749709 
L 296.873215 227.888454 
L 297.239496 227.541591 
L 297.43439 227.506905 
L 297.619921 227.055984 
L 297.802595 227.229415 
L 298.172228 226.53569 
L 298.360645 226.431631 
L 298.55566 226.466317 
L 299.125403 225.772592 
L 299.321907 225.703219 
L 299.698138 225.148239 
L 299.894972 225.217611 
L 300.085418 224.870749 
L 300.285153 224.974807 
L 300.473855 224.385141 
L 300.663173 224.523886 
L 300.85201 223.934219 
L 301.043147 223.726102 
L 301.230782 223.795474 
L 301.621158 223.379239 
L 301.815256 222.963004 
L 302.348203 222.928318 
L 302.851494 222.512082 
L 303.04684 222.095847 
L 303.242712 222.130533 
L 303.429415 221.679612 
L 303.619875 221.748984 
L 303.994153 221.055259 
L 304.186552 221.124631 
L 304.635039 220.743083 
L 304.832715 220.361534 
L 305.042611 220.465592 
L 305.440247 219.771867 
L 305.650609 219.84124 
L 305.866157 219.390318 
L 306.086364 219.494377 
L 306.30116 219.355632 
L 306.731565 218.592534 
L 306.973327 218.62722 
L 307.206191 218.384416 
L 307.469643 217.829436 
L 307.696434 217.864122 
L 307.902332 217.725377 
L 308.310745 217.274456 
L 308.538754 217.239769 
L 308.83801 217.066338 
L 309.652222 216.060436 
L 309.965443 216.095122 
L 310.82123 215.47077 
L 314.234822 212.730554 
L 314.462079 212.244946 
L 314.719759 212.279633 
L 315.192491 211.93277 
L 315.418351 212.036829 
L 315.685771 211.65528 
L 315.908985 211.551221 
L 316.166019 211.585907 
L 316.386392 211.030927 
L 316.595025 211.030927 
L 316.810979 210.510633 
L 317.041016 210.718751 
L 317.327151 210.337202 
L 317.861 209.504731 
L 318.089009 209.157868 
L 318.954371 208.429457 
L 319.226076 208.429457 
L 320.173404 207.666359 
L 320.629932 207.180751 
L 320.839001 207.250124 
L 321.262927 207.00732 
L 321.477708 206.556398 
L 321.912652 206.625771 
L 322.194487 206.209536 
L 322.746058 206.348281 
L 322.952963 205.897359 
L 323.186638 205.897359 
L 323.633457 205.064889 
L 323.887094 205.099575 
L 324.572097 204.440536 
L 324.792935 204.405849 
L 325.55084 203.74681 
L 325.800734 203.677438 
L 326.032711 203.46932 
L 326.295171 203.018399 
L 327.056578 202.463418 
L 327.318061 202.116556 
L 327.536991 202.289987 
L 327.768727 202.116556 
L 328.425381 201.249399 
L 328.656487 201.110654 
L 328.921697 200.659732 
L 329.361045 200.59036 
L 329.60413 200.139438 
L 329.834243 201.457517 
L 330.117882 201.249399 
L 330.759761 199.272282 
L 330.965854 199.168223 
L 331.176727 198.925419 
L 331.589109 198.682615 
L 332.133675 197.711399 
L 332.335394 197.884831 
L 333.743564 196.878929 
L 333.972535 198.058262 
L 334.225105 198.26638 
L 334.497937 196.115831 
L 334.729883 197.537968 
L 335.212175 197.121733 
L 339.822132 193.306243 
L 340.04972 193.340929 
L 340.26417 193.098126 
L 340.456465 193.236871 
L 341.18599 192.057537 
L 341.387033 192.230969 
L 341.620588 191.884106 
L 341.855166 191.29444 
L 342.05693 191.398498 
L 342.282609 190.808832 
L 342.480916 190.878204 
L 342.693202 190.531342 
L 342.880791 190.566028 
L 343.063736 190.35791 
L 343.244998 189.906989 
L 343.424922 189.976361 
L 343.603823 189.664185 
L 343.780245 189.629499 
L 344.135778 189.282636 
L 344.313898 189.178577 
L 344.492048 188.901087 
L 344.848694 188.831714 
L 345.026258 188.242048 
L 345.207986 188.31142 
L 345.564361 187.999244 
L 345.742827 187.75644 
L 346.111257 187.721754 
L 346.289948 187.687068 
L 346.466731 187.340205 
L 347.066958 187.097401 
L 347.65773 186.403676 
L 348.251523 186.160872 
L 348.840402 185.15497 
L 349.042091 185.328401 
L 349.24142 185.259029 
L 349.433669 184.946852 
L 349.625032 184.946852 
L 350.017196 184.530617 
L 350.221486 184.669362 
L 350.412503 184.391872 
L 350.603865 184.565303 
L 350.802788 184.495931 
L 350.998901 184.149068 
L 351.198455 184.149068 
L 351.598046 183.559401 
L 351.796638 183.490029 
L 351.993427 183.66346 
L 352.186067 183.212539 
L 352.38732 183.247225 
L 353.378735 182.171951 
L 353.578515 182.171951 
L 353.776671 181.89446 
L 353.975429 181.963833 
L 354.167769 181.825088 
L 354.370946 182.067892 
L 354.773663 181.512911 
L 355.287174 181.512911 
L 355.710003 181.096676 
L 355.906942 180.749814 
L 356.272607 180.645755 
L 358.160468 179.188931 
L 358.362293 179.154245 
L 358.56583 178.772696 
L 358.960385 178.633951 
L 359.155776 178.391147 
L 359.359614 178.46052 
L 359.566083 178.148343 
L 359.976406 178.078971 
L 360.776157 177.177128 
L 360.976057 177.385245 
L 361.580598 176.483402 
L 362.179202 176.275285 
L 362.909223 175.928422 
L 363.449265 175.304069 
L 364.279906 174.64503 
L 364.998564 174.402226 
L 365.575913 173.465697 
L 365.927373 173.222893 
L 367.20124 171.835442 
L 367.430616 171.835442 
L 367.631403 171.245776 
L 367.828974 171.384521 
L 368.016999 170.898913 
L 368.411584 170.82954 
L 368.803223 170.378619 
L 369.196951 170.205188 
L 369.864623 169.684894 
L 370.083793 169.129913 
L 370.303234 169.164599 
L 370.514798 168.713678 
L 370.738388 168.783051 
L 371.423361 168.401502 
L 371.866677 167.638404 
L 372.839798 166.875306 
L 373.088355 166.909992 
L 373.317611 166.736561 
L 373.53609 166.424384 
L 373.737132 166.701874 
L 373.939257 166.355012 
L 374.135385 166.528443 
L 374.33037 166.18158 
L 374.537816 166.250953 
L 374.968701 165.487855 
L 375.183091 165.453169 
L 375.395918 164.967561 
L 375.616351 165.036933 
L 375.827224 164.655384 
L 376.030627 164.690071 
L 376.448029 164.100404 
L 376.655144 163.996345 
L 377.271064 163.371992 
L 377.676231 163.059816 
L 377.886758 162.817012 
L 378.090927 162.886385 
L 378.285536 162.782326 
L 379.083048 161.915169 
L 379.277823 161.949855 
L 379.468809 161.672365 
L 379.660337 161.186757 
L 379.848664 161.186757 
L 380.797886 160.284914 
L 381.007255 160.319601 
L 381.619492 159.348385 
L 381.812193 159.625875 
L 382.00608 159.556503 
L 382.56192 158.862777 
L 382.745391 158.828091 
L 383.703437 157.822189 
L 383.889779 157.856876 
L 384.261516 157.267209 
L 384.447332 157.371268 
L 385.001593 156.60817 
L 385.370971 156.538797 
L 385.556907 156.157248 
L 385.742107 156.191935 
L 386.117557 156.087876 
L 386.309085 155.463523 
L 386.50192 155.636954 
L 386.685572 155.532895 
L 386.872154 155.151347 
L 387.247935 155.012601 
L 387.439328 155.11666 
L 387.624632 154.665739 
L 387.810118 154.526994 
L 387.998083 154.214817 
L 388.183764 154.457621 
L 388.554554 154.076072 
L 388.738687 154.110758 
L 388.932635 153.867955 
L 389.127244 153.867955 
L 389.503942 153.382347 
L 389.691065 153.382347 
L 389.876581 153.035484 
L 390.062397 153.07017 
L 390.433007 152.619249 
L 390.62001 152.584563 
L 390.991868 152.168327 
L 391.176466 152.272386 
L 391.360508 152.2377 
L 392.119195 151.058367 
L 392.306063 150.815563 
L 392.673862 150.74619 
L 392.858626 150.572759 
L 393.042022 150.607445 
L 393.227101 150.121837 
L 393.411925 150.399328 
L 393.596178 150.017779 
L 393.783046 150.156524 
L 393.968546 149.983092 
L 394.153746 149.532171 
L 394.336315 149.63623 
L 394.529632 149.219994 
L 394.717763 149.115936 
L 395.092221 149.358739 
L 395.654058 148.595642 
L 396.022368 148.456896 
L 396.206861 148.456896 
L 396.390813 147.936602 
L 396.575502 148.040661 
L 396.758868 147.555053 
L 397.128802 147.659112 
L 397.577318 147.346936 
L 397.819276 146.826642 
L 398.035801 146.687897 
L 398.232905 146.896014 
L 398.685871 146.514465 
L 398.945551 146.445093 
L 399.171816 146.132916 
L 399.375579 146.09823 
L 399.593336 145.751367 
L 400.285103 145.612622 
L 400.737378 145.022956 
L 400.951002 144.988269 
L 401.153322 144.398603 
L 401.348262 144.572034 
L 401.54003 144.086426 
L 401.72983 144.155799 
L 402.167163 143.912995 
L 402.590593 144.05174 
L 402.817985 143.704878 
L 403.062468 143.566132 
L 403.268802 143.600819 
L 403.505408 143.323329 
L 403.730817 143.288642 
L 403.932776 142.803035 
L 404.519234 142.594917 
L 404.742478 142.594917 
L 405.146217 142.143995 
L 405.719839 141.797133 
L 405.909022 141.589015 
L 406.107434 141.554329 
L 406.295354 141.103407 
L 406.488761 141.276839 
L 406.893837 141.276839 
L 407.117322 140.756545 
L 407.331532 140.929976 
L 407.576375 140.513741 
L 408.896824 139.854702 
L 409.173593 139.40378 
L 409.667324 139.160976 
L 409.899812 139.091604 
L 410.33674 138.397878 
L 410.537662 138.432565 
L 410.952599 137.842898 
L 411.14575 138.120388 
L 411.339533 137.600094 
L 411.530129 137.496035 
L 411.717884 137.0798 
L 412.119924 136.871682 
L 412.321779 136.490133 
L 412.513923 136.420761 
L 413.083591 135.935153 
L 413.273841 135.831094 
L 413.649697 135.380173 
L 413.842653 135.3108 
L 414.029656 135.067996 
L 414.21645 135.172055 
L 414.403648 134.998624 
L 414.588502 135.067996 
L 415.344844 134.408957 
L 415.529111 134.374271 
L 415.900548 133.680546 
L 416.083839 133.715232 
L 416.269475 133.611173 
L 416.453111 133.125565 
L 416.637544 133.26431 
L 417.017383 132.70933 
L 417.38658 132.293095 
L 417.571554 132.605271 
L 418.159877 131.668742 
L 418.356199 131.842173 
L 418.727516 131.391252 
L 419.846576 130.281291 
L 420.032226 129.865056 
L 420.586728 130.003801 
L 420.964673 129.483507 
L 421.149167 129.552879 
L 421.335298 129.448821 
L 421.519401 129.552879 
L 421.706209 129.171331 
L 421.890432 129.171331 
L 422.258847 128.824468 
L 422.444287 128.89384 
L 422.817347 128.546978 
L 423.005117 128.685723 
L 423.189235 128.373546 
L 423.568022 128.269488 
L 423.753206 128.442919 
L 424.327354 127.679821 
L 424.513215 127.922625 
L 424.882758 127.263586 
L 425.067747 127.367644 
L 425.252842 127.055468 
L 425.438763 127.124841 
L 425.626067 126.777978 
L 425.995715 126.743292 
L 426.18341 126.188311 
L 426.374502 126.29237 
L 426.565789 125.910821 
L 426.749471 126.118939 
L 427.857633 124.904919 
L 428.226935 125.008978 
L 428.411804 125.008978 
L 428.602114 124.766174 
L 428.787555 124.974292 
L 428.975295 124.453998 
L 429.169679 124.384625 
L 429.363611 124.488684 
L 429.549262 124.107135 
L 429.923675 124.211194 
L 430.112572 124.003076 
L 430.297937 123.621527 
L 430.483844 123.586841 
L 430.670967 123.725586 
L 431.04762 123.344037 
L 431.232579 123.378723 
L 431.419192 122.997175 
L 431.604467 122.927802 
L 431.790703 123.101233 
L 432.375057 122.338135 
L 432.576987 122.338135 
L 432.7688 121.852528 
L 432.956676 121.991273 
L 433.1441 121.64441 
L 433.332261 121.713783 
L 433.892219 121.08943 
L 434.624616 120.846626 
L 434.80977 120.673194 
L 434.994143 120.256959 
L 435.198493 120.326332 
L 435.600293 119.910097 
L 435.797622 120.083528 
L 435.987858 119.806038 
L 436.176469 119.736665 
L 436.364585 119.493861 
L 436.748287 119.59792 
L 437.123181 119.181685 
L 437.314363 119.146999 
L 437.501337 118.76545 
L 437.872127 118.834822 
L 438.84125 117.516744 
L 439.03846 117.655489 
L 439.234016 117.655489 
L 440.166388 116.545528 
L 440.356548 116.788332 
L 440.727504 116.268038 
L 440.913109 116.268038 
L 441.096776 115.886489 
L 441.281585 115.886489 
L 441.466875 115.643685 
L 441.650286 115.608999 
L 442.036468 115.123391 
L 442.221863 114.984646 
L 442.411151 115.158078 
L 442.789548 114.707156 
L 443.349401 114.603097 
L 443.721859 114.013431 
L 444.652352 113.111588 
L 445.205547 112.660666 
L 445.391092 112.799411 
L 445.585746 112.591294 
L 445.781949 112.105686 
L 445.973312 112.175058 
L 446.165681 111.724137 
L 446.729397 111.654764 
L 447.105524 111.41196 
L 447.483784 111.169157 
L 447.670051 110.85698 
L 448.231513 110.475431 
L 448.416562 110.093882 
L 448.602964 110.02451 
L 448.78621 110.128568 
L 448.98357 109.851078 
L 449.373555 109.816392 
L 449.565639 109.330784 
L 449.754958 109.434843 
L 449.943239 109.261412 
L 450.131039 108.879863 
L 450.319966 108.775804 
L 450.509224 108.394255 
L 450.69743 108.567686 
L 450.886027 108.359569 
L 451.072835 107.943333 
L 451.26035 108.220824 
L 451.637408 107.769902 
L 451.822713 107.943333 
L 452.389195 107.249608 
L 452.573327 107.492412 
L 452.758768 107.110863 
L 452.943952 107.180236 
L 453.496801 106.868059 
L 453.686194 106.451824 
L 453.870643 106.764 
L 454.056233 106.590569 
L 454.242124 106.659941 
L 454.611441 106.139647 
L 454.99122 106.174334 
L 455.177442 105.792785 
L 455.737987 105.688726 
L 455.923953 105.341863 
L 456.111347 105.376549 
L 456.481025 104.960314 
L 456.668555 105.168432 
L 456.851605 105.064373 
L 457.603557 104.231903 
L 457.794709 104.266589 
L 459.095857 103.191315 
L 459.280576 102.844452 
L 459.475666 102.879138 
L 459.661723 102.532275 
L 459.844683 102.532275 
L 460.039773 102.289471 
L 460.233406 102.428217 
L 460.422062 101.942609 
L 461.535906 101.214197 
L 461.723511 101.075452 
L 461.909072 100.659217 
L 462.094587 100.728589 
L 462.46927 100.485785 
L 462.653298 100.693903 
L 462.836769 100.242982 
L 463.027876 100.451099 
L 463.423994 99.896119 
L 464.606711 98.820845 
L 464.795743 98.924903 
L 464.987001 98.786158 
L 465.362496 99.028962 
L 465.734819 98.508668 
L 465.930255 98.439296 
L 466.492378 97.953688 
L 466.866686 97.849629 
L 467.238408 97.294649 
L 467.42478 97.46808 
L 467.611408 97.121217 
L 467.980935 97.121217 
L 468.913473 96.392806 
L 469.28772 96.531551 
L 469.473266 96.150002 
L 469.658991 96.150002 
L 470.032547 95.595021 
L 470.222121 95.907198 
L 470.408343 95.629708 
L 470.780531 95.595021 
L 470.965911 95.69908 
L 471.16019 95.386904 
L 471.717112 95.248159 
L 471.904371 94.935982 
L 472.089255 95.1441 
L 472.481841 94.727865 
L 473.22754 94.346316 
L 473.414273 93.964767 
L 473.607724 94.207571 
L 473.792774 93.791335 
L 473.980153 94.034139 
L 474.173169 93.513845 
L 474.36632 93.513845 
L 474.551355 93.687277 
L 474.736615 93.132296 
L 474.924761 93.09761 
L 475.112921 92.82012 
L 475.298031 93.028237 
L 475.668415 92.993551 
L 475.854457 92.612002 
L 476.03889 92.577316 
L 476.409214 92.057022 
L 476.595015 92.091708 
L 476.781403 91.918277 
L 476.975456 91.571414 
L 477.169479 91.6061 
L 477.556307 91.120493 
L 477.747294 91.155179 
L 477.937304 90.947061 
L 478.128621 90.947061 
L 478.317428 90.634885 
L 478.69369 90.49614 
L 479.447326 90.149277 
L 479.819619 89.975846 
L 480.195911 89.386179 
L 480.387108 89.698356 
L 480.580304 89.559611 
L 480.773095 89.074003 
L 481.348671 89.143375 
L 481.53874 88.831199 
L 481.725909 88.935258 
L 481.91622 88.692454 
L 482.290362 88.623081 
L 482.4772 88.206846 
L 483.804532 87.825297 
L 483.996135 87.443748 
L 484.187408 87.339689 
L 484.381025 87.062199 
L 484.754596 87.270317 
L 485.137937 86.888768 
L 485.323633 86.888768 
L 485.509164 86.611278 
L 485.880871 86.576591 
L 486.441205 86.368474 
L 486.637422 88.796513 
L 486.823284 88.935258 
L 487.010648 88.831199 
L 487.198734 88.935258 
L 487.384069 88.414964 
L 487.574574 88.553709 
L 488.166684 87.825297 
L 488.54499 88.033415 
L 488.733903 87.651866 
L 489.280303 87.617179 
L 489.479121 87.478434 
L 489.678886 87.513121 
L 489.879327 87.096885 
L 490.077724 87.131572 
L 490.275235 86.819395 
L 490.674013 86.888768 
L 491.072641 86.472533 
L 491.266454 86.611278 
L 491.469902 86.472533 
L 491.875369 86.333787 
L 492.67491 85.536003 
L 493.627378 85.293199 
L 494.232641 84.91165 
L 494.435442 85.015709 
L 495.02874 84.703533 
L 495.227573 84.426043 
L 495.984966 84.148552 
L 496.184566 83.628258 
L 496.386931 83.697631 
L 496.584682 83.454827 
L 496.781636 83.628258 
L 496.984994 83.628258 
L 498.18671 82.657043 
L 498.779466 82.275494 
L 498.983636 82.067376 
L 499.182303 82.102063 
L 499.383211 82.275494 
L 499.584464 82.03269 
L 499.783973 82.03269 
L 499.986429 81.859259 
L 500.188148 81.963317 
L 501.016248 81.165533 
L 501.42364 81.20022 
L 501.832474 80.888043 
L 502.245818 80.922729 
L 502.444831 80.54118 
L 502.655704 80.783984 
L 502.852057 80.749298 
L 503.047162 80.437122 
L 503.249903 80.402435 
L 503.453877 80.506494 
L 503.85718 80.298377 
L 504.061109 80.506494 
L 504.463765 79.951514 
L 504.66326 80.194318 
L 505.068111 80.055573 
L 505.2698 79.639337 
L 505.468843 79.847455 
L 505.871935 79.535279 
L 506.072181 79.396533 
L 506.276546 79.500592 
L 506.474222 79.396533 
L 506.676001 79.535279 
L 507.072765 79.535279 
L 507.271177 79.188416 
L 507.4698 79.465906 
L 507.871239 79.223102 
L 508.3002 78.841553 
L 508.685991 79.15373 
L 508.886478 79.084357 
L 509.08489 78.772181 
L 509.677932 78.945612 
L 510.081896 78.564063 
L 510.501718 78.702808 
L 510.705241 78.460004 
L 510.907862 78.598749 
L 511.104651 78.425318 
L 511.303078 78.633436 
L 511.698925 78.251887 
L 512.102364 78.425318 
L 512.509154 78.113142 
L 512.702425 78.321259 
L 512.904745 78.043769 
L 513.105442 78.321259 
L 513.311024 78.147828 
L 513.51082 78.251887 
L 513.906832 77.731593 
L 514.306302 78.043769 
L 514.507134 77.93971 
L 514.70251 77.592847 
L 514.902501 77.766279 
L 515.097967 77.523475 
L 515.298919 77.66222 
L 515.502006 77.523475 
L 515.698614 77.66222 
L 515.887527 77.245985 
L 516.078739 77.211299 
L 516.475684 77.523475 
L 516.672863 77.176612 
L 516.874763 77.211299 
L 517.079233 77.38473 
L 517.476327 77.003181 
L 517.674484 77.350044 
L 518.072301 77.037867 
L 518.273178 77.176612 
L 518.472928 76.795063 
L 518.883461 77.141926 
L 519.08784 76.864436 
L 519.286027 76.968495 
L 519.481238 76.933808 
L 519.678477 77.072553 
L 519.884991 77.037867 
L 520.084771 76.621632 
L 520.285258 76.82975 
L 520.486075 76.586946 
L 521.293537 76.760377 
L 521.494189 76.482887 
L 522.085653 76.552259 
L 522.283223 76.205397 
L 522.473669 76.413514 
L 522.668083 76.448201 
L 522.871455 76.101338 
L 523.062998 76.274769 
L 523.291608 76.066652 
L 523.494635 76.17071 
L 523.89164 75.997279 
L 524.092517 76.205397 
L 524.486651 75.858534 
L 525.300396 75.823848 
L 525.498072 75.962593 
L 525.700392 75.962593 
L 525.899917 75.719789 
L 526.294907 76.031965 
L 526.488269 75.789161 
L 527.08585 75.546358 
L 527.28061 75.719789 
L 527.483727 75.442299 
L 527.685626 75.546358 
L 527.883227 75.407612 
L 529.88262 75.442299 
L 530.08001 75.164809 
L 530.478533 75.268867 
L 530.68401 75.095436 
L 530.877778 75.33824 
L 531.076626 75.33824 
L 531.714266 75.06075 
L 532.117373 74.956691 
L 532.736629 74.852632 
L 532.939716 74.540456 
L 533.142773 74.922005 
L 533.534637 74.644515 
L 533.734117 74.713887 
L 533.936181 74.505769 
L 534.324288 74.679201 
L 534.523121 74.575142 
L 534.719368 74.679201 
L 535.120882 74.332338 
L 535.317746 74.471083 
L 535.719035 74.089534 
L 535.925504 74.436397 
L 536.922134 73.881417 
L 537.318162 74.12422 
L 537.732107 73.777358 
L 537.929512 73.985475 
L 538.329012 73.950789 
L 538.730827 73.638613 
L 538.938393 73.742672 
L 539.535989 73.638613 
L 539.741662 73.742672 
L 539.943366 73.534554 
L 540.148527 73.638613 
L 540.549455 73.603926 
L 540.740502 73.673299 
L 541.144676 73.222377 
L 541.344471 73.534554 
L 541.544236 73.638613 
L 541.743445 73.257064 
L 541.942849 73.222377 
L 542.139864 73.361123 
L 542.340591 73.01426 
L 542.541197 73.222377 
L 543.141875 73.257064 
L 543.342091 73.083632 
L 543.734542 73.048946 
L 544.120423 72.840829 
L 544.323179 73.01426 
L 544.523982 73.01426 
L 544.723581 72.875515 
L 544.923602 72.979574 
L 545.123397 72.944887 
L 545.320937 72.598025 
L 545.727216 72.702083 
L 545.929146 72.875515 
L 546.529117 72.771456 
L 546.725004 72.771456 
L 546.924634 72.389907 
L 547.12267 72.45928 
L 547.329545 72.285848 
L 547.52456 72.493966 
L 548.114776 72.112417 
L 548.31155 72.216476 
L 548.507647 72.077731 
L 548.713755 72.077731 
L 548.911176 72.251162 
L 549.31051 72.043044 
L 549.935268 71.973672 
L 550.332694 72.251162 
L 550.728631 71.765554 
L 551.136353 72.008358 
L 551.53429 71.904299 
L 551.735227 71.904299 
L 551.936135 71.730868 
L 552.129136 71.973672 
L 552.53065 71.696182 
L 552.728325 71.661495 
L 552.928586 71.973672 
L 553.913988 71.730868 
L 554.112401 71.418691 
L 554.31173 71.52275 
L 554.514937 71.384005 
L 554.713078 71.592123 
L 554.908635 71.52275 
L 555.319573 71.592123 
L 555.521578 71.557437 
L 555.721027 71.384005 
L 556.315993 71.349319 
L 556.512451 71.141201 
L 556.717132 71.279946 
L 556.923405 71.106515 
L 557.125485 71.384005 
L 557.320545 71.314633 
L 557.527059 71.384005 
L 558.136515 71.071829 
L 558.360676 71.24526 
L 558.57702 70.96777 
L 559.386091 71.141201 
L 559.784464 71.175888 
L 559.984635 70.933084 
L 560.187391 71.141201 
L 560.583509 71.002456 
L 560.783995 71.106515 
L 560.981596 70.863711 
L 561.388626 70.829025 
L 561.783647 70.863711 
L 561.982796 70.794339 
L 562.184515 70.482162 
L 562.390578 70.829025 
L 562.591335 70.620907 
L 562.792873 70.724966 
L 562.995028 70.620907 
L 563.19789 70.794339 
L 563.409319 70.586221 
L 564.216105 70.586221 
L 564.419192 70.308731 
L 564.619573 70.551535 
L 565.017119 70.308731 
L 565.218042 70.482162 
L 565.419235 70.239358 
L 565.8261 70.41279 
L 566.021476 70.169986 
L 566.423305 70.239358 
L 566.623115 70.065927 
L 566.821032 70.065927 
L 567.222921 69.892496 
L 567.615868 69.753751 
L 567.821285 70.065927 
L 568.226286 69.892496 
L 568.431793 70.100613 
L 568.626117 69.649692 
L 568.822755 69.788437 
L 569.022655 70.065927 
L 569.225276 69.684378 
L 569.429686 69.927182 
L 569.625407 69.684378 
L 569.825157 69.857809 
L 570.020699 69.753751 
L 570.217578 69.892496 
L 570.420244 69.857809 
L 570.619994 69.545633 
L 571.011542 69.788437 
L 571.201552 69.441574 
L 571.991623 69.649692 
L 572.186834 69.615005 
L 572.382104 69.719064 
L 572.779575 69.615005 
L 572.978648 69.372202 
L 573.175723 69.615005 
L 573.961631 69.580319 
L 574.163755 69.753751 
L 574.362183 69.545633 
L 574.56327 69.649692 
L 574.766553 69.406888 
L 575.401457 69.268143 
L 575.804263 69.510947 
L 576.000541 69.580319 
L 576.403558 69.233456 
L 576.606751 69.164084 
L 576.811386 69.302829 
L 577.427546 69.129398 
L 577.630287 69.337515 
L 577.832186 68.990653 
L 578.028449 69.19877 
L 578.22399 69.060025 
L 578.625324 69.302829 
L 578.829884 69.025339 
L 579.230962 68.92128 
L 579.431764 69.164084 
L 579.624269 68.886594 
L 581.24435 68.886594 
L 581.447016 68.678476 
L 582.054382 68.92128 
L 582.255726 68.747849 
L 582.460737 68.747849 
L 582.658412 68.609104 
L 582.857351 68.678476 
L 583.060422 68.539731 
L 583.857258 68.782535 
L 584.051927 68.470359 
L 584.456267 68.574417 
L 584.84753 68.539731 
L 585.251088 68.262241 
L 585.45147 68.505045 
L 585.644786 68.505045 
L 586.039912 68.331613 
L 586.435143 68.539731 
L 586.637103 68.609104 
L 586.839152 68.3663 
L 587.225756 68.470359 
L 588.038073 68.400986 
L 588.825108 68.192868 
L 589.025865 68.400986 
L 589.228095 68.123496 
L 589.429213 68.192868 
L 590.032657 68.054123 
L 590.425858 68.08881 
L 590.62388 68.192868 
L 590.821706 68.158182 
L 591.025123 67.741947 
L 591.429223 67.915378 
L 591.82955 67.846006 
L 592.225457 67.950064 
L 592.420292 67.776633 
L 592.622011 67.915378 
L 593.225229 67.707261 
L 593.829935 67.915378 
L 594.029309 67.464457 
L 594.238484 67.846006 
L 594.440774 67.568516 
L 594.635729 67.846006 
L 594.83336 67.533829 
L 595.041858 67.672574 
L 595.453262 67.464457 
L 595.850808 67.672574 
L 596.045012 67.325712 
L 596.840028 67.360398 
L 597.243061 67.117594 
L 597.448537 67.082908 
L 597.654856 67.256339 
L 597.851344 67.117594 
L 598.253204 67.256339 
L 598.46086 67.186967 
L 598.664849 66.978849 
L 599.06498 67.15228 
L 599.288299 67.221653 
L 599.6979 66.805418 
L 600.105848 67.048221 
L 600.309656 66.978849 
L 600.516366 67.082908 
L 600.916331 66.944163 
L 601.123326 66.944163 
L 601.321784 66.770731 
L 601.521158 66.944163 
L 601.724064 66.805418 
L 601.915622 66.978849 
L 602.110292 66.87479 
L 602.311966 66.909476 
L 602.505854 66.805418 
L 602.709752 66.87479 
L 603.107313 66.666673 
L 603.5417 66.944163 
L 603.733664 66.770731 
L 604.129993 66.840104 
L 604.330118 66.631986 
L 604.529838 66.840104 
L 604.730024 66.423869 
L 604.928346 66.87479 
L 605.125556 66.493241 
L 605.327981 66.770731 
L 605.527506 66.458555 
L 605.72951 66.631986 
L 606.121825 66.493241 
L 606.319005 66.5973 
L 606.719587 66.215751 
L 606.917714 66.493241 
L 607.311141 66.285124 
L 607.532626 66.493241 
L 607.728002 66.389182 
L 607.93656 66.493241 
L 608.14354 66.285124 
L 608.342884 66.31981 
L 608.549008 66.146378 
L 608.744804 66.389182 
L 609.341364 66.007633 
L 609.542001 66.181065 
L 609.743434 66.077006 
L 609.943439 66.31981 
L 610.142363 65.938261 
L 610.340625 66.111692 
L 610.542238 66.007633 
L 610.742995 66.077006 
L 610.963534 65.868888 
L 611.165659 66.077006 
L 611.576522 65.730143 
L 611.780526 66.007633 
L 611.983989 65.868888 
L 613.79441 65.972947 
L 613.99428 65.730143 
L 614.187461 66.007633 
L 614.391796 65.799516 
L 614.803952 65.972947 
L 615.000605 65.730143 
L 615.20276 65.660771 
L 615.413573 65.834202 
L 615.816666 65.556712 
L 616.405664 65.556712 
L 616.606541 65.452653 
L 616.802714 65.591398 
L 617.007364 65.348594 
L 617.402039 65.626084 
L 617.599023 65.279222 
L 617.793858 65.348594 
L 617.988798 65.175163 
L 618.190081 65.417967 
L 618.392702 65.209849 
L 618.596105 65.313908 
L 618.790458 65.10579 
L 618.985714 65.313908 
L 619.185885 65.036418 
L 619.377728 65.244535 
L 619.783406 65.279222 
L 619.987079 65.001732 
L 620.190031 65.140477 
L 620.393509 65.140477 
L 620.593619 65.383281 
L 620.795744 65.071104 
L 620.990849 65.279222 
L 621.596142 64.932359 
L 621.787354 65.140477 
L 621.987164 64.967045 
L 622.378833 65.071104 
L 622.577125 64.793614 
L 622.769645 65.10579 
L 623.359094 64.862986 
L 623.562512 65.209849 
L 623.765073 64.967045 
L 623.962448 64.967045 
L 624.165129 65.140477 
L 624.566943 64.862986 
L 624.961663 64.897673 
L 625.362606 64.932359 
L 625.758138 64.724241 
L 626.771573 64.967045 
L 626.972436 64.654869 
L 627.180212 64.793614 
L 627.383074 64.620183 
L 627.584988 64.8283 
L 627.782303 64.689555 
L 628.183727 64.793614 
L 628.777791 64.55081 
L 628.975888 64.8283 
L 629.174676 64.620183 
L 629.574927 64.689555 
L 629.77143 64.481438 
L 630.172809 64.724241 
L 630.370936 64.446751 
L 630.970682 64.481438 
L 631.169545 64.412065 
L 631.372692 64.481438 
L 631.576741 64.412065 
L 631.774266 64.620183 
L 632.177854 64.585496 
L 632.368811 64.377379 
L 632.765004 64.446751 
L 633.5838 64.203947 
L 633.782603 63.99583 
L 634.174332 64.203947 
L 634.571442 64.030516 
L 634.781849 64.134575 
L 634.996525 64.065202 
L 635.199131 64.308006 
L 635.40103 63.857085 
L 635.59821 64.065202 
L 636.79949 63.926457 
L 636.99661 63.99583 
L 637.195398 63.857085 
L 637.395644 63.961143 
L 638.000606 63.683653 
L 638.401098 63.926457 
L 638.602396 63.71834 
L 639.202593 63.683653 
L 639.396646 63.857085 
L 639.598771 63.579595 
L 639.799603 63.891771 
L 640.001953 63.857085 
L 640.196638 63.683653 
L 640.403242 63.648967 
L 640.605667 63.857085 
L 641.412859 63.544908 
L 641.804363 63.71834 
L 642.00527 63.440849 
L 642.20986 63.683653 
L 642.603738 63.371477 
L 643.003809 63.71834 
L 643.204566 63.71834 
L 643.400784 63.475536 
L 643.599828 63.510222 
L 643.802133 63.371477 
L 643.998666 63.648967 
L 644.400676 63.302104 
L 644.59258 63.648967 
L 644.794885 63.371477 
L 644.993778 63.614281 
L 645.190267 63.232732 
L 645.580146 63.683653 
L 645.79147 63.475536 
L 646.199117 63.510222 
L 646.783997 63.302104 
L 647.187751 63.371477 
L 647.385261 63.302104 
L 647.592843 63.440849 
L 647.793104 63.336791 
L 648.188575 63.475536 
L 648.391752 63.232732 
L 648.798798 63.128673 
L 649.004726 63.406163 
L 649.198929 63.024614 
L 649.391915 63.302104 
L 649.588508 63.336791 
L 649.978884 63.163359 
L 650.180138 63.406163 
L 650.38569 63.302104 
L 650.583876 63.336791 
L 650.78531 63.093987 
L 650.990757 63.267418 
L 651.192506 63.093987 
L 651.788464 63.302104 
L 651.983253 63.232732 
L 652.184521 62.920555 
L 652.581601 62.885869 
L 652.782043 63.0593 
L 653.184023 62.885869 
L 653.377971 63.024614 
L 653.581719 62.885869 
L 653.787496 62.989928 
L 654.187072 62.851183 
L 654.39324 63.0593 
L 654.59054 62.851183 
L 656.040482 62.747124 
L 656.251791 62.608379 
L 656.661662 62.885869 
L 656.886454 62.78181 
L 657.092998 62.851183 
L 657.301241 62.50432 
L 657.53663 62.816497 
L 658.213606 62.747124 
L 658.422375 62.573693 
L 658.624425 62.712438 
L 658.81962 62.573693 
L 659.015402 62.712438 
L 659.217843 62.539006 
L 659.416585 62.747124 
L 659.81132 62.712438 
L 660.211707 62.434948 
L 660.411277 62.608379 
L 660.611868 62.50432 
L 661.011474 62.712438 
L 661.20458 62.50432 
L 661.395386 62.608379 
L 661.596519 62.365575 
L 661.796164 62.50432 
L 661.994997 62.434948 
L 662.194777 62.157457 
L 662.398044 62.434948 
L 662.804954 62.088085 
L 662.998481 62.261516 
L 663.189859 62.088085 
L 663.598498 62.296203 
L 663.990843 61.914654 
L 664.191645 62.22683 
L 664.393304 62.018712 
L 664.586996 61.984026 
L 664.787107 62.157457 
L 665.388912 61.879967 
L 665.783798 62.053399 
L 665.976002 62.053399 
L 666.17736 61.706536 
L 666.379139 61.845281 
L 666.576845 61.602477 
L 666.772822 61.845281 
L 667.172803 61.741222 
L 667.379768 61.463732 
L 667.783432 61.845281 
L 667.979394 61.498418 
L 668.78376 61.810595 
L 669.18353 61.463732 
L 669.382995 61.67185 
L 669.589945 61.67185 
L 669.796323 61.429046 
L 671.025487 61.359673 
L 671.436065 61.186242 
L 671.639873 61.533105 
L 671.837083 61.290301 
L 672.037509 61.290301 
L 672.246609 61.498418 
L 672.447275 61.151556 
L 672.8513 61.39436 
L 673.25349 61.186242 
L 673.454127 61.324987 
L 673.656072 61.186242 
L 673.864976 61.324987 
L 674.465518 61.151556 
L 674.660293 61.012811 
L 674.854181 61.082183 
L 675.66241 60.908752 
L 676.482002 60.804693 
L 676.68802 61.116869 
L 677.097711 60.908752 
L 677.507297 60.839379 
L 677.705289 60.943438 
L 677.902573 60.908752 
L 678.111853 60.665948 
L 678.314294 60.978124 
L 678.513518 61.012811 
L 678.925569 60.804693 
L 679.724298 61.012811 
L 679.92256 60.978124 
L 680.323728 60.596575 
L 680.521329 60.874065 
L 680.722221 60.596575 
L 680.918003 60.908752 
L 681.328505 60.527203 
L 681.523866 60.700634 
L 681.731703 60.561889 
L 681.93243 60.700634 
L 682.139861 60.527203 
L 682.332381 60.665948 
L 682.731189 60.215026 
L 682.928354 60.492517 
L 683.127262 60.561889 
L 683.529498 60.284399 
L 684.323312 60.492517 
L 684.520176 60.215026 
L 684.719204 60.492517 
L 685.10471 60.45783 
L 685.302536 60.18034 
L 685.497521 60.492517 
L 685.701841 60.145654 
L 685.898359 60.145654 
L 686.095493 60.319085 
L 686.489567 60.18034 
L 686.890089 60.006909 
L 687.089749 60.249713 
L 687.479869 60.006909 
L 688.274961 60.076281 
L 688.476289 60.006909 
L 688.674611 60.145654 
L 688.872603 60.145654 
L 689.069166 59.90285 
L 689.270179 60.006909 
L 689.473716 59.798791 
L 689.668266 60.110968 
L 689.855585 59.972222 
L 690.058882 60.18034 
L 690.459194 59.868164 
L 690.651157 59.868164 
L 690.853748 59.694732 
L 691.251099 59.937536 
L 691.44679 59.937536 
L 691.653244 59.555987 
L 691.850334 59.833477 
L 692.04362 59.694732 
L 692.244542 59.868164 
L 692.639308 59.694732 
L 693.04261 59.729419 
L 693.239069 59.972222 
L 693.430371 59.521301 
L 693.627656 59.868164 
L 693.827992 59.62536 
L 694.227191 59.729419 
L 694.621085 59.417242 
L 695.01349 59.798791 
L 695.212864 59.451928 
L 695.418401 59.486615 
L 695.817871 59.729419 
L 696.213838 59.764105 
L 696.40959 59.590673 
L 696.602741 59.660046 
L 696.803408 59.313183 
L 697.192972 59.486615 
L 697.387356 59.313183 
L 698.601038 59.278497 
L 698.802366 59.139752 
L 699.004716 59.382556 
L 699.40393 59.243811 
L 699.800635 59.313183 
L 700.006562 59.174438 
L 700.207996 58.896948 
L 700.607631 59.001007 
L 701.006755 58.792889 
L 701.200778 59.070379 
L 701.405038 58.896948 
L 701.9959 58.827576 
L 702.196642 59.105066 
L 702.401758 58.827576 
L 702.994064 58.966321 
L 703.193363 58.68883 
L 703.395427 58.619458 
L 703.598289 58.723517 
L 703.996541 58.68883 
L 704.202349 58.827576 
L 704.407089 58.619458 
L 704.608838 58.584772 
L 704.803462 58.896948 
L 705.005768 58.619458 
L 705.405027 58.792889 
L 706.207259 58.307282 
L 706.600025 58.515399 
L 706.802901 58.446027 
L 707.007055 58.619458 
L 707.401114 58.446027 
L 707.60127 58.584772 
L 708.392453 58.272595 
L 708.59061 58.619458 
L 708.791998 58.584772 
L 708.98548 58.272595 
L 709.389971 58.619458 
L 709.589134 58.41134 
L 709.792852 58.515399 
L 710.187227 58.168536 
L 710.589703 58.584772 
L 711.204705 58.376654 
L 711.395572 58.41134 
L 711.651854 58.307282 
L 711.848478 58.584772 
L 712.048513 58.203223 
L 712.247527 58.480713 
L 712.850309 58.099164 
L 713.251778 58.272595 
L 714.23449 58.168536 
L 714.631149 58.203223 
L 715.230474 57.995105 
L 715.430284 57.960419 
L 715.826507 58.203223 
L 716.0231 58.13385 
L 716.229569 58.272595 
L 716.82207 58.029791 
L 717.018438 58.272595 
L 717.225418 58.237909 
L 717.62612 57.925733 
L 717.823556 58.099164 
L 718.43967 57.925733 
L 718.63661 57.752301 
L 718.838855 58.099164 
L 719.044467 58.099164 
L 719.246968 57.752301 
L 719.45252 58.064478 
L 720.327698 57.682929 
L 720.72108 58.13385 
L 720.921025 57.925733 
L 721.117498 58.064478 
L 721.316151 57.891046 
L 722.121705 58.099164 
L 722.318042 57.682929 
L 722.721285 57.995105 
L 722.923635 57.752301 
L 723.119162 57.786987 
L 723.319257 57.544184 
L 723.517835 57.57887 
L 723.716488 57.85636 
L 723.909939 57.717615 
L 724.110155 57.821674 
L 724.325583 57.648242 
L 724.54325 57.682929 
L 724.754469 57.509497 
L 724.970723 57.544184 
L 725.1857 57.717615 
L 725.411965 57.474811 
L 725.824782 57.57887 
L 726.02802 57.405439 
L 726.228281 57.613556 
L 726.430451 57.509497 
L 726.630125 57.232007 
L 726.825922 57.30138 
L 727.022365 57.57887 
L 727.221769 57.336066 
L 727.426059 57.613556 
L 727.622352 57.162635 
L 728.433512 57.474811 
L 728.63233 57.266693 
L 729.235398 57.197321 
L 729.434201 57.093262 
L 729.631576 57.336066 
L 730.021245 57.162635 
L 730.219868 57.232007 
L 730.416551 57.02389 
L 731.013291 57.02389 
L 731.211117 56.919831 
L 731.420923 57.232007 
L 731.626264 56.954517 
L 732.022172 57.197321 
L 732.425024 56.885144 
L 732.628847 57.162635 
L 733.035863 56.919831 
L 733.642673 56.954517 
L 733.843506 56.781086 
L 734.039197 56.989203 
L 734.435796 56.850458 
L 734.642746 56.850458 
L 734.839069 56.642341 
L 735.044696 56.815772 
L 735.245092 56.677027 
L 735.446285 56.815772 
L 735.644096 56.572968 
L 735.844342 56.503595 
L 736.041777 56.885144 
L 736.244173 56.885144 
L 736.441548 56.503595 
L 736.641794 56.607654 
L 736.849811 56.468909 
L 737.238022 56.642341 
L 737.440373 56.468909 
L 737.634381 56.642341 
L 738.037082 56.226105 
L 738.445796 56.503595 
L 738.850768 56.226105 
L 739.053659 56.503595 
L 739.254476 56.260792 
L 739.451656 56.538282 
L 739.863707 56.572968 
L 740.066644 56.260792 
L 740.261944 56.503595 
L 740.664255 56.503595 
L 741.076607 56.226105 
L 741.487831 56.330164 
L 741.722994 56.226105 
L 741.958895 56.468909 
L 742.558956 56.122047 
L 742.750003 56.295478 
L 742.9458 56.122047 
L 743.148421 56.468909 
L 743.541412 56.260792 
L 743.738592 56.434223 
L 743.933712 56.122047 
L 744.139099 56.330164 
L 744.722866 56.156733 
L 744.923338 56.295478 
L 745.330985 56.017988 
L 745.927273 55.913929 
L 746.329524 55.80987 
L 746.529575 56.122047 
L 746.726484 55.913929 
L 747.12418 56.08736 
L 747.316625 55.983301 
L 747.716275 56.08736 
L 747.915709 55.740498 
L 748.721864 55.705811 
L 749.313403 55.705811 
L 749.906189 55.705811 
L 750.094846 55.844556 
L 750.299181 55.80987 
L 750.496871 55.497694 
L 750.692488 56.017988 
L 750.692488 56.017988 
" style="fill:none;stroke:#1f77b4;stroke-linecap:square;stroke-width:1.5;"/>
            </g>
            <g id="patch_3">
                <path d="M 107.64 335.1384
L 107.64 45.1872 
" style="fill:none;stroke:#000000;stroke-linecap:square;stroke-linejoin:miter;stroke-width:0.8;"/>
            </g>
            <g id="patch_4">
                <path d="M 775.008 335.1384
L 775.008 45.1872 
" style="fill:none;stroke:#000000;stroke-linecap:square;stroke-linejoin:miter;stroke-width:0.8;"/>
            </g>
            <g id="patch_5">
                <path d="M 107.64 335.1384
L 775.008 335.1384 
" style="fill:none;stroke:#000000;stroke-linecap:square;stroke-linejoin:miter;stroke-width:0.8;"/>
            </g>
            <g id="patch_6">
                <path d="M 107.64 45.1872
L 775.008 45.1872 
" style="fill:none;stroke:#000000;stroke-linecap:square;stroke-linejoin:miter;stroke-width:0.8;"/>
            </g>
            <g id="text_21">
                <!-- Plot for 'https://redd.it/5nq244' -->
                <defs>
                    <path d="M 19.671875 64.796875
L 19.671875 37.40625 
L 32.078125 37.40625 
Q 38.96875 37.40625 42.71875 40.96875 
Q 46.484375 44.53125 46.484375 51.125 
Q 46.484375 57.671875 42.71875 61.234375 
Q 38.96875 64.796875 32.078125 64.796875 
z
M 9.8125 72.90625 
L 32.078125 72.90625 
Q 44.34375 72.90625 50.609375 67.359375 
Q 56.890625 61.8125 56.890625 51.125 
Q 56.890625 40.328125 50.609375 34.8125 
Q 44.34375 29.296875 32.078125 29.296875 
L 19.671875 29.296875 
L 19.671875 0 
L 9.8125 0 
z
" id="DejaVuSans-50"/>
                    <path d="M 9.421875 75.984375
L 18.40625 75.984375 
L 18.40625 0 
L 9.421875 0 
z
" id="DejaVuSans-6c"/>
                    <path d="M 17.921875 72.90625
L 17.921875 45.796875 
L 9.625 45.796875 
L 9.625 72.90625 
z
" id="DejaVuSans-27"/>
                    <path d="M 54.890625 33.015625
L 54.890625 0 
L 45.90625 0 
L 45.90625 32.71875 
Q 45.90625 40.484375 42.875 44.328125 
Q 39.84375 48.1875 33.796875 48.1875 
Q 26.515625 48.1875 22.3125 43.546875 
Q 18.109375 38.921875 18.109375 30.90625 
L 18.109375 0 
L 9.078125 0 
L 9.078125 75.984375 
L 18.109375 75.984375 
L 18.109375 46.1875 
Q 21.34375 51.125 25.703125 53.5625 
Q 30.078125 56 35.796875 56 
Q 45.21875 56 50.046875 50.171875 
Q 54.890625 44.34375 54.890625 33.015625 
" id="DejaVuSans-68"/>
                    <path d="M 11.71875 12.40625
L 22.015625 12.40625 
L 22.015625 0 
L 11.71875 0 
z
M 11.71875 51.703125 
L 22.015625 51.703125 
L 22.015625 39.3125 
L 11.71875 39.3125 
z
" id="DejaVuSans-3a"/>
                    <path d="M 25.390625 72.90625
L 33.6875 72.90625 
L 8.296875 -9.28125 
L 0 -9.28125 
z
" id="DejaVuSans-2f"/>
                    <path d="M 45.40625 46.390625
L 45.40625 75.984375 
L 54.390625 75.984375 
L 54.390625 0 
L 45.40625 0 
L 45.40625 8.203125 
Q 42.578125 3.328125 38.25 0.953125 
Q 33.9375 -1.421875 27.875 -1.421875 
Q 17.96875 -1.421875 11.734375 6.484375 
Q 5.515625 14.40625 5.515625 27.296875 
Q 5.515625 40.1875 11.734375 48.09375 
Q 17.96875 56 27.875 56 
Q 33.9375 56 38.25 53.625 
Q 42.578125 51.265625 45.40625 46.390625 
M 14.796875 27.296875 
Q 14.796875 17.390625 18.875 11.75 
Q 22.953125 6.109375 30.078125 6.109375 
Q 37.203125 6.109375 41.296875 11.75 
Q 45.40625 17.390625 45.40625 27.296875 
Q 45.40625 37.203125 41.296875 42.84375 
Q 37.203125 48.484375 30.078125 48.484375 
Q 22.953125 48.484375 18.875 42.84375 
Q 14.796875 37.203125 14.796875 27.296875 
" id="DejaVuSans-64"/>
                    <path d="M 10.6875 12.40625
L 21 12.40625 
L 21 0 
L 10.6875 0 
z
" id="DejaVuSans-2e"/>
                    <path d="M 14.796875 27.296875
Q 14.796875 17.390625 18.875 11.75 
Q 22.953125 6.109375 30.078125 6.109375 
Q 37.203125 6.109375 41.296875 11.75 
Q 45.40625 17.390625 45.40625 27.296875 
Q 45.40625 37.203125 41.296875 42.84375 
Q 37.203125 48.484375 30.078125 48.484375 
Q 22.953125 48.484375 18.875 42.84375 
Q 14.796875 37.203125 14.796875 27.296875 
M 45.40625 8.203125 
Q 42.578125 3.328125 38.25 0.953125 
Q 33.9375 -1.421875 27.875 -1.421875 
Q 17.96875 -1.421875 11.734375 6.484375 
Q 5.515625 14.40625 5.515625 27.296875 
Q 5.515625 40.1875 11.734375 48.09375 
Q 17.96875 56 27.875 56 
Q 33.9375 56 38.25 53.625 
Q 42.578125 51.265625 45.40625 46.390625 
L 45.40625 54.6875 
L 54.390625 54.6875 
L 54.390625 -20.796875 
L 45.40625 -20.796875 
z
" id="DejaVuSans-71"/>
                </defs>
                <g transform="translate(348.54525 41.1872)scale(0.12 -0.12)">
                    <use xlink:href="#DejaVuSans-50"/>
                    <use x="60.302734" xlink:href="#DejaVuSans-6c"/>
                    <use x="88.085938" xlink:href="#DejaVuSans-6f"/>
                    <use x="149.267578" xlink:href="#DejaVuSans-74"/>
                    <use x="188.476562" xlink:href="#DejaVuSans-20"/>
                    <use x="220.263672" xlink:href="#DejaVuSans-66"/>
                    <use x="255.46875" xlink:href="#DejaVuSans-6f"/>
                    <use x="316.650391" xlink:href="#DejaVuSans-72"/>
                    <use x="357.763672" xlink:href="#DejaVuSans-20"/>
                    <use x="389.550781" xlink:href="#DejaVuSans-27"/>
                    <use x="417.041016" xlink:href="#DejaVuSans-68"/>
                    <use x="480.419922" xlink:href="#DejaVuSans-74"/>
                    <use x="519.628906" xlink:href="#DejaVuSans-74"/>
                    <use x="558.837891" xlink:href="#DejaVuSans-70"/>
                    <use x="622.314453" xlink:href="#DejaVuSans-73"/>
                    <use x="674.414062" xlink:href="#DejaVuSans-3a"/>
                    <use x="708.105469" xlink:href="#DejaVuSans-2f"/>
                    <use x="741.796875" xlink:href="#DejaVuSans-2f"/>
                    <use x="775.488281" xlink:href="#DejaVuSans-72"/>
                    <use x="816.570312" xlink:href="#DejaVuSans-65"/>
                    <use x="878.09375" xlink:href="#DejaVuSans-64"/>
                    <use x="941.570312" xlink:href="#DejaVuSans-64"/>
                    <use x="1005.046875" xlink:href="#DejaVuSans-2e"/>
                    <use x="1036.833984" xlink:href="#DejaVuSans-69"/>
                    <use x="1064.617188" xlink:href="#DejaVuSans-74"/>
                    <use x="1103.826172" xlink:href="#DejaVuSans-2f"/>
                    <use x="1137.517578" xlink:href="#DejaVuSans-35"/>
                    <use x="1201.140625" xlink:href="#DejaVuSans-6e"/>
                    <use x="1264.519531" xlink:href="#DejaVuSans-71"/>
                    <use x="1327.996094" xlink:href="#DejaVuSans-32"/>
                    <use x="1391.619141" xlink:href="#DejaVuSans-34"/>
                    <use x="1455.242188" xlink:href="#DejaVuSans-34"/>
                    <use x="1518.865234" xlink:href="#DejaVuSans-27"/>
                </g>
            </g>
        </g>
    </g>
    <defs>
        <clipPath id="p5bbef17ecc">
            <rect height="289.9512" width="667.368" x="107.64" y="45.1872"/>
        </clipPath>
    </defs>
</svg>
