<?xml version="1.0" encoding="utf-8" standalone="no"?>
<!DOCTYPE svg PUBLIC "-//W3C//DTD SVG 1.1//EN"
        "http://www.w3.org/Graphics/SVG/1.1/DTD/svg11.dtd">
<!-- Created with matplotlib (http://matplotlib.org/) -->
<svg height="402pt" version="1.1" viewBox="0 0 1018 402" width="1018pt" xmlns="http://www.w3.org/2000/svg"
     xmlns:xlink="http://www.w3.org/1999/xlink">
    <defs>
        <style type="text/css">
            *{stroke-linecap:butt;stroke-linejoin:round;}
        </style>
    </defs>
    <g id="figure_1">
        <g id="patch_1">
            <path d="M 0 402.48
L 1018.8 402.48 
L 1018.8 0 
L 0 0 
z
" style="fill:#ffffff;"/>
        </g>
        <g id="axes_1">
            <g id="patch_2">
                <path d="M 127.35 358.2072
L 916.92 358.2072 
L 916.92 48.2976 
L 127.35 48.2976 
z
" style="fill:#ffffff;"/>
            </g>
            <g id="matplotlib.axis_1">
                <g id="xtick_1">
                    <g id="line2d_1">
                        <defs>
                            <path d="M 0 0
L 0 3.5 
" id="mf4bd339144" style="stroke:#000000;stroke-width:0.8;"/>
                        </defs>
                        <g>
                            <use style="stroke:#000000;stroke-width:0.8;" x="127.35" xlink:href="#mf4bd339144"
                                 y="358.2072"/>
                        </g>
                    </g>
                    <g id="text_1">
                        <!-- 0 -->
                        <defs>
                            <path d="M 31.78125 66.40625
Q 24.171875 66.40625 20.328125 58.90625 
Q 16.5 51.421875 16.5 36.375 
Q 16.5 21.390625 20.328125 13.890625 
Q 24.171875 6.390625 31.78125 6.390625 
Q 39.453125 6.390625 43.28125 13.890625 
Q 47.125 21.390625 47.125 36.375 
Q 47.125 51.421875 43.28125 58.90625 
Q 39.453125 66.40625 31.78125 66.40625 
M 31.78125 74.21875 
Q 44.046875 74.21875 50.515625 64.515625 
Q 56.984375 54.828125 56.984375 36.375 
Q 56.984375 17.96875 50.515625 8.265625 
Q 44.046875 -1.421875 31.78125 -1.421875 
Q 19.53125 -1.421875 13.0625 8.265625 
Q 6.59375 17.96875 6.59375 36.375 
Q 6.59375 54.828125 13.0625 64.515625 
Q 19.53125 74.21875 31.78125 74.21875 
" id="DejaVuSans-30"/>
                        </defs>
                        <g transform="translate(124.16875 372.805638)scale(0.1 -0.1)">
                            <use xlink:href="#DejaVuSans-30"/>
                        </g>
                    </g>
                </g>
                <g id="xtick_2">
                    <g id="line2d_2">
                        <g>
                            <use style="stroke:#000000;stroke-width:0.8;" x="221.927031" xlink:href="#mf4bd339144"
                                 y="358.2072"/>
                        </g>
                    </g>
                    <g id="text_2">
                        <!-- 25000 -->
                        <defs>
                            <path d="M 19.1875 8.296875
L 53.609375 8.296875 
L 53.609375 0 
L 7.328125 0 
L 7.328125 8.296875 
Q 12.9375 14.109375 22.625 23.890625 
Q 32.328125 33.6875 34.8125 36.53125 
Q 39.546875 41.84375 41.421875 45.53125 
Q 43.3125 49.21875 43.3125 52.78125 
Q 43.3125 58.59375 39.234375 62.25 
Q 35.15625 65.921875 28.609375 65.921875 
Q 23.96875 65.921875 18.8125 64.3125 
Q 13.671875 62.703125 7.8125 59.421875 
L 7.8125 69.390625 
Q 13.765625 71.78125 18.9375 73 
Q 24.125 74.21875 28.421875 74.21875 
Q 39.75 74.21875 46.484375 68.546875 
Q 53.21875 62.890625 53.21875 53.421875 
Q 53.21875 48.921875 51.53125 44.890625 
Q 49.859375 40.875 45.40625 35.40625 
Q 44.1875 33.984375 37.640625 27.21875 
Q 31.109375 20.453125 19.1875 8.296875 
" id="DejaVuSans-32"/>
                            <path d="M 10.796875 72.90625
L 49.515625 72.90625 
L 49.515625 64.59375 
L 19.828125 64.59375 
L 19.828125 46.734375 
Q 21.96875 47.46875 24.109375 47.828125 
Q 26.265625 48.1875 28.421875 48.1875 
Q 40.625 48.1875 47.75 41.5 
Q 54.890625 34.8125 54.890625 23.390625 
Q 54.890625 11.625 47.5625 5.09375 
Q 40.234375 -1.421875 26.90625 -1.421875 
Q 22.3125 -1.421875 17.546875 -0.640625 
Q 12.796875 0.140625 7.71875 1.703125 
L 7.71875 11.625 
Q 12.109375 9.234375 16.796875 8.0625 
Q 21.484375 6.890625 26.703125 6.890625 
Q 35.15625 6.890625 40.078125 11.328125 
Q 45.015625 15.765625 45.015625 23.390625 
Q 45.015625 31 40.078125 35.4375 
Q 35.15625 39.890625 26.703125 39.890625 
Q 22.75 39.890625 18.8125 39.015625 
Q 14.890625 38.140625 10.796875 36.28125 
z
" id="DejaVuSans-35"/>
                        </defs>
                        <g transform="translate(206.020781 372.805638)scale(0.1 -0.1)">
                            <use xlink:href="#DejaVuSans-32"/>
                            <use x="63.623047" xlink:href="#DejaVuSans-35"/>
                            <use x="127.246094" xlink:href="#DejaVuSans-30"/>
                            <use x="190.869141" xlink:href="#DejaVuSans-30"/>
                            <use x="254.492188" xlink:href="#DejaVuSans-30"/>
                        </g>
                    </g>
                </g>
                <g id="xtick_3">
                    <g id="line2d_3">
                        <g>
                            <use style="stroke:#000000;stroke-width:0.8;" x="316.504062" xlink:href="#mf4bd339144"
                                 y="358.2072"/>
                        </g>
                    </g>
                    <g id="text_3">
                        <!-- 50000 -->
                        <g transform="translate(300.597812 372.805638)scale(0.1 -0.1)">
                            <use xlink:href="#DejaVuSans-35"/>
                            <use x="63.623047" xlink:href="#DejaVuSans-30"/>
                            <use x="127.246094" xlink:href="#DejaVuSans-30"/>
                            <use x="190.869141" xlink:href="#DejaVuSans-30"/>
                            <use x="254.492188" xlink:href="#DejaVuSans-30"/>
                        </g>
                    </g>
                </g>
                <g id="xtick_4">
                    <g id="line2d_4">
                        <g>
                            <use style="stroke:#000000;stroke-width:0.8;" x="411.081093" xlink:href="#mf4bd339144"
                                 y="358.2072"/>
                        </g>
                    </g>
                    <g id="text_4">
                        <!-- 75000 -->
                        <defs>
                            <path d="M 8.203125 72.90625
L 55.078125 72.90625 
L 55.078125 68.703125 
L 28.609375 0 
L 18.3125 0 
L 43.21875 64.59375 
L 8.203125 64.59375 
z
" id="DejaVuSans-37"/>
                        </defs>
                        <g transform="translate(395.174843 372.805638)scale(0.1 -0.1)">
                            <use xlink:href="#DejaVuSans-37"/>
                            <use x="63.623047" xlink:href="#DejaVuSans-35"/>
                            <use x="127.246094" xlink:href="#DejaVuSans-30"/>
                            <use x="190.869141" xlink:href="#DejaVuSans-30"/>
                            <use x="254.492188" xlink:href="#DejaVuSans-30"/>
                        </g>
                    </g>
                </g>
                <g id="xtick_5">
                    <g id="line2d_5">
                        <g>
                            <use style="stroke:#000000;stroke-width:0.8;" x="505.658124" xlink:href="#mf4bd339144"
                                 y="358.2072"/>
                        </g>
                    </g>
                    <g id="text_5">
                        <!-- 100000 -->
                        <defs>
                            <path d="M 12.40625 8.296875
L 28.515625 8.296875 
L 28.515625 63.921875 
L 10.984375 60.40625 
L 10.984375 69.390625 
L 28.421875 72.90625 
L 38.28125 72.90625 
L 38.28125 8.296875 
L 54.390625 8.296875 
L 54.390625 0 
L 12.40625 0 
z
" id="DejaVuSans-31"/>
                        </defs>
                        <g transform="translate(486.570624 372.805638)scale(0.1 -0.1)">
                            <use xlink:href="#DejaVuSans-31"/>
                            <use x="63.623047" xlink:href="#DejaVuSans-30"/>
                            <use x="127.246094" xlink:href="#DejaVuSans-30"/>
                            <use x="190.869141" xlink:href="#DejaVuSans-30"/>
                            <use x="254.492188" xlink:href="#DejaVuSans-30"/>
                            <use x="318.115234" xlink:href="#DejaVuSans-30"/>
                        </g>
                    </g>
                </g>
                <g id="xtick_6">
                    <g id="line2d_6">
                        <g>
                            <use style="stroke:#000000;stroke-width:0.8;" x="600.235155" xlink:href="#mf4bd339144"
                                 y="358.2072"/>
                        </g>
                    </g>
                    <g id="text_6">
                        <!-- 125000 -->
                        <g transform="translate(581.147655 372.805638)scale(0.1 -0.1)">
                            <use xlink:href="#DejaVuSans-31"/>
                            <use x="63.623047" xlink:href="#DejaVuSans-32"/>
                            <use x="127.246094" xlink:href="#DejaVuSans-35"/>
                            <use x="190.869141" xlink:href="#DejaVuSans-30"/>
                            <use x="254.492188" xlink:href="#DejaVuSans-30"/>
                            <use x="318.115234" xlink:href="#DejaVuSans-30"/>
                        </g>
                    </g>
                </g>
                <g id="xtick_7">
                    <g id="line2d_7">
                        <g>
                            <use style="stroke:#000000;stroke-width:0.8;" x="694.812185" xlink:href="#mf4bd339144"
                                 y="358.2072"/>
                        </g>
                    </g>
                    <g id="text_7">
                        <!-- 150000 -->
                        <g transform="translate(675.724685 372.805638)scale(0.1 -0.1)">
                            <use xlink:href="#DejaVuSans-31"/>
                            <use x="63.623047" xlink:href="#DejaVuSans-35"/>
                            <use x="127.246094" xlink:href="#DejaVuSans-30"/>
                            <use x="190.869141" xlink:href="#DejaVuSans-30"/>
                            <use x="254.492188" xlink:href="#DejaVuSans-30"/>
                            <use x="318.115234" xlink:href="#DejaVuSans-30"/>
                        </g>
                    </g>
                </g>
                <g id="xtick_8">
                    <g id="line2d_8">
                        <g>
                            <use style="stroke:#000000;stroke-width:0.8;" x="789.389216" xlink:href="#mf4bd339144"
                                 y="358.2072"/>
                        </g>
                    </g>
                    <g id="text_8">
                        <!-- 175000 -->
                        <g transform="translate(770.301716 372.805638)scale(0.1 -0.1)">
                            <use xlink:href="#DejaVuSans-31"/>
                            <use x="63.623047" xlink:href="#DejaVuSans-37"/>
                            <use x="127.246094" xlink:href="#DejaVuSans-35"/>
                            <use x="190.869141" xlink:href="#DejaVuSans-30"/>
                            <use x="254.492188" xlink:href="#DejaVuSans-30"/>
                            <use x="318.115234" xlink:href="#DejaVuSans-30"/>
                        </g>
                    </g>
                </g>
                <g id="xtick_9">
                    <g id="line2d_9">
                        <g>
                            <use style="stroke:#000000;stroke-width:0.8;" x="883.966247" xlink:href="#mf4bd339144"
                                 y="358.2072"/>
                        </g>
                    </g>
                    <g id="text_9">
                        <!-- 200000 -->
                        <g transform="translate(864.878747 372.805638)scale(0.1 -0.1)">
                            <use xlink:href="#DejaVuSans-32"/>
                            <use x="63.623047" xlink:href="#DejaVuSans-30"/>
                            <use x="127.246094" xlink:href="#DejaVuSans-30"/>
                            <use x="190.869141" xlink:href="#DejaVuSans-30"/>
                            <use x="254.492188" xlink:href="#DejaVuSans-30"/>
                            <use x="318.115234" xlink:href="#DejaVuSans-30"/>
                        </g>
                    </g>
                </g>
                <g id="text_10">
                    <!-- Time in sec from post creation -->
                    <defs>
                        <path d="M -0.296875 72.90625
L 61.375 72.90625 
L 61.375 64.59375 
L 35.5 64.59375 
L 35.5 0 
L 25.59375 0 
L 25.59375 64.59375 
L -0.296875 64.59375 
z
" id="DejaVuSans-54"/>
                        <path d="M 9.421875 54.6875
L 18.40625 54.6875 
L 18.40625 0 
L 9.421875 0 
z
M 9.421875 75.984375 
L 18.40625 75.984375 
L 18.40625 64.59375 
L 9.421875 64.59375 
z
" id="DejaVuSans-69"/>
                        <path d="M 52 44.1875
Q 55.375 50.25 60.0625 53.125 
Q 64.75 56 71.09375 56 
Q 79.640625 56 84.28125 50.015625 
Q 88.921875 44.046875 88.921875 33.015625 
L 88.921875 0 
L 79.890625 0 
L 79.890625 32.71875 
Q 79.890625 40.578125 77.09375 44.375 
Q 74.3125 48.1875 68.609375 48.1875 
Q 61.625 48.1875 57.5625 43.546875 
Q 53.515625 38.921875 53.515625 30.90625 
L 53.515625 0 
L 44.484375 0 
L 44.484375 32.71875 
Q 44.484375 40.625 41.703125 44.40625 
Q 38.921875 48.1875 33.109375 48.1875 
Q 26.21875 48.1875 22.15625 43.53125 
Q 18.109375 38.875 18.109375 30.90625 
L 18.109375 0 
L 9.078125 0 
L 9.078125 54.6875 
L 18.109375 54.6875 
L 18.109375 46.1875 
Q 21.1875 51.21875 25.484375 53.609375 
Q 29.78125 56 35.6875 56 
Q 41.65625 56 45.828125 52.96875 
Q 50 49.953125 52 44.1875 
" id="DejaVuSans-6d"/>
                        <path d="M 56.203125 29.59375
L 56.203125 25.203125 
L 14.890625 25.203125 
Q 15.484375 15.921875 20.484375 11.0625 
Q 25.484375 6.203125 34.421875 6.203125 
Q 39.59375 6.203125 44.453125 7.46875 
Q 49.3125 8.734375 54.109375 11.28125 
L 54.109375 2.78125 
Q 49.265625 0.734375 44.1875 -0.34375 
Q 39.109375 -1.421875 33.890625 -1.421875 
Q 20.796875 -1.421875 13.15625 6.1875 
Q 5.515625 13.8125 5.515625 26.8125 
Q 5.515625 40.234375 12.765625 48.109375 
Q 20.015625 56 32.328125 56 
Q 43.359375 56 49.78125 48.890625 
Q 56.203125 41.796875 56.203125 29.59375 
M 47.21875 32.234375 
Q 47.125 39.59375 43.09375 43.984375 
Q 39.0625 48.390625 32.421875 48.390625 
Q 24.90625 48.390625 20.390625 44.140625 
Q 15.875 39.890625 15.1875 32.171875 
z
" id="DejaVuSans-65"/>
                        <path id="DejaVuSans-20"/>
                        <path d="M 54.890625 33.015625
L 54.890625 0 
L 45.90625 0 
L 45.90625 32.71875 
Q 45.90625 40.484375 42.875 44.328125 
Q 39.84375 48.1875 33.796875 48.1875 
Q 26.515625 48.1875 22.3125 43.546875 
Q 18.109375 38.921875 18.109375 30.90625 
L 18.109375 0 
L 9.078125 0 
L 9.078125 54.6875 
L 18.109375 54.6875 
L 18.109375 46.1875 
Q 21.34375 51.125 25.703125 53.5625 
Q 30.078125 56 35.796875 56 
Q 45.21875 56 50.046875 50.171875 
Q 54.890625 44.34375 54.890625 33.015625 
" id="DejaVuSans-6e"/>
                        <path d="M 44.28125 53.078125
L 44.28125 44.578125 
Q 40.484375 46.53125 36.375 47.5 
Q 32.28125 48.484375 27.875 48.484375 
Q 21.1875 48.484375 17.84375 46.4375 
Q 14.5 44.390625 14.5 40.28125 
Q 14.5 37.15625 16.890625 35.375 
Q 19.28125 33.59375 26.515625 31.984375 
L 29.59375 31.296875 
Q 39.15625 29.25 43.1875 25.515625 
Q 47.21875 21.78125 47.21875 15.09375 
Q 47.21875 7.46875 41.1875 3.015625 
Q 35.15625 -1.421875 24.609375 -1.421875 
Q 20.21875 -1.421875 15.453125 -0.5625 
Q 10.6875 0.296875 5.421875 2 
L 5.421875 11.28125 
Q 10.40625 8.6875 15.234375 7.390625 
Q 20.0625 6.109375 24.8125 6.109375 
Q 31.15625 6.109375 34.5625 8.28125 
Q 37.984375 10.453125 37.984375 14.40625 
Q 37.984375 18.0625 35.515625 20.015625 
Q 33.0625 21.96875 24.703125 23.78125 
L 21.578125 24.515625 
Q 13.234375 26.265625 9.515625 29.90625 
Q 5.8125 33.546875 5.8125 39.890625 
Q 5.8125 47.609375 11.28125 51.796875 
Q 16.75 56 26.8125 56 
Q 31.78125 56 36.171875 55.265625 
Q 40.578125 54.546875 44.28125 53.078125 
" id="DejaVuSans-73"/>
                        <path d="M 48.78125 52.59375
L 48.78125 44.1875 
Q 44.96875 46.296875 41.140625 47.34375 
Q 37.3125 48.390625 33.40625 48.390625 
Q 24.65625 48.390625 19.8125 42.84375 
Q 14.984375 37.3125 14.984375 27.296875 
Q 14.984375 17.28125 19.8125 11.734375 
Q 24.65625 6.203125 33.40625 6.203125 
Q 37.3125 6.203125 41.140625 7.25 
Q 44.96875 8.296875 48.78125 10.40625 
L 48.78125 2.09375 
Q 45.015625 0.34375 40.984375 -0.53125 
Q 36.96875 -1.421875 32.421875 -1.421875 
Q 20.0625 -1.421875 12.78125 6.34375 
Q 5.515625 14.109375 5.515625 27.296875 
Q 5.515625 40.671875 12.859375 48.328125 
Q 20.21875 56 33.015625 56 
Q 37.15625 56 41.109375 55.140625 
Q 45.0625 54.296875 48.78125 52.59375 
" id="DejaVuSans-63"/>
                        <path d="M 37.109375 75.984375
L 37.109375 68.5 
L 28.515625 68.5 
Q 23.6875 68.5 21.796875 66.546875 
Q 19.921875 64.59375 19.921875 59.515625 
L 19.921875 54.6875 
L 34.71875 54.6875 
L 34.71875 47.703125 
L 19.921875 47.703125 
L 19.921875 0 
L 10.890625 0 
L 10.890625 47.703125 
L 2.296875 47.703125 
L 2.296875 54.6875 
L 10.890625 54.6875 
L 10.890625 58.5 
Q 10.890625 67.625 15.140625 71.796875 
Q 19.390625 75.984375 28.609375 75.984375 
z
" id="DejaVuSans-66"/>
                        <path d="M 41.109375 46.296875
Q 39.59375 47.171875 37.8125 47.578125 
Q 36.03125 48 33.890625 48 
Q 26.265625 48 22.1875 43.046875 
Q 18.109375 38.09375 18.109375 28.8125 
L 18.109375 0 
L 9.078125 0 
L 9.078125 54.6875 
L 18.109375 54.6875 
L 18.109375 46.1875 
Q 20.953125 51.171875 25.484375 53.578125 
Q 30.03125 56 36.53125 56 
Q 37.453125 56 38.578125 55.875 
Q 39.703125 55.765625 41.0625 55.515625 
z
" id="DejaVuSans-72"/>
                        <path d="M 30.609375 48.390625
Q 23.390625 48.390625 19.1875 42.75 
Q 14.984375 37.109375 14.984375 27.296875 
Q 14.984375 17.484375 19.15625 11.84375 
Q 23.34375 6.203125 30.609375 6.203125 
Q 37.796875 6.203125 41.984375 11.859375 
Q 46.1875 17.53125 46.1875 27.296875 
Q 46.1875 37.015625 41.984375 42.703125 
Q 37.796875 48.390625 30.609375 48.390625 
M 30.609375 56 
Q 42.328125 56 49.015625 48.375 
Q 55.71875 40.765625 55.71875 27.296875 
Q 55.71875 13.875 49.015625 6.21875 
Q 42.328125 -1.421875 30.609375 -1.421875 
Q 18.84375 -1.421875 12.171875 6.21875 
Q 5.515625 13.875 5.515625 27.296875 
Q 5.515625 40.765625 12.171875 48.375 
Q 18.84375 56 30.609375 56 
" id="DejaVuSans-6f"/>
                        <path d="M 18.109375 8.203125
L 18.109375 -20.796875 
L 9.078125 -20.796875 
L 9.078125 54.6875 
L 18.109375 54.6875 
L 18.109375 46.390625 
Q 20.953125 51.265625 25.265625 53.625 
Q 29.59375 56 35.59375 56 
Q 45.5625 56 51.78125 48.09375 
Q 58.015625 40.1875 58.015625 27.296875 
Q 58.015625 14.40625 51.78125 6.484375 
Q 45.5625 -1.421875 35.59375 -1.421875 
Q 29.59375 -1.421875 25.265625 0.953125 
Q 20.953125 3.328125 18.109375 8.203125 
M 48.6875 27.296875 
Q 48.6875 37.203125 44.609375 42.84375 
Q 40.53125 48.484375 33.40625 48.484375 
Q 26.265625 48.484375 22.1875 42.84375 
Q 18.109375 37.203125 18.109375 27.296875 
Q 18.109375 17.390625 22.1875 11.75 
Q 26.265625 6.109375 33.40625 6.109375 
Q 40.53125 6.109375 44.609375 11.75 
Q 48.6875 17.390625 48.6875 27.296875 
" id="DejaVuSans-70"/>
                        <path d="M 18.3125 70.21875
L 18.3125 54.6875 
L 36.8125 54.6875 
L 36.8125 47.703125 
L 18.3125 47.703125 
L 18.3125 18.015625 
Q 18.3125 11.328125 20.140625 9.421875 
Q 21.96875 7.515625 27.59375 7.515625 
L 36.8125 7.515625 
L 36.8125 0 
L 27.59375 0 
Q 17.1875 0 13.234375 3.875 
Q 9.28125 7.765625 9.28125 18.015625 
L 9.28125 47.703125 
L 2.6875 47.703125 
L 2.6875 54.6875 
L 9.28125 54.6875 
L 9.28125 70.21875 
z
" id="DejaVuSans-74"/>
                        <path d="M 34.28125 27.484375
Q 23.390625 27.484375 19.1875 25 
Q 14.984375 22.515625 14.984375 16.5 
Q 14.984375 11.71875 18.140625 8.90625 
Q 21.296875 6.109375 26.703125 6.109375 
Q 34.1875 6.109375 38.703125 11.40625 
Q 43.21875 16.703125 43.21875 25.484375 
L 43.21875 27.484375 
z
M 52.203125 31.203125 
L 52.203125 0 
L 43.21875 0 
L 43.21875 8.296875 
Q 40.140625 3.328125 35.546875 0.953125 
Q 30.953125 -1.421875 24.3125 -1.421875 
Q 15.921875 -1.421875 10.953125 3.296875 
Q 6 8.015625 6 15.921875 
Q 6 25.140625 12.171875 29.828125 
Q 18.359375 34.515625 30.609375 34.515625 
L 43.21875 34.515625 
L 43.21875 35.40625 
Q 43.21875 41.609375 39.140625 45 
Q 35.0625 48.390625 27.6875 48.390625 
Q 23 48.390625 18.546875 47.265625 
Q 14.109375 46.140625 10.015625 43.890625 
L 10.015625 52.203125 
Q 14.9375 54.109375 19.578125 55.046875 
Q 24.21875 56 28.609375 56 
Q 40.484375 56 46.34375 49.84375 
Q 52.203125 43.703125 52.203125 31.203125 
" id="DejaVuSans-61"/>
                    </defs>
                    <g transform="translate(445.750625 386.483763)scale(0.1 -0.1)">
                        <use xlink:href="#DejaVuSans-54"/>
                        <use x="61.037109" xlink:href="#DejaVuSans-69"/>
                        <use x="88.820312" xlink:href="#DejaVuSans-6d"/>
                        <use x="186.232422" xlink:href="#DejaVuSans-65"/>
                        <use x="247.755859" xlink:href="#DejaVuSans-20"/>
                        <use x="279.542969" xlink:href="#DejaVuSans-69"/>
                        <use x="307.326172" xlink:href="#DejaVuSans-6e"/>
                        <use x="370.705078" xlink:href="#DejaVuSans-20"/>
                        <use x="402.492188" xlink:href="#DejaVuSans-73"/>
                        <use x="454.591797" xlink:href="#DejaVuSans-65"/>
                        <use x="516.115234" xlink:href="#DejaVuSans-63"/>
                        <use x="571.095703" xlink:href="#DejaVuSans-20"/>
                        <use x="602.882812" xlink:href="#DejaVuSans-66"/>
                        <use x="638.087891" xlink:href="#DejaVuSans-72"/>
                        <use x="679.169922" xlink:href="#DejaVuSans-6f"/>
                        <use x="740.351562" xlink:href="#DejaVuSans-6d"/>
                        <use x="837.763672" xlink:href="#DejaVuSans-20"/>
                        <use x="869.550781" xlink:href="#DejaVuSans-70"/>
                        <use x="933.027344" xlink:href="#DejaVuSans-6f"/>
                        <use x="994.208984" xlink:href="#DejaVuSans-73"/>
                        <use x="1046.308594" xlink:href="#DejaVuSans-74"/>
                        <use x="1085.517578" xlink:href="#DejaVuSans-20"/>
                        <use x="1117.304688" xlink:href="#DejaVuSans-63"/>
                        <use x="1172.285156" xlink:href="#DejaVuSans-72"/>
                        <use x="1213.367188" xlink:href="#DejaVuSans-65"/>
                        <use x="1274.890625" xlink:href="#DejaVuSans-61"/>
                        <use x="1336.169922" xlink:href="#DejaVuSans-74"/>
                        <use x="1375.378906" xlink:href="#DejaVuSans-69"/>
                        <use x="1403.162109" xlink:href="#DejaVuSans-6f"/>
                        <use x="1464.34375" xlink:href="#DejaVuSans-6e"/>
                    </g>
                </g>
            </g>
            <g id="matplotlib.axis_2">
                <g id="ytick_1">
                    <g id="line2d_10">
                        <defs>
                            <path d="M 0 0
L -3.5 0 
" id="m3fd4e967b6" style="stroke:#000000;stroke-width:0.8;"/>
                        </defs>
                        <g>
                            <use style="stroke:#000000;stroke-width:0.8;" x="127.35" xlink:href="#m3fd4e967b6"
                                 y="358.2072"/>
                        </g>
                    </g>
                    <g id="text_11">
                        <!-- 0 -->
                        <g transform="translate(113.9875 362.006419)scale(0.1 -0.1)">
                            <use xlink:href="#DejaVuSans-30"/>
                        </g>
                    </g>
                </g>
                <g id="ytick_2">
                    <g id="line2d_11">
                        <g>
                            <use style="stroke:#000000;stroke-width:0.8;" x="127.35" xlink:href="#m3fd4e967b6"
                                 y="315.96792"/>
                        </g>
                    </g>
                    <g id="text_12">
                        <!-- 50 -->
                        <g transform="translate(107.625 319.767138)scale(0.1 -0.1)">
                            <use xlink:href="#DejaVuSans-35"/>
                            <use x="63.623047" xlink:href="#DejaVuSans-30"/>
                        </g>
                    </g>
                </g>
                <g id="ytick_3">
                    <g id="line2d_12">
                        <g>
                            <use style="stroke:#000000;stroke-width:0.8;" x="127.35" xlink:href="#m3fd4e967b6"
                                 y="273.728639"/>
                        </g>
                    </g>
                    <g id="text_13">
                        <!-- 100 -->
                        <g transform="translate(101.2625 277.527858)scale(0.1 -0.1)">
                            <use xlink:href="#DejaVuSans-31"/>
                            <use x="63.623047" xlink:href="#DejaVuSans-30"/>
                            <use x="127.246094" xlink:href="#DejaVuSans-30"/>
                        </g>
                    </g>
                </g>
                <g id="ytick_4">
                    <g id="line2d_13">
                        <g>
                            <use style="stroke:#000000;stroke-width:0.8;" x="127.35" xlink:href="#m3fd4e967b6"
                                 y="231.489359"/>
                        </g>
                    </g>
                    <g id="text_14">
                        <!-- 150 -->
                        <g transform="translate(101.2625 235.288578)scale(0.1 -0.1)">
                            <use xlink:href="#DejaVuSans-31"/>
                            <use x="63.623047" xlink:href="#DejaVuSans-35"/>
                            <use x="127.246094" xlink:href="#DejaVuSans-30"/>
                        </g>
                    </g>
                </g>
                <g id="ytick_5">
                    <g id="line2d_14">
                        <g>
                            <use style="stroke:#000000;stroke-width:0.8;" x="127.35" xlink:href="#m3fd4e967b6"
                                 y="189.250079"/>
                        </g>
                    </g>
                    <g id="text_15">
                        <!-- 200 -->
                        <g transform="translate(101.2625 193.049297)scale(0.1 -0.1)">
                            <use xlink:href="#DejaVuSans-32"/>
                            <use x="63.623047" xlink:href="#DejaVuSans-30"/>
                            <use x="127.246094" xlink:href="#DejaVuSans-30"/>
                        </g>
                    </g>
                </g>
                <g id="ytick_6">
                    <g id="line2d_15">
                        <g>
                            <use style="stroke:#000000;stroke-width:0.8;" x="127.35" xlink:href="#m3fd4e967b6"
                                 y="147.010798"/>
                        </g>
                    </g>
                    <g id="text_16">
                        <!-- 250 -->
                        <g transform="translate(101.2625 150.810017)scale(0.1 -0.1)">
                            <use xlink:href="#DejaVuSans-32"/>
                            <use x="63.623047" xlink:href="#DejaVuSans-35"/>
                            <use x="127.246094" xlink:href="#DejaVuSans-30"/>
                        </g>
                    </g>
                </g>
                <g id="ytick_7">
                    <g id="line2d_16">
                        <g>
                            <use style="stroke:#000000;stroke-width:0.8;" x="127.35" xlink:href="#m3fd4e967b6"
                                 y="104.771518"/>
                        </g>
                    </g>
                    <g id="text_17">
                        <!-- 300 -->
                        <defs>
                            <path d="M 40.578125 39.3125
Q 47.65625 37.796875 51.625 33 
Q 55.609375 28.21875 55.609375 21.1875 
Q 55.609375 10.40625 48.1875 4.484375 
Q 40.765625 -1.421875 27.09375 -1.421875 
Q 22.515625 -1.421875 17.65625 -0.515625 
Q 12.796875 0.390625 7.625 2.203125 
L 7.625 11.71875 
Q 11.71875 9.328125 16.59375 8.109375 
Q 21.484375 6.890625 26.8125 6.890625 
Q 36.078125 6.890625 40.9375 10.546875 
Q 45.796875 14.203125 45.796875 21.1875 
Q 45.796875 27.640625 41.28125 31.265625 
Q 36.765625 34.90625 28.71875 34.90625 
L 20.21875 34.90625 
L 20.21875 43.015625 
L 29.109375 43.015625 
Q 36.375 43.015625 40.234375 45.921875 
Q 44.09375 48.828125 44.09375 54.296875 
Q 44.09375 59.90625 40.109375 62.90625 
Q 36.140625 65.921875 28.71875 65.921875 
Q 24.65625 65.921875 20.015625 65.03125 
Q 15.375 64.15625 9.8125 62.3125 
L 9.8125 71.09375 
Q 15.4375 72.65625 20.34375 73.4375 
Q 25.25 74.21875 29.59375 74.21875 
Q 40.828125 74.21875 47.359375 69.109375 
Q 53.90625 64.015625 53.90625 55.328125 
Q 53.90625 49.265625 50.4375 45.09375 
Q 46.96875 40.921875 40.578125 39.3125 
" id="DejaVuSans-33"/>
                        </defs>
                        <g transform="translate(101.2625 108.570737)scale(0.1 -0.1)">
                            <use xlink:href="#DejaVuSans-33"/>
                            <use x="63.623047" xlink:href="#DejaVuSans-30"/>
                            <use x="127.246094" xlink:href="#DejaVuSans-30"/>
                        </g>
                    </g>
                </g>
                <g id="ytick_8">
                    <g id="line2d_17">
                        <g>
                            <use style="stroke:#000000;stroke-width:0.8;" x="127.35" xlink:href="#m3fd4e967b6"
                                 y="62.532237"/>
                        </g>
                    </g>
                    <g id="text_18">
                        <!-- 350 -->
                        <g transform="translate(101.2625 66.331456)scale(0.1 -0.1)">
                            <use xlink:href="#DejaVuSans-33"/>
                            <use x="63.623047" xlink:href="#DejaVuSans-35"/>
                            <use x="127.246094" xlink:href="#DejaVuSans-30"/>
                        </g>
                    </g>
                </g>
                <g id="text_19">
                    <!-- No of Upvotes -->
                    <defs>
                        <path d="M 9.8125 72.90625
L 23.09375 72.90625 
L 55.421875 11.921875 
L 55.421875 72.90625 
L 64.984375 72.90625 
L 64.984375 0 
L 51.703125 0 
L 19.390625 60.984375 
L 19.390625 0 
L 9.8125 0 
z
" id="DejaVuSans-4e"/>
                        <path d="M 8.6875 72.90625
L 18.609375 72.90625 
L 18.609375 28.609375 
Q 18.609375 16.890625 22.84375 11.734375 
Q 27.09375 6.59375 36.625 6.59375 
Q 46.09375 6.59375 50.34375 11.734375 
Q 54.59375 16.890625 54.59375 28.609375 
L 54.59375 72.90625 
L 64.5 72.90625 
L 64.5 27.390625 
Q 64.5 13.140625 57.4375 5.859375 
Q 50.390625 -1.421875 36.625 -1.421875 
Q 22.796875 -1.421875 15.734375 5.859375 
Q 8.6875 13.140625 8.6875 27.390625 
z
" id="DejaVuSans-55"/>
                        <path d="M 2.984375 54.6875
L 12.5 54.6875 
L 29.59375 8.796875 
L 46.6875 54.6875 
L 56.203125 54.6875 
L 35.6875 0 
L 23.484375 0 
z
" id="DejaVuSans-76"/>
                    </defs>
                    <g transform="translate(95.182812 238.543806)rotate(-90)scale(0.1 -0.1)">
                        <use xlink:href="#DejaVuSans-4e"/>
                        <use x="74.804688" xlink:href="#DejaVuSans-6f"/>
                        <use x="135.986328" xlink:href="#DejaVuSans-20"/>
                        <use x="167.773438" xlink:href="#DejaVuSans-6f"/>
                        <use x="228.955078" xlink:href="#DejaVuSans-66"/>
                        <use x="264.160156" xlink:href="#DejaVuSans-20"/>
                        <use x="295.947266" xlink:href="#DejaVuSans-55"/>
                        <use x="369.140625" xlink:href="#DejaVuSans-70"/>
                        <use x="432.617188" xlink:href="#DejaVuSans-76"/>
                        <use x="491.796875" xlink:href="#DejaVuSans-6f"/>
                        <use x="552.978516" xlink:href="#DejaVuSans-74"/>
                        <use x="592.1875" xlink:href="#DejaVuSans-65"/>
                        <use x="653.710938" xlink:href="#DejaVuSans-73"/>
                    </g>
                </g>
            </g>
            <g id="line2d_18">
                <path clip-path="url(#pc5bf16e1ca)" d="M 816.267494 329.484489
L 816.832826 326.950133 
L 816.915298 326.950133 
L 817.03939 328.639704 
L 817.205517 326.105347 
L 817.288695 326.105347 
L 817.371129 326.950133 
L 817.457916 326.105347 
L 817.550299 327.794918 
L 817.591448 326.105347 
L 817.680959 326.950133 
L 817.729019 326.950133 
L 817.774144 324.415776 
L 817.860705 325.260561 
L 817.944746 327.794918 
L 818.083608 324.415776 
L 818.125422 326.105347 
L 818.125422 326.105347 
L 818.125422 326.105347 
L 818.170887 323.57099 
L 818.26223 324.415776 
L 818.347704 326.105347 
L 818.473568 322.726204 
L 818.516018 324.415776 
L 818.601856 323.57099 
L 818.647468 323.57099 
L 818.778178 324.415776 
L 818.904495 322.726204 
L 818.988426 323.57099 
L 819.127984 320.191848 
L 819.214151 324.415776 
L 819.299895 321.036633 
L 819.341565 322.726204 
L 819.384375 324.415776 
L 819.426844 322.726204 
L 819.470875 322.726204 
L 825.125503 306.675278 
L 825.335014 303.296136 
L 825.421215 308.364849 
L 825.464354 306.675278 
L 825.507666 305.830492 
L 826.396902 304.140921 
L 826.440071 303.296136 
L 826.483334 304.985707 
L 826.526893 301.606564 
L 826.569577 302.45135 
L 826.655986 304.140921 
L 826.699265 303.296136 
L 826.742593 304.140921 
L 826.82798 302.45135 
L 826.870502 303.296136 
L 826.914299 303.296136 
L 827.042859 300.761779 
L 827.086032 304.140921 
L 827.172793 303.296136 
L 827.217449 304.140921 
L 827.261018 301.606564 
L 827.261018 301.606564 
L 827.261018 301.606564 
L 827.304229 304.985707 
L 827.346894 304.140921 
L 827.539794 299.072207 
L 827.581457 301.606564 
L 827.623158 300.761779 
L 827.721015 301.606564 
L 827.769325 299.916993 
L 827.815535 301.606564 
L 827.859922 300.761779 
L 827.902497 301.606564 
L 827.9452 301.606564 
L 828.114898 295.693065 
L 828.157544 295.693065 
L 828.241941 294.003494 
L 828.369125 295.693065 
L 828.411336 295.693065 
L 828.496107 296.537851 
L 828.580368 294.848279 
L 828.666308 296.537851 
L 828.793685 294.848279 
L 828.878747 296.537851 
L 828.921473 295.693065 
L 828.964623 291.469137 
L 829.049061 292.313923 
L 829.175715 293.158708 
L 829.387723 288.93478 
L 829.430033 285.555638 
L 829.515292 287.245209 
L 829.557265 285.555638 
L 829.557265 285.555638 
L 829.557265 285.555638 
L 829.686026 288.93478 
L 829.799905 285.555638 
L 829.842623 289.779566 
L 829.885168 285.555638 
L 829.970631 287.245209 
L 830.013426 286.400423 
L 830.226617 288.93478 
L 830.355144 284.710852 
L 830.397828 284.710852 
L 830.440445 283.021281 
L 830.525681 283.866067 
L 830.568025 286.400423 
L 830.61113 284.710852 
L 830.65333 283.021281 
L 830.695667 284.710852 
L 830.738287 286.400423 
L 830.823183 285.555638 
L 830.866004 284.710852 
L 830.908329 286.400423 
L 830.951149 282.176495 
L 831.03594 283.021281 
L 831.078257 283.021281 
L 831.16355 282.176495 
L 831.205857 283.021281 
L 831.248734 282.176495 
L 831.291298 281.33171 
L 831.419313 283.021281 
L 831.589771 279.642139 
L 831.717571 283.021281 
L 831.760199 280.486924 
L 831.802955 282.176495 
L 831.97347 284.710852 
L 832.015924 282.176495 
L 832.015924 282.176495 
L 832.015924 282.176495 
L 832.05826 285.555638 
L 832.100763 283.021281 
L 832.313872 277.107782 
L 832.399237 281.33171 
L 832.441838 278.797353 
L 832.527098 281.33171 
L 832.612395 280.486924 
L 832.654841 280.486924 
L 832.744988 281.33171 
L 832.889089 277.107782 
L 833.024796 279.642139 
L 833.253461 277.107782 
L 833.301264 277.107782 
L 833.347425 277.952567 
L 833.559433 274.573425 
L 833.654725 276.262996 
L 833.855421 270.349497 
L 833.905157 268.659926 
L 833.955226 269.504711 
L 834.004092 269.504711 
L 834.141732 267.81514 
L 834.186104 266.970354 
L 834.230211 267.81514 
L 834.274662 267.81514 
L 834.365566 263.591212 
L 834.413225 266.125569 
L 834.546892 266.125569 
L 834.590765 266.970354 
L 834.642082 266.125569 
L 834.688864 266.125569 
L 834.732903 265.280783 
L 834.78206 266.970354 
L 834.842816 265.280783 
L 834.902063 266.125569 
L 834.998721 263.591212 
L 835.093983 266.125569 
L 835.231989 262.746426 
L 835.320253 262.746426 
L 835.45563 263.591212 
L 835.499956 263.591212 
L 835.593126 261.901641 
L 835.637823 262.746426 
L 835.685407 262.746426 
L 835.730743 263.591212 
L 835.82728 261.056855 
L 835.874557 261.901641 
L 835.973591 261.056855 
L 836.018791 262.746426 
L 836.063284 261.901641 
L 836.213552 261.901641 
L 836.304395 257.677713 
L 836.363384 259.367284 
L 836.498913 256.832927 
L 836.546455 257.677713 
L 836.593138 259.367284 
L 836.682854 255.988142 
L 836.775706 258.522498 
L 836.821803 257.677713 
L 836.866141 255.143356 
L 836.91966 255.988142 
L 837.023399 257.677713 
L 837.068013 256.832927 
L 837.112389 256.832927 
L 837.20016 255.143356 
L 837.246942 260.21207 
L 837.291412 256.832927 
L 837.537354 250.919428 
L 837.627145 249.229857 
L 837.670946 250.074642 
L 837.714943 249.229857 
L 837.75866 249.229857 
L 837.801742 245.850714 
L 837.801742 245.850714 
L 837.801742 245.850714 
L 837.844653 250.074642 
L 837.93065 249.229857 
L 837.977443 249.229857 
L 838.02034 250.074642 
L 838.064356 249.229857 
L 838.109757 247.540285 
L 838.152801 249.229857 
L 838.195988 249.229857 
L 838.326073 245.850714 
L 838.462559 249.229857 
L 838.507268 248.385071 
L 838.64142 245.850714 
L 838.728903 245.005929 
L 838.772696 247.540285 
L 838.860437 246.6955 
L 838.904419 245.850714 
L 838.999798 249.229857 
L 839.099093 245.005929 
L 839.144036 245.850714 
L 839.189074 245.850714 
L 839.447515 242.471572 
L 839.493827 243.316357 
L 839.628127 239.092429 
L 839.67251 242.471572 
L 839.716401 240.782001 
L 839.891406 236.558073 
L 840.024325 240.782001 
L 840.067584 238.247644 
L 840.110867 239.937215 
L 840.154039 242.471572 
L 840.197068 241.626786 
L 840.239904 239.937215 
L 840.326756 240.782001 
L 840.36997 240.782001 
L 840.544964 238.247644 
L 840.646918 239.937215 
L 840.750098 237.402858 
L 840.8 239.937215 
L 840.845866 238.247644 
L 840.93677 233.17893 
L 840.98104 235.713287 
L 841.077489 235.713287 
L 841.212209 234.868501 
L 841.258725 234.868501 
L 841.356824 234.023716 
L 841.40274 236.558073 
L 841.40274 236.558073 
L 841.40274 236.558073 
L 841.544696 232.334145 
L 841.630648 238.247644 
L 841.683838 237.402858 
L 841.731232 234.868501 
L 841.822015 235.713287 
L 841.867559 234.868501 
L 842.043117 239.937215 
L 842.174208 236.558073 
L 842.217994 236.558073 
L 842.361108 235.713287 
L 842.455624 236.558073 
L 842.551919 233.17893 
L 842.654191 237.402858 
L 842.705811 236.558073 
L 842.751991 238.247644 
L 842.797751 237.402858 
L 842.941198 234.023716 
L 842.988706 238.247644 
L 843.036161 234.023716 
L 843.172813 234.023716 
L 843.219455 231.489359 
L 843.270681 234.023716 
L 843.319396 234.868501 
L 843.439354 232.334145 
L 843.484581 234.868501 
L 843.530193 233.17893 
L 843.674321 229.799788 
L 843.718712 230.644573 
L 843.763488 229.799788 
L 843.807921 228.955002 
L 843.965569 230.644573 
L 844.096101 230.644573 
L 844.141687 227.265431 
L 844.23158 228.110216 
L 844.275994 227.265431 
L 844.320244 230.644573 
L 844.364401 228.110216 
L 844.408072 228.110216 
L 844.453545 227.265431 
L 844.498208 228.110216 
L 844.544222 230.644573 
L 844.593114 228.955002 
L 844.638765 225.57586 
L 844.684434 226.420645 
L 844.816218 224.731074 
L 844.87837 225.57586 
L 844.937583 224.731074 
L 845.036321 226.420645 
L 845.239283 222.196717 
L 845.289909 222.196717 
L 845.337401 223.886288 
L 845.394049 222.196717 
L 845.534704 225.57586 
L 845.629156 224.731074 
L 845.786824 222.196717 
L 845.840218 222.196717 
L 845.890949 224.731074 
L 845.939869 221.351932 
L 845.994118 223.041503 
L 846.138215 218.817575 
L 846.29011 219.66236 
L 846.476419 222.196717 
L 846.622151 219.66236 
L 846.66824 222.196717 
L 846.66824 222.196717 
L 846.66824 222.196717 
L 846.713683 218.817575 
L 846.758081 222.196717 
L 846.80246 222.196717 
L 846.933657 218.817575 
L 847.064964 219.66236 
L 847.284194 216.283218 
L 847.371322 217.128004 
L 847.415157 214.593647 
L 847.458405 216.283218 
L 847.501899 218.817575 
L 847.545223 217.972789 
L 847.588955 216.283218 
L 847.63243 217.972789 
L 847.676749 218.817575 
L 847.720024 214.593647 
L 847.763953 216.283218 
L 847.807939 218.817575 
L 847.859604 217.128004 
L 847.909015 214.593647 
L 847.956243 216.283218 
L 848.015509 217.128004 
L 848.06627 216.283218 
L 848.181064 216.283218 
L 848.232987 214.593647 
L 848.279791 215.438432 
L 848.327015 216.283218 
L 848.463399 213.748861 
L 848.579275 216.283218 
L 848.627279 212.904076 
L 848.676735 215.438432 
L 848.821952 212.904076 
L 848.872006 214.593647 
L 849.019062 209.524933 
L 849.108933 212.05929 
L 849.243883 206.990576 
L 849.288667 210.369719 
L 849.509936 204.456219 
L 849.604252 206.990576 
L 849.745334 202.766648 
L 849.796478 202.766648 
L 849.844659 205.301005 
L 849.890344 204.456219 
L 849.935601 201.077077 
L 849.935601 201.077077 
L 849.935601 201.077077 
L 849.984149 205.301005 
L 850.041039 203.611434 
L 850.094687 200.232291 
L 850.142357 205.301005 
L 850.188779 201.921863 
L 850.278934 199.387506 
L 850.323605 201.077077 
L 850.367693 200.232291 
L 850.411962 197.697935 
L 850.456357 198.54272 
L 850.500585 201.077077 
L 850.544011 198.54272 
L 850.681113 194.318792 
L 850.818284 199.387506 
L 850.911904 194.318792 
L 850.958164 195.163578 
L 851.004234 195.163578 
L 851.049419 196.008363 
L 851.094551 190.93965 
L 851.139502 193.474007 
L 851.184471 194.318792 
L 851.273544 190.93965 
L 851.363071 196.853149 
L 851.802699 194.318792 
L 851.894752 196.853149 
L 851.940017 191.784435 
L 852.030841 192.629221 
L 852.122305 187.560507 
L 852.212921 188.405293 
L 852.353417 190.93965 
L 852.399563 188.405293 
L 852.445319 192.629221 
L 852.491931 188.405293 
L 852.536987 188.405293 
L 852.582823 186.715722 
L 852.674544 189.250079 
L 852.722551 185.870936 
L 852.769075 190.93965 
L 852.815486 187.560507 
L 852.862635 188.405293 
L 852.909568 187.560507 
L 852.956622 185.870936 
L 853.003229 188.405293 
L 853.003229 188.405293 
L 853.003229 188.405293 
L 853.139587 181.647008 
L 853.185714 186.715722 
L 853.279477 185.026151 
L 853.417575 185.026151 
L 853.510752 180.802222 
L 853.557356 184.181365 
L 853.602201 181.647008 
L 853.694898 184.181365 
L 853.741282 182.491794 
L 853.788805 180.802222 
L 853.836529 181.647008 
L 853.884018 181.647008 
L 853.931128 180.802222 
L 853.979052 184.181365 
L 854.025399 181.647008 
L 854.071704 182.491794 
L 854.117721 181.647008 
L 854.164355 181.647008 
L 854.30338 185.026151 
L 854.398645 182.491794 
L 854.445665 184.181365 
L 854.491902 181.647008 
L 854.491902 181.647008 
L 854.491902 181.647008 
L 854.538824 185.026151 
L 854.585401 181.647008 
L 854.679195 183.336579 
L 854.820803 180.802222 
L 854.867861 180.802222 
L 855.194867 174.888723 
L 855.289682 179.112651 
L 855.431279 175.733509 
L 855.570194 173.199152 
L 855.711968 177.42308 
L 855.759972 172.354366 
L 855.806776 175.733509 
L 855.853569 176.578294 
L 855.901217 175.733509 
L 855.994814 169.82001 
L 856.041486 171.509581 
L 856.135533 175.733509 
L 856.230527 172.354366 
L 856.274868 174.043938 
L 856.322036 172.354366 
L 856.370871 173.199152 
L 856.513376 164.751296 
L 856.655998 168.975224 
L 856.702999 163.90651 
L 856.751298 167.285653 
L 856.893133 168.975224 
L 856.941405 168.130438 
L 856.986261 163.90651 
L 857.033928 167.285653 
L 857.268037 163.90651 
L 857.314879 166.440867 
L 857.408381 165.596082 
L 857.45315 161.372154 
L 857.548302 162.216939 
L 857.64465 165.596082 
L 857.740286 160.527368 
L 857.834523 166.440867 
L 857.977485 160.527368 
L 858.02401 163.90651 
L 858.071885 161.372154 
L 858.167858 162.216939 
L 858.215971 166.440867 
L 858.312769 158.837797 
L 858.360413 165.596082 
L 858.406744 162.216939 
L 858.453851 161.372154 
L 858.50285 162.216939 
L 858.550123 163.90651 
L 858.597067 160.527368 
L 858.691724 161.372154 
L 858.834157 157.148225 
L 858.92879 160.527368 
L 858.977025 158.837797 
L 859.025584 158.837797 
L 859.071583 154.613869 
L 859.165014 155.458654 
L 859.212306 160.527368 
L 859.258702 157.993011 
L 859.306607 157.993011 
L 859.402307 157.148225 
L 859.544616 160.527368 
L 859.593236 158.837797 
L 859.734469 155.458654 
L 859.782163 157.148225 
L 859.82969 155.458654 
L 859.877353 156.30344 
L 859.971903 150.389941 
L 860.069056 157.148225 
L 860.116114 153.769083 
L 860.305469 150.389941 
L 860.448106 152.079512 
L 860.4951 152.924297 
L 860.590089 147.855584 
L 860.637767 150.389941 
L 860.685127 151.234726 
L 860.734342 147.855584 
L 860.782239 150.389941 
L 860.83092 150.389941 
L 860.926734 148.700369 
L 860.974401 150.389941 
L 861.022348 149.545155 
L 861.070056 148.700369 
L 861.118173 150.389941 
L 861.309816 144.476441 
L 861.403625 147.010798 
L 861.547103 143.631656 
L 861.689271 140.252513 
L 861.737199 137.718157 
L 861.785198 140.252513 
L 861.883906 143.631656 
L 861.982282 136.873371 
L 862.028851 140.252513 
L 862.512307 130.115086 
L 862.558328 128.425515 
L 862.655046 133.494228 
L 862.749105 127.580729 
L 862.795992 129.2703 
L 862.84372 129.2703 
L 862.891996 127.580729 
L 862.939628 129.2703 
L 862.98717 130.115086 
L 863.035684 128.425515 
L 863.083756 129.2703 
L 863.130072 132.649443 
L 863.130072 132.649443 
L 863.130072 132.649443 
L 863.272592 125.891158 
L 863.369833 129.2703 
L 863.465344 124.201587 
L 863.513968 129.2703 
L 863.562339 125.891158 
L 863.662481 129.2703 
L 863.710234 122.512016 
L 863.757901 125.891158 
L 863.807747 129.2703 
L 863.998346 119.977659 
L 864.04722 124.201587 
L 864.094327 123.356801 
L 864.285891 121.66723 
L 864.332665 125.046372 
L 864.381538 122.512016 
L 864.52511 119.977659 
L 864.574279 121.66723 
L 864.669245 116.598516 
L 864.716682 119.132873 
L 864.907538 117.443302 
L 865.051367 118.288088 
L 865.196183 115.753731 
L 865.243086 117.443302 
L 865.289591 116.598516 
L 865.343913 116.598516 
L 865.487008 112.374588 
L 865.629842 114.908945 
L 865.67629 111.529803 
L 865.724638 114.06416 
L 865.772853 114.06416 
L 865.821307 111.529803 
L 865.868365 115.753731 
L 865.917114 111.529803 
L 866.011063 115.753731 
L 866.059293 110.685017 
L 866.155993 111.529803 
L 866.203429 113.219374 
L 866.25172 110.685017 
L 866.299224 114.06416 
L 866.347322 111.529803 
L 866.490871 103.926732 
L 866.539056 108.15066 
L 866.586031 104.771518 
L 866.634288 103.926732 
L 866.780398 108.15066 
L 866.828 103.081947 
L 866.876367 105.616303 
L 867.021301 107.305875 
L 867.070708 103.081947 
L 867.070708 103.081947 
L 867.070708 103.081947 
L 867.118181 108.15066 
L 867.16746 104.771518 
L 867.217487 104.771518 
L 867.266225 103.081947 
L 867.314826 104.771518 
L 867.362553 104.771518 
L 867.45934 101.392375 
L 867.509496 103.926732 
L 867.704847 97.168447 
L 867.753486 98.858019 
L 867.801618 97.168447 
L 867.850102 96.323662 
L 867.897992 99.702804 
L 867.945662 98.858019 
L 868.042494 93.789305 
L 868.138482 97.168447 
L 868.186717 92.944519 
L 868.235518 93.789305 
L 868.284176 96.323662 
L 868.331189 93.789305 
L 868.427623 94.634091 
L 868.571134 92.944519 
L 868.619842 93.789305 
L 868.812555 89.565377 
L 868.910734 89.565377 
L 868.965294 92.944519 
L 869.061921 88.720591 
L 869.108846 92.944519 
L 869.156324 89.565377 
L 869.252486 87.875806 
L 869.299843 91.254948 
L 869.34774 86.186234 
L 869.395895 87.875806 
L 869.444413 89.565377 
L 869.541593 85.341449 
L 869.589718 86.186234 
L 869.732041 89.565377 
L 869.83171 83.651878 
L 869.878662 87.03102 
L 869.927997 84.496663 
L 869.97583 84.496663 
L 870.023879 87.875806 
L 870.023879 87.875806 
L 870.023879 87.875806 
L 870.167379 83.651878 
L 870.217089 82.807092 
L 870.266696 79.42795 
L 870.266696 79.42795 
L 870.266696 79.42795 
L 870.314704 83.651878 
L 870.361833 80.272735 
L 870.410374 79.42795 
L 870.458287 81.962306 
L 870.506759 81.117521 
L 870.653331 78.583164 
L 870.798019 82.807092 
L 870.942892 76.048807 
L 871.087576 81.962306 
L 871.181812 82.807092 
L 871.230686 77.738378 
L 871.278943 81.117521 
L 871.475236 76.893593 
L 871.571579 79.42795 
L 871.620162 76.893593 
L 871.763242 81.962306 
L 871.902467 79.42795 
L 871.998508 81.117521 
L 872.094163 78.583164 
L 872.144039 81.117521 
L 872.192466 79.42795 
L 872.240315 79.42795 
L 872.287641 77.738378 
L 872.334339 78.583164 
L 872.432174 79.42795 
L 872.577429 76.048807 
L 872.624195 75.204022 
L 872.671469 77.738378 
L 872.719854 75.204022 
L 872.864417 76.893593 
L 872.911747 81.962306 
L 872.911747 81.962306 
L 872.911747 81.962306 
L 872.959157 75.204022 
L 873.009116 77.738378 
L 873.106232 81.962306 
L 873.203097 75.204022 
L 873.251729 80.272735 
L 873.299782 75.204022 
L 873.347899 75.204022 
L 873.444034 79.42795 
L 873.492673 76.893593 
L 873.541638 78.583164 
L 873.588858 77.738378 
L 873.637755 78.583164 
L 873.687536 80.272735 
L 873.830347 77.738378 
L 873.879157 79.42795 
L 873.926763 73.51445 
L 874.02173 74.359236 
L 874.171521 79.42795 
L 874.220183 75.204022 
L 874.268655 81.117521 
L 874.268655 81.117521 
L 874.268655 81.117521 
L 874.315202 74.359236 
L 874.411546 75.204022 
L 874.458426 78.583164 
L 874.505779 75.204022 
L 874.651246 79.42795 
L 874.746129 73.51445 
L 874.795041 75.204022 
L 874.989945 79.42795 
L 875.038641 74.359236 
L 875.086663 76.893593 
L 875.134985 78.583164 
L 875.184437 76.893593 
L 875.232516 76.893593 
L 875.280323 80.272735 
L 875.329367 72.669665 
L 875.377249 77.738378 
L 875.424693 75.204022 
L 875.473998 77.738378 
L 875.570376 77.738378 
L 875.667381 75.204022 
L 875.765068 77.738378 
L 875.812648 76.893593 
L 875.862002 75.204022 
L 875.909873 79.42795 
L 875.958138 77.738378 
L 876.005729 76.893593 
L 876.099413 79.42795 
L 876.290988 75.204022 
L 876.437344 79.42795 
L 876.531846 75.204022 
L 876.579713 76.048807 
L 876.627282 77.738378 
L 876.675274 76.893593 
L 876.774114 73.51445 
L 876.918488 76.048807 
L 876.96631 76.048807 
L 877.015585 73.51445 
L 877.06386 76.048807 
L 877.112689 76.048807 
L 877.160904 79.42795 
L 877.160904 79.42795 
L 877.160904 79.42795 
L 877.307718 75.204022 
L 877.357598 75.204022 
L 877.405484 77.738378 
L 877.454395 76.893593 
L 877.503103 73.51445 
L 877.503103 73.51445 
L 877.503103 73.51445 
L 877.55237 77.738378 
L 877.601255 75.204022 
L 877.74929 78.583164 
L 877.797869 74.359236 
L 877.797869 74.359236 
L 877.797869 74.359236 
L 877.893411 79.42795 
L 877.940998 75.204022 
L 878.037977 76.048807 
L 878.086435 76.893593 
L 878.233294 75.204022 
L 878.282618 77.738378 
L 878.331011 76.048807 
L 878.478082 72.669665 
L 878.526286 75.204022 
L 878.575583 71.824879 
L 878.623167 73.51445 
L 878.822464 78.583164 
L 879.021684 74.359236 
L 879.117699 76.893593 
L 879.216328 74.359236 
L 879.265065 75.204022 
L 879.313632 75.204022 
L 879.362544 74.359236 
L 879.412446 76.893593 
L 879.462258 71.824879 
L 879.512032 75.204022 
L 879.560845 76.893593 
L 879.609469 75.204022 
L 879.658048 72.669665 
L 879.708382 76.048807 
L 879.758088 74.359236 
L 879.807922 75.204022 
L 879.95595 72.669665 
L 880.082986 78.583164 
L 880.180298 70.980094 
L 880.227129 75.204022 
L 880.27892 73.51445 
L 880.327018 65.91138 
L 880.424065 67.600951 
L 880.472156 70.980094 
L 880.566018 70.135308 
L 880.615618 70.135308 
L 880.710713 72.669665 
L 880.805248 69.290522 
L 880.899152 72.669665 
L 880.947469 66.756166 
L 881.042508 67.600951 
L 881.18434 69.290522 
L 881.232945 69.290522 
L 881.327926 67.600951 
L 881.374734 71.824879 
L 881.424894 65.91138 
L 881.475096 68.445737 
L 881.570766 71.824879 
L 881.62071 69.290522 
L 881.668956 70.980094 
L 881.717867 70.980094 
L 881.766215 65.91138 
L 881.814317 68.445737 
L 882.007814 71.824879 
L 882.157371 65.066594 
L 882.353062 72.669665 
L 882.401489 70.135308 
L 882.450442 71.824879 
L 882.550153 73.51445 
L 882.695745 67.600951 
L 882.793693 71.824879 
L 882.842298 70.980094 
L 882.989077 67.600951 
L 883.134238 70.980094 
L 883.183838 71.824879 
L 883.232103 68.445737 
L 883.281563 70.980094 
L 883.378716 70.135308 
L 883.475521 72.669665 
L 883.5243 71.824879 
L 883.573783 69.290522 
L 883.622297 72.669665 
L 883.622297 72.669665 
L 883.622297 72.669665 
L 883.718395 68.445737 
L 883.767023 71.824879 
L 883.816573 66.756166 
L 883.866113 71.824879 
L 883.914495 69.290522 
L 883.964443 71.824879 
L 884.012745 70.980094 
L 884.060684 74.359236 
L 884.205743 69.290522 
L 884.254821 70.980094 
L 884.302749 69.290522 
L 884.35135 69.290522 
L 884.496681 71.824879 
L 884.644505 69.290522 
L 884.694146 71.824879 
L 884.743674 70.980094 
L 884.792597 68.445737 
L 884.842174 69.290522 
L 884.890908 71.824879 
L 884.940239 70.980094 
L 884.989938 68.445737 
L 885.039568 70.980094 
L 885.08722 71.824879 
L 885.135564 69.290522 
L 885.183227 71.824879 
L 885.231506 71.824879 
L 885.423982 67.600951 
L 885.569143 70.980094 
L 885.615792 68.445737 
L 885.615792 68.445737 
L 885.615792 68.445737 
L 885.75706 71.824879 
L 885.856362 74.359236 
L 885.95221 67.600951 
L 886.096239 71.824879 
L 886.192644 65.91138 
L 886.240322 67.600951 
L 886.432044 71.824879 
L 886.480559 70.135308 
L 886.528048 71.824879 
L 886.576797 71.824879 
L 886.724609 66.756166 
L 886.773399 73.51445 
L 886.821626 72.669665 
L 886.918674 69.290522 
L 887.018324 72.669665 
L 887.067504 67.600951 
L 887.118167 71.824879 
L 887.167982 72.669665 
L 887.216671 71.824879 
L 887.363413 68.445737 
L 887.462537 71.824879 
L 887.56171 67.600951 
L 887.661016 71.824879 
L 887.807331 67.600951 
L 887.953252 71.824879 
L 888.002318 70.980094 
L 888.100243 66.756166 
L 888.24691 71.824879 
L 888.393103 67.600951 
L 888.489628 71.824879 
L 888.587391 67.600951 
L 888.635466 72.669665 
L 888.685225 71.824879 
L 888.78242 68.445737 
L 888.875748 70.135308 
L 889.025063 67.600951 
L 889.073872 68.445737 
L 889.122803 71.824879 
L 889.122803 71.824879 
L 889.122803 71.824879 
L 889.221662 66.756166 
L 889.270426 70.980094 
L 889.320249 67.600951 
L 889.468504 69.290522 
L 889.518774 69.290522 
L 889.66687 65.91138 
L 889.715475 71.824879 
L 889.765079 69.290522 
L 889.813635 68.445737 
L 889.862989 71.824879 
L 889.912033 70.980094 
L 889.960986 69.290522 
L 890.010631 70.135308 
L 890.059615 70.135308 
L 890.107686 71.824879 
L 890.205165 67.600951 
L 890.253585 70.980094 
L 890.302867 65.066594 
L 890.302867 65.066594 
L 890.302867 65.066594 
L 890.351907 71.824879 
L 890.40047 68.445737 
L 890.449053 65.91138 
L 890.497733 68.445737 
L 890.547337 70.980094 
L 890.597565 65.066594 
L 890.597565 65.066594 
L 890.597565 65.066594 
L 890.648954 71.824879 
L 890.700692 69.290522 
L 890.750477 67.600951 
L 890.799529 70.980094 
L 890.84892 69.290522 
L 890.89849 70.135308 
L 890.94697 67.600951 
L 890.997119 69.290522 
L 891.047158 71.824879 
L 891.096417 70.980094 
L 891.193181 67.600951 
L 891.241025 72.669665 
L 891.290251 67.600951 
L 891.386992 70.135308 
L 891.435238 65.066594 
L 891.435238 65.066594 
L 891.435238 65.066594 
L 891.532675 71.824879 
L 891.580723 70.135308 
L 891.627777 71.824879 
L 891.72652 67.600951 
L 891.775337 68.445737 
L 891.8246 68.445737 
L 891.875274 65.91138 
L 891.974126 71.824879 
L 892.024524 70.135308 
L 892.123066 67.600951 
L 892.185525 70.980094 
L 892.328158 65.066594 
L 892.476281 68.445737 
L 892.623541 66.756166 
L 892.7651 68.445737 
L 892.813251 65.91138 
L 892.861395 69.290522 
L 892.908347 67.600951 
L 892.95845 67.600951 
L 893.053795 65.91138 
L 893.148928 67.600951 
L 893.241844 64.221809 
L 893.387289 70.135308 
L 893.532313 67.600951 
L 893.627378 66.756166 
L 893.81688 68.445737 
L 893.91232 67.600951 
L 893.95985 71.824879 
L 894.006844 70.135308 
L 894.151115 67.600951 
L 894.198854 68.445737 
L 894.247364 71.824879 
L 894.295005 70.980094 
L 894.439394 66.756166 
L 894.487325 70.980094 
L 894.534621 68.445737 
L 894.824606 65.066594 
L 894.923132 70.135308 
L 895.021353 64.221809 
L 895.169021 70.135308 
L 895.266723 67.600951 
L 895.36351 70.135308 
L 895.413537 68.445737 
L 895.463016 65.91138 
L 895.512245 67.600951 
L 895.561944 67.600951 
L 895.662967 64.221809 
L 895.711247 69.290522 
L 895.761043 64.221809 
L 895.810545 65.91138 
L 895.88113 64.221809 
L 896.024285 69.290522 
L 896.168137 65.91138 
L 896.314633 66.756166 
L 896.41117 63.377023 
L 896.505989 69.290522 
L 896.554753 65.91138 
L 896.65093 70.980094 
L 896.700227 67.600951 
L 896.750183 67.600951 
L 896.798255 69.290522 
L 896.847556 67.600951 
L 896.944686 64.221809 
L 897.042214 66.756166 
L 897.089631 65.066594 
L 897.137994 66.756166 
L 897.186951 69.290522 
L 897.234572 66.756166 
L 897.283964 65.91138 
L 897.334472 70.135308 
L 897.383043 69.290522 
L 897.531287 64.221809 
L 897.627498 66.756166 
L 897.676342 64.221809 
L 897.868095 70.980094 
L 897.915625 64.221809 
L 897.963648 67.600951 
L 898.012242 67.600951 
L 898.058702 70.980094 
L 898.107458 65.066594 
L 898.154784 66.756166 
L 898.203128 68.445737 
L 898.251226 66.756166 
L 898.298749 66.756166 
L 898.447973 68.445737 
L 898.648306 62.532237 
L 898.698697 67.600951 
L 898.748338 64.221809 
L 898.896658 67.600951 
L 898.946821 70.135308 
L 899.139108 62.532237 
L 899.233269 69.290522 
L 899.281802 66.756166 
L 899.376088 69.290522 
L 899.521611 66.756166 
L 899.56901 66.756166 
L 899.714473 69.290522 
L 899.764379 63.377023 
L 899.814206 67.600951 
L 899.863666 66.756166 
L 899.912211 62.532237 
L 899.962322 66.756166 
L 900.011509 66.756166 
L 900.060791 65.91138 
L 900.110346 69.290522 
L 900.158542 64.221809 
L 900.255529 65.066594 
L 900.305231 70.135308 
L 900.353208 67.600951 
L 900.400917 63.377023 
L 900.450328 67.600951 
L 900.546539 64.221809 
L 900.59542 65.91138 
L 900.6437 65.066594 
L 900.837322 68.445737 
L 900.885477 62.532237 
L 900.935213 70.980094 
L 900.98504 64.221809 
L 901.13093 67.600951 
L 901.277339 65.91138 
L 901.324953 65.91138 
L 901.373857 69.290522 
L 901.42132 64.221809 
L 901.46949 68.445737 
L 901.662733 65.066594 
L 901.711524 70.980094 
L 901.760806 62.532237 
L 901.808798 64.221809 
L 901.855708 67.600951 
L 901.904362 66.756166 
L 902.048963 65.066594 
L 902.098045 68.445737 
L 902.145837 63.377023 
L 902.145837 63.377023 
L 902.145837 63.377023 
L 902.242404 70.135308 
L 902.29251 63.377023 
L 902.340552 69.290522 
L 902.436472 66.756166 
L 902.532339 67.600951 
L 902.628055 67.600951 
L 902.676599 64.221809 
L 902.725465 65.91138 
L 902.77407 68.445737 
L 902.82274 64.221809 
L 902.875392 67.600951 
L 902.922617 67.600951 
L 903.066419 70.980094 
L 903.114373 64.221809 
L 903.161968 67.600951 
L 903.210203 67.600951 
L 903.258664 69.290522 
L 903.308915 62.532237 
L 903.357187 69.290522 
L 903.451015 65.91138 
L 903.544147 68.445737 
L 903.685358 65.066594 
L 903.829648 66.756166 
L 903.877943 65.91138 
L 903.926192 67.600951 
L 903.973829 65.91138 
L 904.022385 65.066594 
L 904.165775 69.290522 
L 904.213313 63.377023 
L 904.261457 65.91138 
L 904.308166 67.600951 
L 904.35634 65.066594 
L 904.403443 69.290522 
L 904.45122 65.066594 
L 904.499469 64.221809 
L 904.640378 68.445737 
L 904.687636 64.221809 
L 904.687636 64.221809 
L 904.687636 64.221809 
L 904.733914 69.290522 
L 904.781732 65.91138 
L 904.830568 65.066594 
L 904.975434 69.290522 
L 905.023702 68.445737 
L 905.07194 64.221809 
L 905.07194 64.221809 
L 905.07194 64.221809 
L 905.119732 69.290522 
L 905.216685 68.445737 
L 905.264223 65.066594 
L 905.311897 67.600951 
L 905.358656 67.600951 
L 905.407121 70.135308 
L 905.454436 67.600951 
L 905.502224 69.290522 
L 905.549925 68.445737 
L 905.598746 64.221809 
L 905.649772 67.600951 
L 905.745578 65.066594 
L 905.889933 67.600951 
L 905.939113 65.066594 
L 905.986534 69.290522 
L 906.034874 67.600951 
L 906.082133 64.221809 
L 906.130102 66.756166 
L 906.185157 66.756166 
L 906.233951 69.290522 
L 906.282337 65.066594 
L 906.330772 68.445737 
L 906.377179 68.445737 
L 906.519744 64.221809 
L 906.758392 69.290522 
L 906.806441 65.91138 
L 906.855481 68.445737 
L 906.901941 67.600951 
L 906.997052 63.377023 
L 907.045857 64.221809 
L 907.093142 69.290522 
L 907.093142 69.290522 
L 907.093142 69.290522 
L 907.139231 63.377023 
L 907.187942 68.445737 
L 907.236135 66.756166 
L 907.28429 70.135308 
L 907.332778 64.221809 
L 907.332778 64.221809 
L 907.332778 64.221809 
L 907.381125 70.980094 
L 907.428645 67.600951 
L 907.478956 64.221809 
L 907.574653 65.066594 
L 907.622777 64.221809 
L 907.67167 70.135308 
L 907.719443 66.756166 
L 907.767469 63.377023 
L 907.816244 66.756166 
L 907.864157 69.290522 
L 908.009896 65.066594 
L 908.105672 64.221809 
L 908.250512 67.600951 
L 908.391704 63.377023 
L 908.584641 69.290522 
L 908.729597 62.532237 
L 908.873971 67.600951 
L 908.970893 67.600951 
L 909.016873 69.290522 
L 909.161474 63.377023 
L 909.259104 65.91138 
L 909.308242 64.221809 
L 909.358145 65.91138 
L 909.40647 68.445737 
L 909.455306 66.756166 
L 909.604442 64.221809 
L 909.653134 67.600951 
L 909.700464 65.066594 
L 909.796944 67.600951 
L 909.844615 62.532237 
L 909.892747 66.756166 
L 910.039954 64.221809 
L 910.086437 68.445737 
L 910.135042 64.221809 
L 910.183443 65.91138 
L 910.333605 62.532237 
L 910.427845 64.221809 
L 910.474661 69.290522 
L 910.521972 66.756166 
L 910.571125 65.91138 
L 910.619916 61.687452 
L 910.670348 64.221809 
L 910.812497 68.445737 
L 910.909352 66.756166 
L 910.956016 62.532237 
L 911.004417 68.445737 
L 911.097518 67.600951 
L 911.145643 64.221809 
L 911.195005 67.600951 
L 911.244907 65.066594 
L 911.294432 67.600951 
L 911.392762 63.377023 
L 911.441056 65.91138 
L 911.49032 66.756166 
L 911.590318 64.221809 
L 911.640156 66.756166 
L 911.687203 62.532237 
L 911.687203 62.532237 
L 911.687203 62.532237 
L 911.835571 67.600951 
L 911.885701 64.221809 
L 911.932463 66.756166 
L 911.98041 67.600951 
L 912.030336 63.377023 
L 912.07846 65.91138 
L 912.127024 65.91138 
L 912.127024 65.91138 
" style="fill:none;stroke:#1f77b4;stroke-linecap:square;stroke-width:1.5;"/>
            </g>
            <g id="patch_3">
                <path d="M 127.35 358.2072
L 127.35 48.2976 
" style="fill:none;stroke:#000000;stroke-linecap:square;stroke-linejoin:miter;stroke-width:0.8;"/>
            </g>
            <g id="patch_4">
                <path d="M 916.92 358.2072
L 916.92 48.2976 
" style="fill:none;stroke:#000000;stroke-linecap:square;stroke-linejoin:miter;stroke-width:0.8;"/>
            </g>
            <g id="patch_5">
                <path d="M 127.35 358.2072
L 916.92 358.2072 
" style="fill:none;stroke:#000000;stroke-linecap:square;stroke-linejoin:miter;stroke-width:0.8;"/>
            </g>
            <g id="patch_6">
                <path d="M 127.35 48.2976
L 916.92 48.2976 
" style="fill:none;stroke:#000000;stroke-linecap:square;stroke-linejoin:miter;stroke-width:0.8;"/>
            </g>
            <g id="text_20">
                <!-- Plot for 'https://redd.it/5o4bhv' -->
                <defs>
                    <path d="M 19.671875 64.796875
L 19.671875 37.40625 
L 32.078125 37.40625 
Q 38.96875 37.40625 42.71875 40.96875 
Q 46.484375 44.53125 46.484375 51.125 
Q 46.484375 57.671875 42.71875 61.234375 
Q 38.96875 64.796875 32.078125 64.796875 
z
M 9.8125 72.90625 
L 32.078125 72.90625 
Q 44.34375 72.90625 50.609375 67.359375 
Q 56.890625 61.8125 56.890625 51.125 
Q 56.890625 40.328125 50.609375 34.8125 
Q 44.34375 29.296875 32.078125 29.296875 
L 19.671875 29.296875 
L 19.671875 0 
L 9.8125 0 
z
" id="DejaVuSans-50"/>
                    <path d="M 9.421875 75.984375
L 18.40625 75.984375 
L 18.40625 0 
L 9.421875 0 
z
" id="DejaVuSans-6c"/>
                    <path d="M 17.921875 72.90625
L 17.921875 45.796875 
L 9.625 45.796875 
L 9.625 72.90625 
z
" id="DejaVuSans-27"/>
                    <path d="M 54.890625 33.015625
L 54.890625 0 
L 45.90625 0 
L 45.90625 32.71875 
Q 45.90625 40.484375 42.875 44.328125 
Q 39.84375 48.1875 33.796875 48.1875 
Q 26.515625 48.1875 22.3125 43.546875 
Q 18.109375 38.921875 18.109375 30.90625 
L 18.109375 0 
L 9.078125 0 
L 9.078125 75.984375 
L 18.109375 75.984375 
L 18.109375 46.1875 
Q 21.34375 51.125 25.703125 53.5625 
Q 30.078125 56 35.796875 56 
Q 45.21875 56 50.046875 50.171875 
Q 54.890625 44.34375 54.890625 33.015625 
" id="DejaVuSans-68"/>
                    <path d="M 11.71875 12.40625
L 22.015625 12.40625 
L 22.015625 0 
L 11.71875 0 
z
M 11.71875 51.703125 
L 22.015625 51.703125 
L 22.015625 39.3125 
L 11.71875 39.3125 
z
" id="DejaVuSans-3a"/>
                    <path d="M 25.390625 72.90625
L 33.6875 72.90625 
L 8.296875 -9.28125 
L 0 -9.28125 
z
" id="DejaVuSans-2f"/>
                    <path d="M 45.40625 46.390625
L 45.40625 75.984375 
L 54.390625 75.984375 
L 54.390625 0 
L 45.40625 0 
L 45.40625 8.203125 
Q 42.578125 3.328125 38.25 0.953125 
Q 33.9375 -1.421875 27.875 -1.421875 
Q 17.96875 -1.421875 11.734375 6.484375 
Q 5.515625 14.40625 5.515625 27.296875 
Q 5.515625 40.1875 11.734375 48.09375 
Q 17.96875 56 27.875 56 
Q 33.9375 56 38.25 53.625 
Q 42.578125 51.265625 45.40625 46.390625 
M 14.796875 27.296875 
Q 14.796875 17.390625 18.875 11.75 
Q 22.953125 6.109375 30.078125 6.109375 
Q 37.203125 6.109375 41.296875 11.75 
Q 45.40625 17.390625 45.40625 27.296875 
Q 45.40625 37.203125 41.296875 42.84375 
Q 37.203125 48.484375 30.078125 48.484375 
Q 22.953125 48.484375 18.875 42.84375 
Q 14.796875 37.203125 14.796875 27.296875 
" id="DejaVuSans-64"/>
                    <path d="M 10.6875 12.40625
L 21 12.40625 
L 21 0 
L 10.6875 0 
z
" id="DejaVuSans-2e"/>
                    <path d="M 37.796875 64.3125
L 12.890625 25.390625 
L 37.796875 25.390625 
z
M 35.203125 72.90625 
L 47.609375 72.90625 
L 47.609375 25.390625 
L 58.015625 25.390625 
L 58.015625 17.1875 
L 47.609375 17.1875 
L 47.609375 0 
L 37.796875 0 
L 37.796875 17.1875 
L 4.890625 17.1875 
L 4.890625 26.703125 
z
" id="DejaVuSans-34"/>
                    <path d="M 48.6875 27.296875
Q 48.6875 37.203125 44.609375 42.84375 
Q 40.53125 48.484375 33.40625 48.484375 
Q 26.265625 48.484375 22.1875 42.84375 
Q 18.109375 37.203125 18.109375 27.296875 
Q 18.109375 17.390625 22.1875 11.75 
Q 26.265625 6.109375 33.40625 6.109375 
Q 40.53125 6.109375 44.609375 11.75 
Q 48.6875 17.390625 48.6875 27.296875 
M 18.109375 46.390625 
Q 20.953125 51.265625 25.265625 53.625 
Q 29.59375 56 35.59375 56 
Q 45.5625 56 51.78125 48.09375 
Q 58.015625 40.1875 58.015625 27.296875 
Q 58.015625 14.40625 51.78125 6.484375 
Q 45.5625 -1.421875 35.59375 -1.421875 
Q 29.59375 -1.421875 25.265625 0.953125 
Q 20.953125 3.328125 18.109375 8.203125 
L 18.109375 0 
L 9.078125 0 
L 9.078125 75.984375 
L 18.109375 75.984375 
z
" id="DejaVuSans-62"/>
                </defs>
                <g transform="translate(429.76875 44.2976)scale(0.12 -0.12)">
                    <use xlink:href="#DejaVuSans-50"/>
                    <use x="60.302734" xlink:href="#DejaVuSans-6c"/>
                    <use x="88.085938" xlink:href="#DejaVuSans-6f"/>
                    <use x="149.267578" xlink:href="#DejaVuSans-74"/>
                    <use x="188.476562" xlink:href="#DejaVuSans-20"/>
                    <use x="220.263672" xlink:href="#DejaVuSans-66"/>
                    <use x="255.46875" xlink:href="#DejaVuSans-6f"/>
                    <use x="316.650391" xlink:href="#DejaVuSans-72"/>
                    <use x="357.763672" xlink:href="#DejaVuSans-20"/>
                    <use x="389.550781" xlink:href="#DejaVuSans-27"/>
                    <use x="417.041016" xlink:href="#DejaVuSans-68"/>
                    <use x="480.419922" xlink:href="#DejaVuSans-74"/>
                    <use x="519.628906" xlink:href="#DejaVuSans-74"/>
                    <use x="558.837891" xlink:href="#DejaVuSans-70"/>
                    <use x="622.314453" xlink:href="#DejaVuSans-73"/>
                    <use x="674.414062" xlink:href="#DejaVuSans-3a"/>
                    <use x="708.105469" xlink:href="#DejaVuSans-2f"/>
                    <use x="741.796875" xlink:href="#DejaVuSans-2f"/>
                    <use x="775.488281" xlink:href="#DejaVuSans-72"/>
                    <use x="816.570312" xlink:href="#DejaVuSans-65"/>
                    <use x="878.09375" xlink:href="#DejaVuSans-64"/>
                    <use x="941.570312" xlink:href="#DejaVuSans-64"/>
                    <use x="1005.046875" xlink:href="#DejaVuSans-2e"/>
                    <use x="1036.833984" xlink:href="#DejaVuSans-69"/>
                    <use x="1064.617188" xlink:href="#DejaVuSans-74"/>
                    <use x="1103.826172" xlink:href="#DejaVuSans-2f"/>
                    <use x="1137.517578" xlink:href="#DejaVuSans-35"/>
                    <use x="1201.140625" xlink:href="#DejaVuSans-6f"/>
                    <use x="1262.322266" xlink:href="#DejaVuSans-34"/>
                    <use x="1325.945312" xlink:href="#DejaVuSans-62"/>
                    <use x="1389.421875" xlink:href="#DejaVuSans-68"/>
                    <use x="1452.800781" xlink:href="#DejaVuSans-76"/>
                    <use x="1511.980469" xlink:href="#DejaVuSans-27"/>
                </g>
            </g>
        </g>
    </g>
    <defs>
        <clipPath id="pc5bf16e1ca">
            <rect height="309.9096" width="789.57" x="127.35" y="48.2976"/>
        </clipPath>
    </defs>
</svg>
